<?xml version="1.0" standalone="no"?>
<!DOCTYPE svg PUBLIC "-//W3C//DTD SVG 1.1//EN" "http://www.w3.org/Graphics/SVG/1.1/DTD/svg11.dtd" >
<svg xmlns="http://www.w3.org/2000/svg" xmlns:xlink="http://www.w3.org/1999/xlink" version="1.1">
<metadata></metadata>
<defs>
<font id="pr_vikingregular" horiz-adv-x="797" >
<font-face units-per-em="2048" ascent="1638" descent="-410" />
<missing-glyph horiz-adv-x="765" />
<glyph horiz-adv-x="0" />
<glyph unicode="&#xd;" horiz-adv-x="979" />
<glyph unicode=" "  horiz-adv-x="765" />
<glyph unicode="&#x09;" horiz-adv-x="765" />
<glyph unicode="&#xa0;" horiz-adv-x="765" />
<glyph unicode="!" horiz-adv-x="483" d="M226 1334q27 -40 89 -111q34 -31 64 -48q13 3 29 -3q1 -26 -26 -61q-14 -7 -38 -27q-2 -2 -13 -43q-3 -13 -9 -37q2 -25 0 -79q-4 -26 -11 -76q2 -27 -3 -79q-15 -43 -37 -127q-1 -15 7.5 -47.5t5.5 -51.5q-1 -16 -17.5 -42t-17.5 -40q-3 -10 11 -53q3 -8 -16 -142 q-1 -24 -14 -64q-15 -20 -44 -8q-11 4 -11 12q0 6 5.5 14.5l5.5 8.5q-11 37 -28 112q3 16 4 49q-6 21 -17 66q0 23 -4 67q0 2 -3.5 0.5t-3.5 -0.5q-6 26 -5 56q0 4 3.5 13t3.5 14q0 15 -3.5 43.5t-3.5 41.5q5 14 5 44q-12 6 -23 21q-2 4 6 8.5t9 7.5q0 4 -5.5 10.5 t-6.5 10.5q0 23 -3 68q-7 54 -16 114q-3 37 -21 108q-6 13 -23 25q-24 16 -30 22q-21 28 -20 37q5 10 23.5 20t22.5 15q-3 4 0 12q11 2 30 12q1 9 8 27q13 12 36 37q13 19 40 57q15 19 32 17q9 0 17.5 -10.5t15.5 -20.5zM251 128q8 -16 49 -40q22 -13 71 -40q3 -1 25 -3 q16 -1 15 -10q-2 -21 -47 -66q-27 -17 -76 -56q-1 -15 -17 -35q-24 -10 -56 8q-22 10 -57 47q-7 14 -24 36q-19 12 -56 22q-13 3 -25.5 6t-12.5 14q0 12 14 29q7 8 27 14t25.5 12t22 22.5t53.5 54.5q17 25 34 25t35 -40z" />
<glyph unicode="&#x22;" horiz-adv-x="625" d="M469 803q1 27 7 81q8 21 23 65q12 35 35 106q10 46 9 64q0 10 4 26t4 21q0 13 -13.5 23t-27.5 10q-11 0 -20 -7q-4 -3 -17.5 2.5t-20.5 3.5q-31 -18 -43 -18q2 0 -40 -4q-25 4 -58 -1q-3 -4 -3 -9t20 -51q9 -10 20 -31q4 -10 14 -68q7 -23 20 -71q2 -20 9 -61 q10 -19 25 -59q3 -22 7 -47q6 -34 16 -34q4 0 9 18t9.5 23t11.5 18zM161 803q1 27 7 81q7 21 22 65q12 35 34 106q12 47 10 64q0 9 4 25.5t4 21.5q0 14 -13 23.5t-29 9.5q-11 0 -18 -7q-4 -3 -18.5 2.5t-20.5 3.5q-31 -18 -42 -18q1 0 -41 -4q-26 4 -57 -1q-3 -4 -3 -10 q0 -3 18 -50q9 -10 22 -31q4 -11 14 -68q7 -23 18 -71q3 -20 10 -61q10 -19 26 -59q3 -22 7 -45q6 -36 16 -36q4 0 8 16q6 21 10 25.5t12 17.5z" />
<glyph unicode="#" horiz-adv-x="1319" d="M828 1310q33 3 27 3q7 0 23 -4.5t24 -4.5q6 0 19.5 6.5t18.5 6.5q3 0 5 -3q4 -6 -12 -57q-12 -25 -28 -71q6 -18 7 -59q-10 -13 -23 -39q-1 -6 3 -14.5t4 -10.5q0 -5 -1 -12.5t-3 -10.5q2 -24 0 -70q-10 -37 -25 -112q0 -16 -3 -44q-3 -13 -5 -40q3 -4 3 -17 q-5 -3 -12 -8q4 -20 7 -60q-6 -20 -15 -53q5 -35 -5 -105q-3 -8 -17 -7q-26 2 -23 2q-48 -6 -55 -5q-32 6 -35 19q-2 10 5 27q10 23 11 28q-1 30 3 78q7 17 17 50q1 11 -4 74q-3 27 -3 23q10 21 27 64q0 14 1 42q3 7 7 23q-2 13 -5 43q0 9 12 59q5 12 10 36q0 17 2 48 q4 7 10 17q-2 17 -2 48q0 34 3 70q-1 13 3 36q3 2 24 4zM75 960q-5 -14 -8.5 -29.5t-6.5 -52.5q0 -6 -6.5 -23.5t-3.5 -22.5q8 -11 42 -2q29 7 101 -2q9 -1 21.5 5.5t21.5 6.5q6 0 13 -3q7 1 19 1q19 -4 56 -8q16 -2 47 1l42 3q12 6 36 11q1 0 12.5 -4t25.5 -5.5t76 -8.5 q7 -2 23 2.5t22 4.5q11 0 32.5 -6.5t32.5 -6.5q12 0 21 3.5t10.5 20t2.5 29.5q6 22 13 66q0 50 -17 50q-7 0 -21 -5.5t-20 -7.5q-3 0 -47 7q-14 2 -18 2q-5 -2 -21 -8t-25 -6q-1 0 -58 18q-21 6 -19 7q-18 -10 -56 -22q-7 -3 -18.5 2t-17.5 5q-3 0 -10 -3.5t-10 -3.5 q-10 7 -34 15q-8 0 -51 -7q-38 -7 -31 -7q-6 0 -18.5 3.5t-22.5 2.5q-2 0 -7.5 -6t-8.5 -6q-9 0 -17.5 5t-10.5 6t-47 6q-22 2 -25 0q-4 -3 -14 -27zM550 1047q0 1 2.5 4t2.5 4q-2 8 -4 23q12 12 29 36l-9 34l-4 20q7 1 17 5q8 17 6 36l-5 33q29 44 29 58q0 10 -13 7 q-63 3 -135 3q-6 0 -4 -23q3 -27 0 -34q-3 -6 -3 -14q0 -6 3 -19t3 -20q0 -8 -3 -17q-10 -8 -22 -30q-1 -1 4.5 -5t5.5 -7q-3 -23 -4 -27q-7 -6 -16 -22q2 -15 0 -46q-5 -33 -1 -36q11 -9 38 -7q23 6 50 13q31 3 34 7zM950 840q3 -6 10 -10q5 0 12.5 7t11.5 7q12 -12 39 -24 q-2 0 37 14q21 7 21 8q0 -8 6 -18q25 -7 57 1q5 9 17 19q1 0 1.5 -7t2.5 -7q43 -10 45 -10q17 0 20 11q17 50 17 135q0 21 -11 21q-6 0 -26 -5t-27 -3q-12 3 -22 -3q-15 -10 -17 -11q-22 -5 -39 0q-7 7 -21 14q-4 1 -12.5 -4.5t-11.5 -5.5q-9 -2 -30 -2q-1 0 -9 7.5t-14 7.5 q-8 0 -15.5 -6t-19.5 -6q-13 0 -15 5q-14 -6 -38 -6q-4 1 -11 -36q-16 -91 -16 -89q0 -20 16 -20q8 0 24 7t18 9zM716 263q0 -3 -4.5 -6t-4.5 -4q5 -9 8 -24q-10 -12 -25 -37l6 -37q4 -17 4 -19q-7 -1 -15 -5q-13 -43 -16 -83q4 -7 9 -22q-6 0 -13 -2q-20 -30 -20 -33 q0 -4 6 -5q35 -12 54 -5q11 5 44 -1q29 -4 41 6q7 5 7 15q0 7 -3 25q-3 12 0 21.5t0 19.5q-4 14 -4 17q-2 18 4 35q7 10 17 30q2 3 -3 6.5t-5 6.5t3.5 6.5t3.5 4.5q-3 6 -5 19q8 7 16 22q2 6 -3 18t-5 18q4 6 8 14q2 4 0 12q-1 8 -1 11q0 1 3 7q2 3 0 6q-8 5 -27 10 q-93 14 -93 -17q0 -6 6.5 -16t6.5 -14zM1222 487q-3 -21 -14 -45q-13 -33 -16 -44q1 -20 -7 -50q-9 -4 -43 -1q-7 1 -24 8t-26 7q-9 -1 -27.5 -10.5t-28.5 -9.5q-9 10 -29 23q-5 0 -14 -6.5t-11 -7.5q-7 1 -22 1q-18 -5 -59 -11q-20 -3 -84 7q-12 1 -16 1q-13 -1 -37 -4 q-12 2 -35 0q-3 0 -8.5 -5t-8.5 -3q-2 0 -3.5 7.5t-2.5 7.5q-18 -8 -55 -20q-16 5 -46 7q-11 0 -36 -7t-36 -7q-12 0 -19.5 3t-4.5 20q2 14 5 31q3 23 9 70q14 52 32 52q8 0 20.5 -7t18.5 -7q-7 0 50 10q17 2 19 2q6 -2 21 -8.5t23 -6.5q8 2 66 22q24 7 23 7q17 -10 52 -22 q7 -1 20 3.5t17 4.5q7 -5 20 -6q13 7 40 16q8 1 51 -8q38 -5 30 -5q7 0 22 4t23 4q3 0 7.5 -5t5.5 -5q8 0 24 5t21 7q15 3 61 7q8 3 16 5q10 2 16 -2q3 -3 0 -29zM415 -36q-13 -1 -29 0q-14 6 -46 12q-5 0 -19 -5t-18 -5q-3 0 -5 3q-7 7 5 52q10 22 22 64q-5 20 -7 63 q12 14 27 42q2 6 -2.5 14.5t-4.5 11.5q-1 4 1.5 12.5t2.5 12.5q-1 23 0 71q12 39 27 121q2 14 5 44q5 54 5 43q0 3 -3.5 8t-1.5 9q8 4 15 13q-4 20 -7 62q6 19 17 56q2 11 -1 54q-2 32 8 54q3 8 19 10h24q57 12 62 11q37 -1 42 -17q2 -9 -6 -27q-11 -26 -13 -31 q0 -19 -1 -59q0 -7 -2 -21q-8 -20 -21 -57q0 -3 7 -74q2 -29 3 -25q-13 -24 -31 -70q1 -14 0 -42q-6 -10 -10 -26q4 -14 8 -44q-1 -10 -15 -64q-6 -13 -13 -37q1 -17 0 -52q-7 -6 -13 -19q1 -17 1 -50q0 -25 -2 -72q1 -13 -5 -38q-2 -3 -25 -8zM291 490q-3 6 -8 10 q-3 0 -12.5 -8t-13.5 -6q-10 13 -33 27l-36 -14l-19 -8q-21 10 -38 8q-19 -3 -37 -6q-7 -2 -26.5 11t-27.5 13q-7 0 -13 -8q6 -25 -6 -64q-12 -15 -17 -54q-4 -37 0 -44q2 -3 9 -3q4 0 23 5t27 3q7 -3 12 -3q10 0 17 6.5t9 6.5q25 3 34 0q28 -8 43 -4q1 0 4.5 -4.5t5.5 -4.5 t8 4.5t9 3.5q38 -8 28 -8q4 0 14 3t14 3q3 2 8 -2.5t7 -4.5q4 0 11.5 3.5t12.5 3.5q3 -4 11 -3q6 7 13 37q-2 24 4 54q4 4 10 26t2 25q-12 6 -26 3q-11 -4 -23 -7z" />
<glyph unicode="$" horiz-adv-x="921" d="M300 61q13 -17 8 -24q-10 -3 -21 -9q-19 -44 -20 -92q10 -8 17 -26q-8 0 -20 -2q-28 -34 -28 -37q0 -6 10 -7q55 -10 81 -2q18 7 68 3q41 -3 62 10q9 8 9 18q0 8 -6.5 25t-2.5 24q3 8 3 12q0 8 -6.5 16.5t-6.5 13.5q-4 22 5 42q11 11 25 34q0 2 -10 10q25 18 70 62 q1 9 10 24q11 4 31 19q12 22 37 61q10 1 29 11q11 17 35 48q23 16 60 49q38 40 75.5 80.5t32.5 55.5q-5 10 -19 14q-21 7 -25 10q-19 23 -59 59q-17 1 -48 9q-24 12 -58 47q-30 26 -57 53q-34 30 -107 85q-25 6 -69 24q-7 16 -29 41q-8 8 -49 29q-34 20 -44 37q-6 8 8 21 q24 14 68 46q5 15 20 39q40 27 66 25q12 0 20 -12.5t15 -23.5q12 -17 37 -48q19 -17 54 -56q11 -15 34 -44q9 -7 19 5q14 29 47 83q28 22 82 69q3 1 24 12q14 9 14 15q0 7 -11 9q-19 -1 -57 3q-23 7 -47 23q-11 10 -34 31l-51 34q-10 15 -34 42q-7 5 -17 10v2q0 7 5 21.5 t5 24.5q0 3 -5 8.5t-5 8.5q4 14 14 44q4 21 10 62q3 9 6 16q3 10 -2 17q-3 3 -31 7q-20 3 -37 2q-20 -5 -64 -9q-20 7 -51 7q-9 -5 -6 -44q2 -10 9.5 -30t7.5 -28q-1 -11 -12.5 -27.5t-11.5 -26.5q0 -6 9 -19q-5 -9 -18.5 -30t-47.5 -48q-47 -39 -52 -45q-14 -16 -44 -48 q-23 -20 -64 -59q-27 -28 -80 -81q-20 -8 -47 -35q-7 -21 22 -46q7 -5 26 -8.5t26 -8.5q13 -17 41 -44q18 -4 45 -18q19 -21 63 -60q17 -8 52 -25q22 -25 76 -67q12 -7 36 -10t32 -7q26 -9 49 -27q8 -12 30 -31q4 -5 41 -27q27 -15 31 -32q4 -11 -13 -25q-27 -20 -30 -24 q-9 -22 -36 -66q-6 2 -15 0q-14 -20 -44 -58q-17 -17 -34 -35.5t-35 -22.5q-27 -5 -61 35q-16 19 -33 51l-29 57l-14 46q-7 27 -24 27t-30 -29q-15 -37 -22 -45q-27 -13 -73 -44q-18 -24 -57 -67q-17 -9 -45 -28q-3 -5 0 -12t7 -8q26 -3 67 -2q48 2 65 0q19 0 28 -10 q9 -20 32 -52q15 -6 44 -20q17 -19 54 -57z" />
<glyph unicode="%" horiz-adv-x="1149" d="M270 1213l18 -42q16 -10 43 -36q10 -13 27 -35q14 -19 44 -56q10 -16 31 -51q3 -7 6 -15t14.5 -8t26.5 -7q24 -31 19 -64q-3 -13 -17 -28q-19 -22 -23 -27q-7 -20 -26 -58q-17 -19 -47 -62q-15 -36 -49 -110q-10 -16 -51 -74q-18 -22 -20 -22q-12 3 -26 16q-23 21 -24 21 q-9 3 -19 12q5 10 3 28q-8 3 -24 16q-8 14 -27 42q-7 10 -17.5 32t-32.5 65q-15 17 -42 54q-20 26 -34 47q-7 11 -17 34q-6 48 21 98q7 13 17.5 23t29.5 27q10 13 25 40q-5 9 -5 27q7 9 27.5 20.5t27.5 21.5q-1 11 6 33q15 10 42 35q5 5 9 29q3 18 14 18q16 2 50 -44z M709 1207q16 -12 24 -25q11 -21 37 -61q18 -7 40 -30q3 -16 -26 -65q-17 -20 -47 -66q-5 -14 -8 -45t-10 -46q-3 -7 -19.5 -16t-20.5 -16q0 -15 -4 -43q-4 -10 -13 -30q-9 -30 -30 -92q-25 -46 -72 -138q-7 -20 -22 -60q-7 -15 -19 -51q0 -10 -6 -28q-7 3 -17 0 q-4 -31 -19 -91q-12 -20 -37 -61q-5 -13 -19 -74q-12 -45 -32 -68q-3 -3 -5 -3q-6 0 -19.5 15t-16.5 18q-23 12 -60 42q-31 37 -29 63q1 14 18.5 34t22.5 27q7 27 24 77q3 10 13 29q14 17 38 57q3 7 27 107q0 13 6 35q20 22 55 66q6 20 17 56q9 9 19 26q1 23 11 67 q3 10 40 71q8 13 24 40q7 22 23 69q7 3 17 14q5 25 18 69q12 35 33 95q3 18 18 48q2 2 26 -16zM263 1037q-17 21 -29 21q-4 0 -7.5 -9t-6.5 -12q-13 -9 -34 -26q-7 -17 -27 -51q-14 -8 -30 -28q-1 -6 5 -13l8 -13q11 -22 34 -65q14 -11 37 -37q-6 -11 -6 -35q25 -42 44 -36 q15 4 25.5 22t18.5 35v11q12 27 26 50q14 13 30 41q1 11 -14 40q-13 13 -34 40q-12 22 -40 65zM840 672q12 -21 38 -67q6 -14 16 -38q12 -10 32 -33q3 -14 14 -40q16 -18 43 -55q11 -21 37 -61q23 -20 51 -66q9 -32 -15 -73q-3 -5 -15 -5.5t-17 -4.5q-13 -24 -41 -73 q-13 -23 -43 -65q-5 1 -11 0l-3 -30q-1 -11 -11 -31q-17 -10 -51 -37q0 -16 -14 -36q-15 -4 -37 22q1 8 -3 25q-9 9 -31.5 20t-29.5 19q-19 18 -60 79q-7 20 -27 56q-9 5 -23 18q-10 18 -32 55q-16 6 -40 25q-12 21 0 39q7 10 29 21.5t29 22.5q19 27 40 89t40 89 q11 13 28 37q6 13 16 40q7 21 28 62q21 26 40 24q8 0 13 -10t10 -18zM821 476q-10 0 -27 -19q-4 -11 -13.5 -32.5t-17.5 -32.5q-23 -21 -54 -72q-6 -20 10 -47q7 1 18 0q7 -19 26 -51q4 1 11 0q4 -12 17 -29q41 -35 56 -34q8 1 12.5 20.5t11 23t23.5 11.5v8q4 17 18 51 q1 3 11 5.5t10 7.5q0 1 -21 45q-8 23 -34 64q-7 -2 -21 0q-2 8 -7 25.5t-10 32.5q-9 23 -19 23z" />
<glyph unicode="&#x26;" horiz-adv-x="1474" d="M906 878q-2 16 -17 43q-17 21 -34 41q-20 27 -40.5 30.5t-20.5 14.5q0 17 61 12q7 0 43 -8q18 -2 31 2q44 15 67 0q14 -7 21 -4q13 5 137 27q36 5 36 -19q0 -8 -38 -51q-45 -48 -48 -55q-12 -16 -10 -27q3 -20 -6 -91q-1 -7 40 -7q65 0 142 8q30 4 41 26q20 42 22 44 q19 24 32 24q16 0 16 -34q0 -19 -4 -43q-3 -14 9.5 -44.5t9.5 -49.5q-2 -12 -2 -27q0 -14 5 -48.5t3 -54.5q-3 -49 -14 -49q-7 0 -23 15q-15 25 -58 71q-17 10 -54 10q-17 0 -114 -10q-17 5 -48 1q-6 -4 -6 -14t4.5 -28t4.5 -23q0 -15 -10 -38t-10 -36q0 -12 11.5 -50 t11.5 -65q0 -13 -5 -33t-5 -33q0 -10 5.5 -33t5.5 -36q-1 -77 -11 -147q-2 -11 -2 -18q0 -36 54 -58q29 -13 44.5 -33.5t15.5 -32.5q0 -10 -13 -10q-10 0 -24 5q-21 0 -74 11q-13 4 -35.5 -2t-42.5 -2q-21 4 -43 8q-5 2 -68 -10q-14 -5 -57 -12q-32 -5 -32 11q0 13 28 43 q16 8 48 25q23 13 27 30q3 24 6 47q0 3 6 17q4 8 1 16q-13 38 -13 78q0 14 6.5 39.5t6.5 39.5q0 10 -2 29.5t-2 28.5q0 32 17.5 51t17.5 22q0 -4 -17 41q-5 13 -5 26q0 11 5.5 34.5t4.5 37.5q-2 2 0 44q0 29 -9.5 36t-23.5 7q-10 0 -36 -6t-36 -4q-47 7 -62 7q-45 0 -59 -28 q-48 -83 -58 -83q-8 0 -33 29q-3 14 -7 34q-4 8 -22.5 16t-25.5 18q-12 17 -32 17q-7 0 -27.5 -4.5t-31.5 -2.5q-63 4 -77 1q-3 -3 -13 -6q-33 -7 -40.5 -2t-11.5 -42q-3 -46 2 -61q10 -25 10 -61q0 -27 -14 -108q-7 -34 13 -34q8 0 28 7q27 10 37 13q40 9 118 6q3 0 70 -6 q42 -4 69 0q26 3 60 19q10 19 22 38.5t32 26.5q18 8 18 -27q0 -38 -12.5 -64t-12.5 -48q0 -9 3 -27.5t3 -26.5q0 -17 -7.5 -34t-12.5 -62q-5 -32 -17 -29q-17 4 -32 28q-7 14 -14 27q-17 10 -40 9q-19 -2 -41 -5q-25 -3 -72 6q-51 9 -73 9q-27 0 -78.5 -6t-78.5 -6 q-13 0 -38.5 5t-38.5 5q-11 0 -44 -10t-50 -8q-6 0 -30 7q-17 4 -30 1q-17 -6 -32 -6q-30 0 -30 19q0 11 8 23t35.5 18.5t31.5 18.5q10 29 35.5 44t33.5 41.5t7 68.5l-6 72q0 12 5 42.5t6 43.5q2 20 5 39q2 24 -6 35q-2 1 -7 1q-39 0 -66 -22q0 -2 -12 -39t-25 -37 q-14 0 -22 32q-7 21 -7 41q0 21 5 34q26 60 10 88q-13 24 -11 51q1 27 4 53q0 11 -2 31t-2 24q0 12 6 12q8 0 30 -18t45 -72q4 -10 21 -16q20 -4 34 2q5 4 12 27.5t7 44.5q0 13 -5 22q-12 25 -15 65q-3 35 -4 68q-2 11 -27 25.5t-30 21.5q-17 24 -20 26t-31 14 q-7 3 -18.5 22t-17.5 23q-34 22 -34 37q0 12 18 12q15 0 34.5 -8t56.5 -8q44 0 57 -3q19 4 54 1q29 -14 40 -14q8 0 13 10t15 10q6 0 13 -1q83 -20 81 -20q21 0 41 10.5t71 17.5q20 2 52 -6t46 -8q13 0 25 3.5t48 39.5q14 8 42 30q35 29 46 29t14.5 -13.5t1.5 -23.5 q-5 -11 -2.5 -21.5t-7 -33.5t-7.5 -27q14 -38 0 -64q0 3 11 -20q8 -21 -2 -58q-1 -7 2.5 -22.5t3.5 -22.5q0 -12 -4 -20q-3 -15 -23 -37q-8 -5 -23 3t-23 25t-12 37q-9 28 -20 33q-34 11 -71 -3q-58 -20 -111 -2q-27 9 -129 3q-4 0 -11.5 -44t-7.5 -72q0 -13 3 -16 q7 -8 7 -21q0 -12 -5.5 -29.5t-5.5 -23.5q0 -18 24 -18q7 0 25.5 5t25.5 5q41 -10 125 -12q32 6 37 10q2 6 10 16q26 17 36 41q5 16 11 31q13 23 24 23q12 0 31 -33q12 -25 40 -71q14 -22 85 -12q62 7 79 4q5 -1 17 -7.5t18 -6.5q10 0 10 24q0 3 -23 71z" />
<glyph unicode="'" horiz-adv-x="311" d="M161 803q1 27 7 81q7 21 22 65q12 35 34 106q12 47 10 64q0 9 4 25.5t4 21.5q0 14 -13 23.5t-29 9.5q-11 0 -18 -7q-4 -3 -18.5 2.5t-20.5 3.5q-31 -18 -42 -18q1 0 -41 -4q-26 4 -57 -1q-3 -4 -3 -10q0 -3 18 -50q9 -10 22 -31q4 -11 14 -68q7 -23 18 -71q3 -20 10 -61 q10 -19 26 -59q3 -22 7 -45q6 -36 16 -36q4 0 8 16q6 21 10 25.5t12 17.5z" />
<glyph unicode="(" horiz-adv-x="539" d="M314 1264q3 -8 13 -20q59 -32 58 -51q-1 -24 -24 -41q-34 -23 -42.5 -34t-23.5 -37q-7 -23 -21 -67q-8 -14 -25 -42q-6 -6 -17 -20q-17 -41 -59 -117q-11 -5 -25 -21q-6 -37 0 -166q3 -13 8 -37q5 -104 0 -164q0 -8 -10 -31t-7 -35q6 -26 43 -47q8 5 24 5q9 -4 13 -19.5 t8.5 -19t33.5 -16.5q20 -10 20 -27v-3q0 -18 17 -20q12 0 33 -4q16 -10 40 -40t40 -39q10 -6 34 -18q12 -5 12 -14q0 -5 -7.5 -20t-6.5 -58q2 -8 14 -36.5t9 -37.5q-13 -31 -38 -25q-7 3 -11.5 18.5t-8.5 19.5q-20 6 -51 26q-5 14 -20 39q-20 16 -59 47q-29 26 -88 76 q-31 22 -92 66q-34 29 -61 63q-21 24 -27 42q-9 32 -4 63q1 6 9 18.5t8 18.5t-8.5 15t-8.5 13q-6 47 4 76q1 4 14 6t13 8q0 13 -13.5 35.5t-13.5 35.5t10.5 39t12.5 39q0 13 -10 39t-9 39q3 67 58 148q15 14 39 45q1 3 -2.5 9t-1.5 8q14 13 36 46q6 23 26 67q19 11 40 38 q-2 11 1 28q7 0 14 5q0 11 5 35t11 48q13 40 27 40q10 0 25.5 -17t21.5 -20z" />
<glyph unicode=")" horiz-adv-x="522" d="M78 1253q6 -14 24 -43q10 -4 30 -18q7 -6 12 -25t14 -25q5 -4 18 0t17 0q7 -6 8.5 -24t7.5 -26q13 -12 38 -27q33 -17 41.5 -27.5t28.5 -30.5q11 2 32 -4q6 -6 9 -23t7 -23q17 -7 46 -24q-2 -7 0 -17q15 0 32 -13q7 -42 9 -109v-111v-78q0 -27 -5 -82q0 -5 -5.5 -14 t-5.5 -15q0 -4 6.5 -14t4.5 -14q-1 -6 -14.5 -11.5t-13.5 -12.5q0 -9 15 -21.5t13 -21.5q-4 -24 -61 -109q-14 -10 -32 -33q7 -6 11 -18q-7 -20 -33.5 -50.5t-34.5 -46.5q-17 -38 -54 -111q-10 -24 -20 -51q-17 -38 -30 -38q-5 0 -15 15.5t-16 19.5q-3 -5 -9 -8 q-17 15 -49 45q-15 -1 -29 9q-1 11 24 39q12 6 29 22q-4 8 -3 24q11 1 33 13q-7 5 -10 17q15 8 34 31q3 9 1.5 28t2.5 27t20 17t21 16q0 10 3 29q23 38 58 117q16 44 36 133q1 9 -7.5 28.5t-8.5 27.5q0 9 8 24t8 22q0 10 -8 30.5t-8 30.5q0 4 8 10.5t8 9.5q1 84 -11 132 q-2 6 -14 8t-15 5q-10 15 -33 44q-22 18 -65 57q-25 32 -82 92q-12 10 -50 21.5t-50 23.5q-4 5 9 16t11 16q-3 27 -4 22q7 17 17 42q3 21 -4 52q-6 29 -2 37q2 4 6 4q14 0 41 -38z" />
<glyph unicode="*" horiz-adv-x="1381" d="M854 700q-4 3 -9 7q-10 13 -13 47q-2 42 -7 53q-12 30 -35 92q-3 22 -13 63q-11 27 -23 47q-7 11 -7 17q0 5 6 38q3 10 -13 26q-27 31 -27 35q0 2 6 4t6 9q0 6 -2 14q-6 17 -21 58q-9 20 -14 61q-2 12 -13.5 24t-13.5 17t-5 29q-1 16 -8 13q-22 -10 -44 -67 q-3 -21 -9 -58q-1 -3 -28 -85q-6 -30 -26 -89q-4 -7 -20.5 -12.5t-19.5 -15.5q-18 -52 -18 -78q0 -20 8.5 -35t31.5 -15q42 0 50 23q-2 16 4 44q10 30 21 57q13 34 36 41q14 4 17 -24q1 -40 5 -48q13 -6 32 -26q12 -48 38 -146q6 -17 11.5 -25.5t15.5 -24.5q1 -3 14 -60 q10 -42 17 -45q6 -3 28.5 16t32 18.5t9.5 0.5zM952 759q7 0 20 2q10 16 32 35l13 1q-7 13 -28 13q-5 0 -11 -6t-11 -7q-8 0 -33 -3.5t-38 -3.5q-39 0 -56 23.5t-10 75.5q2 14 34 10q5 -1 13.5 -9.5t14.5 -8.5q4 1 10 11t11 10q12 1 32.5 -6t30.5 -7q18 9 58 19 q7 0 21.5 -6.5t19.5 -7.5q37 -9 57 -8q10 0 33 6.5t34 6.5q64 0 97 -13q14 -5 -7.5 -18.5t-63.5 -39.5q-26 -18 -80 -52q-37 -20 -111 -59q-21 -10 -62 -34q-19 -28 -63 -71q-18 -15 -61.5 -32t-61.5 -30q-10 -9 -30 -40q-14 -26 -31 -26q-30 -1 -69 60q-10 19 9 27 q7 3 26 -0.5t28 0.5q11 6 27 21q20 23 25 27.5t59 28.5q34 15 34 40q0 11 37 40t51 31zM395 902q23 -6 71 -13q55 3 163 0q2 -5 10 -11q7 -2 20 2.5t17 4.5q13 0 23.5 -20.5t10.5 -34.5q0 -12 -5.5 -22t-28.5 -11h-37q-5 0 -12.5 3t-9.5 3q-23 0 -62 -3q-44 -2 -59 -3h-87 q-11 1 -69 8q-43 5 -70 2q-6 -2 -6 -11q0 -12 5 -15.5t78 -40.5q12 -4 26.5 -8.5t15.5 -14.5q2 -22 -8 -56q-13 -39 -32 -39q-8 0 -19 19q-15 18 -20 22q-29 9 -80 33q-3 9 -15 28q-9 0 -23 9t-30 36.5t-26 37.5q-15 13 -60 31.5t-60.5 32t-15.5 18.5t3 5q11 5 33 1 q27 -6 34 -6q45 5 137 10q44 -1 134 0q7 0 27 2q16 2 27 1zM506 744q3 -2 3 -5q0 -7 -13.5 -25t-15.5 -24q-15 -39 -33 -102q-7 -20 -21 -62q-11 -17 -28 -67q-9 -26 -7 -30q-5 -17 4 -41q14 -7 44 14q8 9 28 27q54 43 63 43q-10 0 30 -19q62 -28 62 -40q0 -15 -23 -25 q-5 3 -19 -2q-3 -5 -17 -21q-10 -8 -36 -15.5t-35 -14.5q-3 -5 -12 -13q-4 2 -14 0q-16 -17 -48 -41q-9 2 -26 -4q-4 -3 -16 -16q-4 -5 -17 -10q-21 -8 -71 -35q-20 -19 -62 -41q-4 0 -6 5q0 6 1.5 12.5t4.5 13.5q11 18 30 58q1 10 7 26q7 10 17 28q4 10 4 57q0 21 8 39 t23 60q3 8 7 43q5 27 27 63q8 1 19 8q4 6 17 37q13 24 26 85q1 5 -3 23q-2 13 4 16q55 21 94 -5zM554 592q4 -11 17 -29q23 -8 63 -29q11 -13 35 -34q20 -9 63 -37q5 -11 21 -30q17 -4 51 -17q1 -1 16 -10q8 -7 14 -4q18 6 21 40q2 13 -13 44q-1 5 -17 23q-14 12 -10 21 q26 64 69 58q22 -1 52 -71q6 -11 6 -35.5t5.5 -33t17.5 -30.5q0 -16 1 -37q0 -6 11.5 -21t16.5 -42q2 -18 3 -54q10 -20 24 -58q15 -47 15 -40q0 -6 -6 -6q-16 0 -33 18q-13 14 -25 28v4q-26 17 -49 27q-8 0 -22 4q-19 22 -63 57q-28 13 -79 41q-29 29 -90 80q-21 17 -65 46 q-24 4 -67 21q-23 23 -67 68q-1 -1 -4 0q1 26 4 50q4 35 26 35q13 0 29 -16t29 -31z" />
<glyph unicode="+" horiz-adv-x="907" d="M580 1028q-3 -18 -39.5 -46.5t-34 -55.5t-17.5 -44q18 -10 18 -24q0 -10 -10 -28.5t-10 -28.5q0 -15 13 -27l-16 -10q10 -4 26 -32q13 -26 36 -23q11 24 31 24q13 0 42 -18q3 9 22.5 8.5t23.5 12.5q8 -2 26 -16t28 -14q8 0 17 9q1 1 41 44q37 5 57 -23q3 -19 -14 -29 q-23 -14 -27 -21q5 -18 5 -41v-23q-1 -15 -1 -23q0 -36 17 -59q3 -4 3 -9t-19 -25q-17 -2 -40.5 24.5t-42.5 20.5l-19 34q-14 -17 -40 -17q-5 0 -18.5 1.5t-19.5 1.5q-24 0 -38 -20q-36 17 -61 17q-16 0 -25 -5v-20q-1 -10 -10 -15q16 -59 16 -62q0 -20 -16 -33l22 -40 l-17 -11q3 -4 37 -55q21 -36 25 -63q-10 -17 -25 -17q-7 0 -24.5 6t-24.5 6q-10 0 -17 -6q-7 15 -18 15q3 0 -31 -9q-9 4 -20 4q-15 0 -40.5 -11.5t-36.5 -11.5q-21 0 -38 30q-2 4 -2 7q0 10 13.5 22t16.5 16q16 -1 23 16q11 24 17 28q3 59 -6 158q11 6 11 17q0 6 -4 17.5 t-4 15.5q0 3 3 5q-6 5 -13 5t-17 -7t-14 -7q-7 0 -13 9q-3 0 -20 -7q-10 -5 -20 -2q-8 19 -27 19q-10 0 -31 -5.5t-31 -4.5q-17 5 -34 -8t-25 -13q-10 0 -21 12q-11 -12 -21 -25q-14 -12 -30 -10q-27 26 -21 44q31 19 31 56q0 11 -5 33t-5 30t-9 22t-9 24q0 5 2 10 q6 14 25 17q14 2 26.5 -4t32 -30t30.5 -24q13 0 26 18q42 -22 73 -22q27 0 52 17q10 1 26 -7.5t22 -8.5q11 0 20 16q-2 10 -18 26t-16 26q0 7 5 15q34 4 34 38q0 11 -4 36t-4 35q0 8 3 14q4 20 -32 55.5t-36 46.5q0 17 49 25q5 -10 18.5 -16.5t17.5 -13.5q17 17 48 17 q12 0 35 -3t35 -3q35 0 55 29q33 2 46 -18z" />
<glyph unicode="," horiz-adv-x="366" d="M207 293q9 -9 22 -46q10 -31 25 -40q41 -20 41 -56q-7 -18 -19 -56q2 -13 -8 -45q-21 -33 -36 -67q0 -4 -2 -14q-20 -27 -62 -76q-49 -44 -60 -44q-4 0 -4 7q0 15 22 64q12 26 -4 67q-13 17 -37 51q-14 17 -40 64q-4 12 -24.5 15.5t-19.5 15.5q2 10 32 33t32 27 q12 23 42 67q15 10 44 33q4 2 9.5 15.5t12.5 13.5q15 0 34 -29z" />
<glyph unicode="-" d="M114 612q7 5 21 10q8 0 24.5 -8.5t25.5 -6.5q14 1 41 13t41 14q17 1 40 -5l40 -10l41 -7q3 9 15 19q57 7 121 0q10 -10 34 -19q3 -1 5 6.5t5 7.5q88 12 101 12q34 0 40 -12q16 -34 16 -120q0 -36 -6 -39.5t-19 -3.5q-12 0 -56 4q-40 6 -56 3q-10 -1 -28 2q-22 2 -29 2 q2 -1 0 -4q-8 6 -27 13q-42 4 -78 0q-21 -10 -65 -20q-6 0 -14.5 7t-15.5 9q-4 0 -12.5 -4.5t-13.5 -4.5t-17 4.5t-21 4.5q-8 -2 -23 -9t-24 -7q-15 0 -41 7t-40 9q-5 0 -14.5 -4.5t-15.5 -4.5q-8 0 -26.5 3.5t-25.5 5.5q-10 -6 -26 -5q-13 8 -20 39q-2 21 -8 64l-3 4 q6 14 13.5 32t20.5 21q14 4 38 -8q32 -14 42 -14z" />
<glyph unicode="." horiz-adv-x="360" d="M185 278q12 -29 44 -88q17 -15 42 -49q17 -40 7 -69q-4 -14 -22 -31q-23 -20 -27 -27q-14 -25 -44 -75q-9 -17 -16 -33q-10 -20 -24 -20q-16 2 -27 23q-11 17 -21 36q-10 8 -26 25q-7 17 -23 48q-21 15 -45 50q-3 23 25 73q17 27 53 71q57 68 58 71q12 14 10 14 q23 -3 36 -19z" />
<glyph unicode="/" horiz-adv-x="655" d="M474 1203q16 -13 26 -27q11 -24 38 -64q20 -7 43 -31q3 -16 -28 -70q-19 -19 -49 -68q-5 -14 -8.5 -46.5t-11.5 -48.5q-2 -8 -19.5 -17.5t-21.5 -16.5t-4 -21q1 -19 0 -24q-6 -10 -14 -30q-10 -34 -30 -100q-16 -38 -65 -122q-3 -4 -35 -84q-8 -17 -24 -52q3 -12 -3 -32 q-8 3 -18 0q-4 -32 -20 -95q-13 -21 -38 -64q-6 -15 -22 -78q-11 -47 -32 -71q-3 -3 -6 -3q-7 0 -18 13q-16 19 -20 20q-23 13 -61 45q-33 40 -32 64q2 17 20.5 38t22.5 29q9 27 26 80q2 11 11 30q17 19 43 61q2 5 25 110q2 13 9 39q21 21 58 69q4 20 18 60q8 9 19 27 q1 24 11 70q6 12 41 74q10 14 27 41q8 27 23 74q9 4 20 15q6 24 20 73q10 34 33 99q2 19 18 50q4 3 28 -16z" />
<glyph unicode="0" horiz-adv-x="902" d="M541 1104q19 37 19 34q0 1 -12 23q-5 18 -22 55.5t-53 111.5q-10 27 -35 77q-13 20 -19 8q-4 -25 -23 -71q-18 -17 -47 -52q-11 -21 -21 -51t-17.5 -56.5t-27.5 -75.5q-19 -15 -46 -49q-1 -22 -13 -66q-8 -3 -22 -13q-3 -19 -13 -50q-19 -48 -34 -75q-23 -29 -58 -85 q-5 -20 -15 -63q-2 -7 -17 -40q-10 -23 -10 -40q0 -5 12.5 -11.5t14.5 -10.5q49 -67 73 -114q3 -25 17 -72q14 -12 38 -40q7 -7 13 -30q0 -9 10 -26q1 -12 7 -32q19 -31 58 -98q9 -16 18 -57t21 -60q14 -8 34 -31q5 -28 28 -84q14 -25 29 -25q12 0 25 29q9 20 16 42 q10 12 27 42q1 5 23 71q2 24 17 68q18 18 54 56q1 11 8 28q26 43 75 128q5 21 17 64q15 16 37 53q9 27 32 79q7 10 29.5 30.5t26.5 36.5q2 10 -12 17q-20 10 -23 14q-24 30 -40 77q-13 41 -25 84q-6 18 -29 47q-6 4 -8 15.5t-3 11.5q-14 0 -50 -69l-14 -42q-17 -21 -44 -56 q-4 -4 10 -27q14 -28 13 -45q-10 -24 -25 -70q6 -18 6 -49q-1 -5 -10.5 -5.5t-12.5 -3.5q-24 -38 -29 -71q-6 -18 -18 -36.5t-22 -35.5q-13 -39 -50 -113q-7 -8 -13 0q-17 29 -37 77q-5 27 -38 108q-11 24 -37 74q-4 14 -13 34q-3 6 -7 17q-20 30 -37 61q-4 19 9 47 q32 67 85 148q10 5 26 21q7 24 22 67q17 35 28.5 54.5t12.5 19.5q3 0 11 -26.5t19 -34.5q7 -5 29 25q1 3 25 56q10 15 19 32zM500 996q1 -14 0 -24q-3 -20 -17 -57q-18 -14 -50 -44q-17 -26 -48 -94q-6 -20 -23 -62q-13 -10 -31 -35l-6 -39q0 -12 -13.5 -24t-7.5 -18 q9 -18 21 -46q6 -13 24 -40q3 -10 9 -19q1 -1 10.5 -26t22.5 -25q5 0 9.5 14.5t6 18.5t5.5 11q9 0 21 10q9 14 16 44t11 41q14 23 40 71q14 32 31 74v12q13 14 32 39q10 18 31 53q3 13 9 30t21 44q15 20 37 55q14 39 44 111q11 31 39 90q19 17 54 51q13 10 32 32q1 5 -8 8.5 t-11 4.5q-18 16 -45 54q-5 12 -24.5 23t-29.5 30q-20 30 -36 30q-3 0 -5 -5q-10 -20 -16 -71q-6 -57 -11 -74q-19 -44 -59 -98q-14 -17 -16 -42.5t-12 -40.5q-4 -6 -16 -17q-42 -45 -41 -50zM276 183q-12 -8 -25 -24q-25 -45 -34 -71q-2 -16 -10 -53q-10 -18 -22 -58 q1 -15 -5 -32q-10 -3 -18.5 7.5t-18.5 20.5q-7 6 -13 24.5t-12 25.5q-17 10 -53 34q-2 3 -38 14q-27 9 -24 16q10 17 42 51t40 49q26 30 70 93q4 14 17 41q18 23 28 20q9 -3 22 -36q4 -25 20 -73q2 -5 19 -25q16 -14 15 -24z" />
<glyph unicode="1" horiz-adv-x="461" d="M304 1223q1 -18 -4 -71q-2 -13 4 -31q7 -26 7 -34q7 -54 4 -84q-5 -16 -12 -50q0 4 5 -47t3 -65q0 -20 -6 -77q-4 -49 -2 -78q8 -43 21 -126q4 -49 0 -120q-4 -14 -9 -39q5 -25 5 -71q0 -6 -8.5 -18t-8.5 -18q10 -3 21 -11q-2 -16 -4 -47q4 -43 10 -131q-5 -6 -6 -18 q24 -19 62 -61q3 -3 0 -13q-4 -12 -8 -13q-6 7 -21 13q-5 0 -141 -12q-37 -1 -63 6q-12 1 -45 1q-4 0 -27 -4t-28 -4q-19 4 -19 13q0 10 24 28q16 12 31 24t40 56q7 12 9 27q3 47 0 81q0 1 -4.5 3t-4.5 4q2 20 10 65q9 41 9 67q0 7 -8.5 20.5t-10.5 20.5q-3 20 5 46 q7 5 14 18q-5 45 -5 135q8 33 19 97q0 5 -7 17t-7 17q-6 17 -5 27q0 8 7.5 30t7.5 34q-9 32 -20 96q3 29 -9 81q-10 17 -45 21q-12 2 -29.5 -4.5t-26.5 -6.5q-7 0 -14 4q-14 9 -4 25q10 14 79 68q16 13 45 38q21 13 54 38q7 17 28 47q43 33 71 30q13 -1 14.5 -15.5 t2.5 -28.5z" />
<glyph unicode="2" horiz-adv-x="915" d="M504 1313q9 -17 32 -46q29 -14 88 -45q27 -22 81 -60q20 -13 58 -38q17 -6 44 -27q16 -26 4 -51q-1 -5 -14 -7t-16 -8q-7 -20 -22 -59q-3 -2 -111 -178q-19 -24 -46 -71q2 -14 -4 -40q-4 -8 -22 -18t-22 -20q-3 -4 3.5 -15.5t3.5 -15.5q-4 -9 -20.5 -16t-21.5 -13 q-16 -17 -36 -68q-6 -21 -17 -65q-3 -5 -21.5 -39.5t-55.5 -98.5q-21 -20 -58 -60q-28 -40 -28 -48q0 -6 7 -7q47 -17 118 -17q61 1 120 1q19 0 46 6q45 7 133 28q42 12 61 36q36 35 37 37q5 3 10 0q7 -4 7 -9q2 -7 -4 -29.5t-7 -28.5q3 -18 3 -67l-4 -68q-5 -41 -19 -65 q-6 -12 -27 -13q-32 -4 -35 -5t-13.5 -8.5t-16.5 -6.5q-23 11 -67 28q-26 6 -71 0q-23 -5 -68 -14q-46 -5 -92 0q-5 2 -13.5 7t-12.5 5q-13 -3 -38 -14.5t-39 -11.5t-37 10q-28 13 -38 16q-3 0 -5 -6t-4 -6q15 0 -108 12q-68 5 -75 2q-11 -2 -25 -7q-15 -4 -20.5 2.5 t-5.5 10.5q0 6 8 15t12 16q6 16 27 36t27 28q18 27 31 60q2 17 9 47q42 85 61 89q7 0 18 3q26 36 41 84q-2 16 5 45q3 6 17 7t18 6q7 12 11.5 40t10 39t22.5 23t23 19q18 24 38 72q23 57 33 74q11 12 30 33q7 20 24 60q11 18 34 56q1 9 9 26q24 19 52 61q13 48 -13 107 q-2 5 -39 12q-3 -2 -9 -4q-7 6 -37 41q-23 27 -42 32q-9 2 -14.5 -19t-11.5 -27q-13 -8 -36 -20q-28 -10 -37 -15q-19 -17 -62 -53q-23 -10 -58 -40q-10 -17 -14.5 -43t-7.5 -49q-1 -17 -2 -36q-3 -25 -16 -25q-7 0 -30.5 29t-42.5 85q-25 81 -28.5 90t-24 27.5t-20.5 26.5 q0 5 4 9q18 24 64 36q58 15 72 24.5t32 31.5t28 29q18 8 52 28q18 16 50 46q26 21 54.5 43t52.5 26q22 3 79 -42z" />
<glyph unicode="3" horiz-adv-x="963" d="M311 1205q7 0 22.5 7t21.5 7q114 11 195 10q21 -6 62 -14q68 -8 121 -6q14 1 54 10q34 6 53 4q32 -1 49 -21q3 -4 -4.5 -9t-13.5 -10q-39 -34 -67 -58l-62 -52q-16 -12 -46 -36q-11 -16 -38 -45q-24 -17 -67 -57q-21 -32 -67 -86q-14 -7 -37 -24q-8 -20 -35 -55 q15 -9 81 -34q15 -3 45 -14q14 -15 47 -36q10 -4 55 -7q35 -3 43 -21q20 -33 24 -90q2 -48 3 -96q2 -9 -3 -24.5t-5 -24.5q-2 -22 1 -64t3 -61q0 -84 -4 -129q-3 -23 -13 -30q-26 -21 -80 -41q-79 -28 -85 -30q-31 -15 -71 -40q-21 -15 -67 -45l-62 -31q-22 -15 -66 -36 q-21 -8 -28 -4q-9 7 -19.5 30.5t-20.5 30.5q-14 6 -40 21q-5 14 -25 43q-17 11 -40 34q-9 16 -38 55q-7 9 -42.5 16t-40.5 20q-4 13 16 34q30 26 34 31q20 36 61 107q4 21 21 58q5 4 15 3q10 -2 14 -7q14 -26 25 -90q7 -34 13 -49q19 -44 23 -46q20 -16 31 -30q7 -11 24 -30 q24 -21 47 -12q21 11 56 29q24 6 73 27q16 9 39.5 31.5t36.5 31.5q7 3 30 4q19 0 24 10q7 17 4 46q-4 22 -9 47q-1 4 -7.5 14.5t-6.5 16.5q0 13 12 47q10 28 7 45q-5 31 -41 67q-8 10 -53 31q-24 10 -71 33q-19 14 -63 34q-15 -2 -48 0q-54 17 -101.5 48t-44.5 47 q4 21 28 46q39 36 43 42q4 12 17 31q21 9 58 30q2 10 13 29q27 8 72 34q39 40 61 95h-156q-14 -1 -46.5 -8.5t-51.5 -7.5q-11 0 -36.5 11t-37.5 11q-7 0 -14 -2q-11 -5 -16 -28q-7 -29 -12 -34q-16 -27 -20 -33q-13 -16 -27 -21q-20 -9 -27 21q-4 14 -2 38q2 27 2 37l-6 18 t-3 18q9 13 22 41q1 11 1 60q-1 37 13 55q8 13 31 13q-10 0 40 -3q67 -11 200 -28z" />
<glyph unicode="4" horiz-adv-x="1065" d="M798 1374q-2 -39 -4 -115q0 -10 6.5 -31t6.5 -32q0 -7 -6.5 -21t-6.5 -24q0 -12 10 -42.5t7 -45.5q-1 -5 0 -22q2 -11 -8 -15q-70 -32 -83 -49q-24 -39 -47 -79q-27 -29 -79 -93q-3 -2 -21 -42.5t-53 -117.5q-31 -40 -85 -119q-7 -12 -19 -36q-15 -28 -45 -85 q-3 -13 -13 -36q-9 -7 -27 -22q-31 -30 -31 -60q0 -4 1 -7q4 -7 36 -9h36h62q35 2 106 5q9 0 29 -4.5t28 -4.5q27 0 27 45q0 16 -6 42q-5 32 -6 40.5t-11 31.5q-7 20 -4 33q4 11 21 24q25 18 29 24q11 14 47 67q20 24 49 75q3 13 8 29q8 24 18 24t18 -26q8 -15 8 -35 q0 5 -10 -80q-2 -8 -10.5 -31t-6.5 -36q0 -12 14 -30.5t15 -31.5q2 -17 -9.5 -48.5t-12.5 -45.5q-3 -55 12 -62q10 -5 23 -5q16 0 39 7q32 10 38 11t38 14q6 1 29 15q15 9 25 9q13 0 13 -7q0 -5 -8.5 -19t-8.5 -21q0 -10 4 -29t4 -32q-7 -12 -12 -37q-2 -16 9 -45.5 t11 -44.5q0 -24 -17 -24q-8 0 -24 3.5t-19 5.5q-13 1 -92 21q-2 0 -26 10q-16 6 -26 3q-8 -3 -12 -30q-2 -10 4.5 -38.5t17.5 -82.5q0 -18 9 -50q1 -2 21 -15q14 -10 10 -16q-8 -11 -31 -10q-40 3 -36 3q-41 -3 -59 3q-24 6 -30 4q-7 -5 -25.5 -10t-47.5 -4q-38 1 -38 14 q0 6 12 15t15 15q7 13 19 38q5 15 4 63q0 27 1 52q-1 33 -14 49q-6 5 -13 5q-8 0 -26.5 -7t-27.5 -7q-7 0 -22 4.5t-23 4.5q-27 -2 -97 -13q-4 -1 -14.5 -5.5t-17.5 -3.5q-2 0 -99 13q-88 13 -83 13q-7 0 -20.5 -5.5t-19.5 -7.5q-46 -7 -67 -4q-21 1 -41 4q-31 3 -34 11 t-3 18q0 14 38 78q20 23 59 71q65 85 113 175q3 11 12 35q14 21 42 67q14 17 63 92q14 17 35 54q14 26 27 63q-1 4 0 12q16 32 49 90q19 14 49 48q3 17 13 49q17 25 46 76q15 33 52 97q16 13 41 41q5 17 17 48q19 40 50 98q6 10 26 25t25.5 22t8.5 33q1 18 10 18 q17 0 22 -49z" />
<glyph unicode="5" horiz-adv-x="877" d="M796 1247q2 -30 -6 -82q-10 -60 -12 -83q0 -8 9 -54q1 -2 10 -25q7 -16 4 -26q-3 -14 -13.5 -24.5t-21.5 -7.5q-7 1 -8.5 20t-7.5 25.5t-26.5 14.5t-28 13.5t-17 26t-17.5 23.5t-15 3q-8 0 -28 -5.5t-30 -5.5q-4 1 -12 7.5t-12 6.5q-23 -6 -70 -10q-8 1 -28 10.5t-28 9.5 q-20 0 -20 -46q0 -15 5 -45t5 -44v-44q2 -31 22 -88q3 -6 17.5 -6.5t18.5 -2.5l69 -45q18 -6 50 -17q40 -14 117 -50q31 -17 48 -35q27 -30 31 -54q3 -16 -3 -43q-7 -34 -7 -46q0 -4 5 -13t5 -14q0 -17 -2.5 -48t-2.5 -45q0 -7 4.5 -45t4.5 -58q0 -18 -4 -27 q-10 -25 -18.5 -47t-39.5 -38q-18 -10 -31 -35.5t-24 -31.5q-15 -17 -39 -42q-14 -23 -44 -63q-13 -25 -48 -69q-24 -19 -30 -17q-14 12 -35 32q-5 2 -69 36q-10 4 -22.5 22t-22.5 22q-21 4 -65 18q-18 16 -55.5 40t-96.5 41l-106 26q-14 4 -39 17q-16 17 -10 33 q4 12 21.5 30.5t22.5 25.5q11 18 35 69q10 21 33 65q10 17 16 9q8 -12 19.5 -42t20.5 -40.5t89 -55.5q40 -20 62 -32q15 -1 40 -8q47 -19 73 -38q4 -16 21 -33q34 -11 67 0q7 3 44 41q18 16 18 21q0 2 23.5 28t27.5 29q13 19 13 33q0 7 -5.5 22t-5.5 26q0 9 1 17q3 12 0 40 q-3 26 4 38q6 9 7 22q2 8 0 24.5t-2 23.5q0 20 -26 47q-10 8 -43.5 9.5t-43.5 6.5q-25 14 -79 39q-24 2 -67 13q-23 19 -77 57q-7 6 -25 3q-29 -5 -33 -5q-10 0 -14 5q-6 5 3 74q8 10 17 32q1 6 -5.5 17.5t-7.5 16.5q0 5 4.5 12t4.5 11q0 6 -4 16t-5 14q-14 89 -13 108 q0 10 13 26.5t13 25.5q1 5 -10 7.5t-11 7.5q0 18 9.5 53t11.5 49q1 8 -2.5 28t-3.5 27q0 26 20 26q7 0 22 -5t22 -5q14 0 38.5 2t38.5 2q17 0 57.5 -5t61.5 -3q26 3 80 8q32 -3 96 0q13 0 36 8.5t37 8.5q28 0 30 -17z" />
<glyph unicode="6" horiz-adv-x="832" d="M436 818q-1 -5 -28 -41q-10 -13 -32 -38q-29 -34 -29 -44t8 -17q19 -19 37 -35q16 -12 19 -28q11 -62 17 -81q8 -31 32 -72q10 -13 19.5 -27.5t6.5 -25.5q-4 -11 -20.5 -19t-32.5 -14q-44 -22 -89 -35q-31 -10 -43 -4q-20 8 -44 42q-17 26 -33 73q-31 82 -29 103 q1 8 17.5 12.5t20.5 9.5q7 11 15.5 40t17.5 42q38 36 96 90q19 18 30 39q13 16 24 52q2 9 17 28q19 23 23 27q16 33 31 65q23 44 41 60q23 13 66 47q18 23 51 78q7 17 21 47q7 6 59 35q35 20 34 30q-5 14 -29 24q-31 12 -38 17q-3 0 -43 36q-4 14 -23 35q-45 54 -56 54 q-6 0 -9 -4q-17 -15 -20 -57q-7 -62 -8 -66q-37 -46 -100 -134q-8 -26 -32 -74q-20 -14 -53 -45q-13 -19 -28 -57t-23 -51q-11 -6 -31 -22q-13 -24 -42 -66q-17 -9 -44 -33q-4 -18 -17 -53q-15 -15 -44 -51q-10 -22 -38 -68q-20 -16 -57 -52q-24 -36 -20 -60q3 -19 20 -46 q14 -19 29 -39q29 -56 85 -174q3 -21 18.5 -63t32.5 -56q50 -44 77 -44q14 0 25 18q17 22 23 26q18 11 55 20q27 0 73 8q10 6 22.5 24.5t21.5 24.5q6 3 17 -1.5t17 -3.5q7 10 26 27q22 5 68 16q27 9 74 30q35 23 34 35q0 15 -19.5 36t-23.5 28q-7 29 -26 83q-8 8 -27 30 q-12 15 -32 52q-7 34 -27 102q-9 25 -39 83q-9 11 -27 37q-4 24 -8 47q-7 38 -14 38q-3 0 -8 -13.5t-11 -14.5q-13 -5 -16.5 -7.5t-7.5 -14.5z" />
<glyph unicode="7" horiz-adv-x="871" d="M36 1207l95 -18q22 0 42 9q5 1 22 0q27 8 41 5q32 -8 71 -8q102 -5 207 0q14 0 42.5 4t42.5 4q13 -1 81 -13q3 -1 19 -7q10 -4 17 -3q9 12 30 27q47 15 50 -4q2 -20 -10.5 -45.5t-25.5 -49t-40 -65.5q-14 -17 -40 -53q-17 -38 -58 -112q-13 -4 -31 -20q-10 -40 -40 -112 q-7 -12 -31 -31t-31 -32q-15 -37 -46 -106q-21 -34 -57 -107q-7 -20 -10 -58q-4 -41 -7 -58q-1 -9 -31 -93q-8 -22 -23 -62q-21 -56 -21 -122v-33q0 -48 -13 -82q-4 -12 12.5 -37.5t16.5 -32.5q0 -6 -6 -9q-9 -5 -70.5 12t-68.5 15q-3 0 -19.5 -7t-20.5 -7q-28 9 -89 22 q-10 -3 -23 0q-3 5 8 28q15 14 32 47q1 30 12 85q5 9 19.5 18t19 19.5t4 36.5t3.5 38q15 22 40 71q4 25 14 76q7 8 17 25q1 13 4 37q3 -1 4 0q12 27 33 84l38 107q25 62 30 73q17 42 37 70q17 13 46 43q8 20 31 54q11 5 25 24q6 14 10.5 51t12.5 52q4 8 22 14t18 15 q0 15 -40 30q-7 3 -17 0q-14 -5 -18 -5q-9 0 -29.5 2.5t-31.5 2.5q-9 0 -27.5 -4.5t-26.5 -4.5q-13 0 -38 4.5t-38 4.5q-4 0 -11 -6.5t-13 -6.5t-65 13q-20 4 -19 5q-30 -34 -98 -93q-8 -5 -8 25q0 19 4 57t4 55t-4 49t-4 51q0 8 -6.5 24.5t-6.5 25.5q0 8 3 14 q1 3 15.5 -9.5t17.5 -12.5z" />
<glyph unicode="8" horiz-adv-x="1110" d="M793 663q-6 0 -18 11t-16 14l-152 75q-10 3 -22 5.5t-8 8.5q4 10 20 19q24 8 27 11q25 17 62 50q19 12 48 42q20 31 25 58h-9q-8 -2 -11 0q-7 10 -26 32q-6 -2 -13 0q-5 11 -18 31q-41 38 -75 53q-15 -3 -42 0q-4 2 -4 18q-1 7 -4 13q-24 0 -84 -34q-45 -26 -74 -54 q-3 -10 -11 -27q-29 -47 -48 -66q-3 -4 -22.5 -7t-17.5 -13q3 -11 20 -21q27 -15 29.5 -19.5t12.5 -17.5q19 -10 57 -21q26 -3 73 -17q5 -13 28 -33q21 -10 54 -18q10 -3 40.5 -18.5t37.5 -22.5q33 -32 82 -50.5t81 -43.5q12 -9 34.5 -14.5t32.5 -8.5q22 -16 67 -44 q7 -3 53 -13q31 -5 35 -23q1 -7 1 -12q0 -24 -18 -54q-17 -26 -36 -50q-7 -10 -22 -21q-22 -13 -27 -20q-27 -24 -76 -80q-4 -13 -17 -40q-18 -15 -54 -48q-11 -14 -36 -40q-20 -12 -57 -45q-6 -21 -27 -61q-20 -26 -44 -23q-13 0 -29 11q-28 19 -30 20.5t-52 25.5 q-20 13 -63 31q-22 2 -66 9q-15 11 -44 28q-27 7 -80 26q-23 12 -67 31q-31 8 -94 31l-44 22q-22 12 -37 27q-5 7 15 32q34 36 98 111q20 30 62 89q14 18 44 53q12 13 27 41q-1 20 0 63q0 8 10 7q48 -16 73 -39q17 -14 92 -46q18 -6 55 -26q3 -1 5 -8q1 -8 -2 -10 q-8 -12 -18 -23.5t-24.5 -10.5t-39.5 -6q-9 -6 -17.5 -24.5t-13.5 -23.5q-19 -6 -49 -27q-38 -53 -35 -90q1 -9 17 -9q23 -1 27 -4q4 -7 14 -17l42 -9t77 -23q3 -8 15 -18q19 0 56 -8q6 -3 10.5 -20.5t11.5 -16.5q17 7 34 31q24 32 28 37q21 14 58 48q23 23 46.5 49.5 t24.5 53.5q2 15 -18 26.5t-38 22.5q-33 16 -96 47q-41 26 -100 57q-52 22 -90 46q-43 28 -89 48q-44 10 -101 24q-10 4 -23.5 22t-22.5 24q-18 2 -57 17q-25 21 -81 56q-4 3 -27 5q-15 0 -17 8q-1 20 37 54q13 4 39 19q20 12 49 44q-4 10 -4 27q14 10 46 31q27 34 88 94 q21 7 57 30q8 8 15 31t15 30.5t28 12.5t29 13t21 34t21 36q7 6 54 34q30 19 35 19q6 0 10 -9q7 -14 7 -15q19 -24 61 -70q17 -4 50 -18q10 -5 36 -32q18 -17 52 -49.5t68 -56.5q15 -4 40 -22q-3 -8 0 -18q17 3 50 -4q4 -3 0 -16t0 -16q4 -4 57 -29q40 -19 40 -39 q0 -12 -27 -42q-8 -10 -31 -23t-31 -23q-14 -17 -32.5 -57.5t-29.5 -55.5q-6 -6 -21.5 -11t-19.5 -11q-5 -11 -5 -28q2 -23 0 -27q-2 -19 -12 -19z" />
<glyph unicode="9" horiz-adv-x="865" d="M438 554q-33 -41 -56 -82h3q-4 -7 -14 -22q-49 -72 -137 -186q-15 -20 -44 -58q-7 -23 -27 -63q-20 -14 -54 -48q-22 -18 -52 -54q-3 -10 -30 -27t-26 -30q2 -11 42 -27q46 -22 51 -24q11 -3 34 -13q7 -2 41 -42q27 -30 40 -24q17 8 20 41q5 38 11 50q10 22 30 61 q1 15 14 44q17 8 44 31q10 27 36 77q21 17 62 56q24 33 78 125q15 30 46 84q13 16 44.5 40t46.5 41q5 9 8.5 29.5t6.5 27.5q19 38 40 63q14 5 36 21q29 34 35 43q19 24 23 48q3 11 -7 24.5t-19 26.5q-22 27 -58 85q3 12 4 34q-7 10 -18 29q-3 22 -19 66q-10 5 -29 18 q-25 24 -32 44q-4 11 -8 49q-3 30 -13 45t-19 28t-28 15q-13 0 -48 -34q-9 -3 -26 -8q-20 -16 -57 -37q-29 -4 -85 -17q-40 -12 -72 -27q-41 -29 -134 -76q-61 -22 -61 -46q0 -15 27 -54q9 -9 11.5 -35t7.5 -34q14 -35 48 -108q15 -12 40 -42q7 -17 11 -50.5t11 -49.5 q19 -38 59 -115q5 -22 29 -61q5 -4 10 10t9 18.5t20 18.5q3 12 15 31q6 13 19.5 29.5t26.5 39.5q17 29 27 42q3 3 3 6q0 7 -18.5 20.5t-21.5 23.5q-11 16 -31 50q-23 48 -59 142q-1 4 -10 19t-9 20q0 16 35 29q27 8 51 16q20 12 61 35l34 16q13 0 25 -24q7 -18 14.5 -37 t30.5 -56q21 -27 53 -85q1 -7 -9 -14q-16 -9 -18 -12q-16 -31 -57 -93q-9 -9 -20 -26q0 -11 -7 -33q-17 -15 -41 -38z" />
<glyph unicode=":" horiz-adv-x="398" d="M180 13v1l-19 3q2 6 -2 14q-21 22 -60 67q-12 24 -44 70q-4 4 -21.5 5.5t-17.5 8.5q0 27 34 68q25 28 51 58q4 17 23 46q15 8 38 30q13 19 24 19q10 0 15.5 -15.5t4.5 -23.5q-9 -26 36 -74q9 -4 29 -22q7 -8 26 -24q11 -8 11 -21q0 -16 -14 -36q-10 -12 -18 -25 q0 -9 -5 -26q-7 -5 -20 -18q-2 -10 -9 -29q-23 -41 -62 -76zM95 734q10 -22 31 -66q2 -13 5 -25q3 -15 18 -12q20 3 40 25q16 22 33 41q17 32 58 93q15 7 37 27q8 27 -9 61q-10 17 -51 47q-6 3 -28 32.5t-22 34.5q-2 14 -11 28q-27 7 -51 -16q-9 -8 -14 -27q-6 -25 -10 -32 q-9 -9 -26 -27q-11 -13 -31.5 -26.5t-30.5 -23.5q-33 -33 -30 -44q4 -11 21 -19q24 -8 30 -14.5t41 -56.5z" />
<glyph unicode=";" horiz-adv-x="397" d="M243 355q6 -8 18 -43q10 -29 26 -36q38 -20 38 -56q-8 -15 -20 -51q3 -14 -5 -45q-22 -33 -37 -63q1 -4 0 -13q-17 -25 -58 -72q-46 -41 -59 -41q-5 0 -5 7q0 14 24 62q11 23 -4 63q-13 14 -35 47q-14 17 -39 61q-5 11 -24 15.5t-16 14.5q1 8 29 30t31 26q11 22 38 64 q16 9 44 30q3 3 8 16t10 13q16 0 36 -29zM37 889q8 10 41 67q19 21 48 67q2 4 5 27q0 17 8 15q23 -1 71 -49q19 -27 58 -80q18 -1 39 -15q8 -27 -9 -63q-8 -20 -51 -58q-13 -7 -37 -27q-13 -16 -24 -58q-3 -13 -6 -25q-4 -15 -14 -15q-11 0 -31 15q-9 7 -14.5 28t-9.5 28 q-9 5 -26 20t-57 49q-8 5 -18 10.5t-10 16.5q0 16 13 26q24 20 24 21z" />
<glyph unicode="&#x3c;" horiz-adv-x="768" d="M641 1306l30 -54q7 -5 14 -9q14 -7 10 -16q-3 -12 -45.5 -17t-52 -16t-11.5 -27t-7 -24t-48 -58q-14 -11 -38 -37q-4 -22 -21 -59q-10 -13 -38 -33t-38.5 -35t-21 -47.5t-19.5 -45.5q-20 -17 -60 -55q-34 -31 -47.5 -52t-27.5 -60q-3 -27 20 -56q17 -8 47 -28 q1 -10 8 -26q20 -14 60 -47q29 -47 101 -130q6 -6 27 -5.5t22.5 -7t3.5 -22.5q18 -34 34 -46q15 -2 44 -12q4 -4 22 -31q15 -23 30 -23q6 0 16 2.5t14 2.5q19 0 19 -19q0 -4 -6.5 -14t-8.5 -19q-11 -10 -25 -24q-6 -7 -6.5 -20.5t-3.5 -20.5q-12 -16 -14 -24q-9 -30 -19 -58 q-15 -47 -27 -47q-17 0 -30.5 20t-29 61t-25.5 57q-11 11 -33 34q-11 12 -31 39q-27 32 -54 59q-11 10 -33 28q-12 11 -34 36q-15 11 -42 37q-9 22 -30 49q-9 -1 -25 3t-29 20q-23 24 -115 139q-17 22 -44 46q0 1 -11.5 7.5t-11.5 9.5q0 7 28 44q36 41 43 52q21 40 68 114 q10 3 29 14q12 12 34 50q11 28 38 81q6 7 26 14t25 14q10 16 21.5 51.5t19.5 49.5q19 16 50 47q7 7 27 28.5t54 68.5q4 24 17 68q4 4 13 15q0 10 8 32q5 7 19 45q10 27 18 27q23 -1 103 -140z" />
<glyph unicode="=" horiz-adv-x="905" d="M831 884q-7 -35 -20 -98q2 -25 -4 -71q-7 -26 -21 -26q-32 -1 -83 6q-59 10 -82 11q-9 -6 -27 -10q-13 7 -40 13q-13 -4 -41 -7q-10 0 -30 6.5t-33 6.5q-15 0 -50.5 -9.5t-54.5 -9.5q-7 0 -21 9.5t-23 9.5q-20 0 -54 -6q-40 -7 -54 -7q-5 -2 -15 0.5t-15 3.5q-44 1 -62 0 q-12 -1 -36 -11t-38 -10q-23 0 -23 15q0 7 6.5 25t5.5 25q-5 31 -9 97q-3 17 -4 32q-3 20 8 22q22 4 47 4q26 0 76.5 -6.5t72.5 -7.5q134 -2 400 -7q2 0 6.5 -5t7.5 -5q5 5 23 14q44 8 88 8q32 0 93 -8q6 0 6 -4zM185.5 631.5q16.5 -6.5 27.5 -6.5q3 0 8.5 7t8.5 7 q17 0 52.5 -6.5t54.5 -6.5q5 0 15 6.5t16 6.5q94 7 178 4q7 0 23 -6t25 -6q4 0 11 6t12 6t17 -6t18 -6q13 0 38 8.5t37 8.5q54 0 49 0q27 -2 36 -16t9 -33q0 -12 -7 -40t-7 -41q0 -5 7 -38q6 -24 -1.5 -36t-43.5 -8q-33 9 -100 20q-16 1 -44 0q-33 -4 -44 -4q-99 0 -169 4 q-9 1 -31.5 5t-35.5 4q-21 0 -63.5 -4.5t-64.5 -4.5q-4 0 -12 5t-12 4q-3 -6 -13 -13q-106 -23 -146 -22q-20 0 -23 26q-8 60 -4 151q2 27 2 28q2 16 11 17q16 3 30 3q21 0 55 -6q48 -8 56 -9.5t24.5 -8z" />
<glyph unicode="&#x3e;" horiz-adv-x="725" d="M99 1405q-11 -17 -28 -47q-3 -14 -14 -40q-16 -8 -40 -32q-17 -37 -7 -60q4 -9 47 -27q14 0 40 -9q17 -12 56 -62q13 -21 39 -61q13 -13 40 -39q8 -7 24 -24q4 -15 18 -44q33 -49 90 -96q8 -6 27 -23q28 -26 49 -55q12 -13 30 -42q12 -35 4 -51q-5 -8 -23.5 -16 t-24.5 -14q-10 -22 -35 -64q-15 -4 -39 -21q-7 -20 -30 -55q-2 -5 -13.5 -2.5t-15.5 -2.5q-6 -11 -21 -32t-43 -56q-12 -15 -34 -42q-10 -23 -34 -60q-13 -16 -37 -35q-8 -3 -25 -13q-29 -21 -45 -43q0 -7 -4 -17q-5 -3 -22 -8.5t-18 -15.5t30 -57q21 -32 84 -89 q2 -2 10 -12t11 -10q11 0 17 26q3 18 5.5 36.5t14.5 57.5q4 10 24 25q18 9 50 36q11 24 37 71q18 20 56 64q9 17 32 51q10 8 32 25q22 25 50 60q9 16 27 43q19 14 54 47q13 17 40 51q13 8 31 30q38 71 37 98q-1 15 -17 28t-29.5 25t-37.5 35q-17 21 -51 59q-16 13 -40 43 q-14 27 -47 77q-27 20 -75 64q-6 8 -10.5 30t-9.5 29q-14 9 -37 32q-8 15 -32 46q-10 5 -32 17q-37 27 -81 110q-11 18 -29 68q0 3 -2 17q0 10 -4 9q-7 -2 -11 -13q-6 -19 -8 -20z" />
<glyph unicode="?" horiz-adv-x="690" d="M428 1422q7 -3 98 -48q7 -5 21 -13q27 -19 51 -36q30 -20 39 -47q10 -34 4 -111.5t4 -112.5l9 -13.5t4 -14.5q-7 -12 -25 -23q-26 -16 -32 -20q-17 -20 -54 -54q-12 -7 -39 -23q-44 -28 -66.5 -47.5t-30.5 -36.5q-7 -24 -24 -66q-2 -3 -14 -19q-10 -10 -7 -17 q5 -14 27 -28q25 -20 31 -26q10 -15 35 -47q6 -7 37 -22q24 -12 26 -27q1 -18 -18 -32t-36 -27q-12 -11 -27 -18q-6 -2 -29 -20q-18 -13 -29 -10q-15 4 -29 28q-23 37 -24 39q-14 21 -44 61q-23 14 -61 50q-24 22 -24 24q-13 15 -13 30t11.5 35.5t21.5 37.5q22 42 61 125 q1 26 17 70q8 11 31 20q30 10 36 13q21 11 62 38q37 38 43 46q20 28 20 58q0 40 -27 89q-12 19 -59 39q-31 14 -48 8q-7 -1 -16.5 -14t-14.5 -16q-26 -3 -67 -22q-20 -22 -44 -103q-3 -32 -19 -93q-15 -42 -34 -43q-11 -3 -21 14q-11 21 -16 24q-17 13 -54 40q-18 14 -38 27 q-24 19 -27 37q-3 13 14 26q29 19 30 22q14 16 37 49q3 25 17 72q7 11 46 34q46 26 140 75q14 16 50 32q13 3 34 -3q31 -9 37 -10q6 1 17 0zM405 359q3 0 17.5 -20.5t45.5 -63.5q14 -12 40 -44q27 -44 27 -62q0 -7 -14.5 -14t-18.5 -12q-3 -17 -17 -45q-19 -14 -54 -50 q-3 -20 -20 -57q-27 -27 -50 -17q-11 5 -21 22t-20 31q-4 8 -13 21q-17 23 -48 73q-30 62 -26 93q0 9 16 17q21 10 24 13q14 17 26 40q3 4 15 47q9 27 26 38q7 4 17 4t48 -14z" />
<glyph unicode="@" horiz-adv-x="1157" d="M666 290q-4 -20 0 -27q6 -20 19 -54q-2 -6 4 -26q1 -4 1 -7q0 -8 -11 -24t-11 -23q0 -18 14 -18q3 0 8.5 5.5t14.5 4.5q47 -13 59 -9q44 16 76 4q19 -5 49 -1q3 0 7 4q3 5 0 7q-2 3 -29 16q-17 9 -19 18q-1 18 -11 30t-12 19t-15 45q-2 3 -9 7.5t-7 6.5t3.5 8.5t3.5 10.5 l-14 25q-6 10 -7 35q-2 21 -11 31q-20 15 -26 47q-7 41 -13 52q-4 7 -7 9l-4 -20q-10 -33 -40 -78q-10 -16 -20 -44q0 -3 -1 -10q-3 1 -7 1q-3 -15 8.5 -21t6.5 -24zM415 524q-6 -7 -12 -18v-29q-4 -5 -11 -18q3 -3 0 -10q-6 -6 -13 -19q-1 -15 -8 -42q-4 -7 -10 -23 q1 -3 1 -7q-3 -7 -21 -33q-16 -21 -12.5 -33t-4.5 -28q-11 -23 -11 -25q-13 -42 8 -93l-8 -31q-10 3 -29 6q-69 -7 -142 -6q-11 -1 -24 -1q-13 1 -10 17q11 8 31 35q2 3 33 50q21 31 19.5 54.5t15.5 53.5q25 38 28.5 51t8.5 36q6 0 10 22q3 14 6 29q4 7 11 21q0 11 5 33 q2 -2 5 0q0 4 2 10q7 29 14 46q24 49 30 84q-2 6 0 17q4 3 14 12q0 1 8 39q29 40 29 107q0 17 12 36t21 36q8 45 36 121q16 24 13 41q5 10 7 46q-1 28 29 42q7 6 13 -21q5 -31 8 -34q10 -14 31 -50q3 -20 9 -52q3 -19 21 -60q14 -21 16.5 -26t4.5 -26q9 -30 26 -101 q6 -13 19 -40q14 -37 -3 -63q-30 -44 -40 -79q1 -6 -2 -16q-5 -1 -14 -8l-7 -14q-4 1 -10 12q-1 6 -18 42q-13 25 -13 41q0 7 3 14q1 4 -5.5 7t-6.5 7q-2 26 -24 71q-3 7 -5 7q-7 0 -16 -28q-13 -41 -16 -44q-14 -54 -42 -117q-14 -8 -10 -51zM368 321q0 13 8.5 24.5 t9.5 16.5q-2 7 -2 19q2 3 8 11q19 31 30 82q-1 12 0 16q0 3 6 1q12 -18 26.5 -36.5t16 -40t8.5 -28.5q1 -1 10 -17q5 -11 10 -7q28 29 38 77q10 8 26 30q2 7 7 15q4 -2 17 32q5 18 12 39q3 2 6 5q3 8 10 21t23 38q1 7 4 22q3 2 6 8.5t7 18.5q10 8 21 27q4 10 13 29 q4 12 21 30q3 5 3 17t9 22q21 20 22 42q-1 7 -6 25t-5 24q0 21 20 21q3 0 14 -8.5t27 -8.5q9 0 20 3q20 4 30 -5q6 -5 45 -5q34 0 32 -6q-12 -37 -64 -95q-16 -19 -26 -43q-16 -32 -27 -51q-7 -6 -11 -41q-2 -13 -21 -33t-22 -31q-6 6 -17 -24q-6 -21 -11 -40q-2 -1 -16 -33 q-10 -11 -26 -35q0 -7 -4 -23q-1 -3 -4 -9l-9 -18q-7 -6 -21 -34q-11 -20 -30 -62q-1 -8 -5 -19q-19 -24 -17 -31q-17 -31 -42 -104q-1 -8 -13 -21.5t-12 -26.5q-2 -24 -30 -17q-14 4 -20.5 23t-16.5 25.5t-13 23.5q-5 27 -7 31q-11 15 -28 54q-2 15 -19.5 39.5t-20.5 40.5z M582 1303q26 -5 69 -2q52 5 68 5l121 -3q8 0 55 8q34 6 54 4q8 -2 14.5 -12t11.5 -10q2 0 14.5 8.5t23.5 9.5q25 -3 52 -5q22 -8 19 -40q-7 -27 -16 -84q9 -6 9 -26t-3 -58t-3 -57q0 -10 3 -25.5t3 -21.5q1 -29 -14 -103q-5 -19 0 -49q5 -37 5 -48q-4 -38 -11 -116 q1 -10 7 -26t7 -23q2 -14 -1 -38q-2 -27 -2 -37q0 -3 5 -57q2 -34 -5 -55q-11 -34 -11 -40q0 -10 12 -40t4 -52q-15 -34 -15 -70q0 -21 10 -50.5t10 -43.5q0 6 -18 -89v-57q0 -40 -13 -53q-10 -7 -26 -7q-12 0 -40.5 7t-42.5 6q-29 -1 -79 4q-55 7 -78 7q-15 0 -32 -1 q-5 -1 -47 -10q-33 -6 -51 -6q-22 0 -37 6q-34 14 -36 14q-10 0 -30 -11q-34 -19 -85 -19q-25 0 -41 8q-24 9 -51 -3q-9 -5 -16 -5q-8 0 -18 11t-20 11q-12 0 -31.5 -5t-28.5 -7q-55 -1 -169 -21q-62 -16 -72 -16q-16 5 -16 40q0 39 10 73q-6 37 -6 35q0 20 23 20 q33 0 114 -4q74 -4 113 -3l35 3.5t38 2.5q28 -2 94 -9q58 -7 90 -7q6 0 16 6.5t14 7.5q13 3 36 0q25 -3 32 -3q20 -1 58.5 2t54.5 3q15 0 78 -6q48 -4 77 0q24 0 46 -1q29 1 29 25q-4 16 -7 50q7 20 4 60q-4 8 -4 19q0 13 10.5 43.5t7.5 47.5q-8 24 -18 77q0 20 8 50 q12 38 14 45q5 27 2 64q-3 43 -17 56q-6 8 -7 15q0 20 8 178q6 81 6 82q-7 47 4 63q4 5 -5.5 18.5t-9.5 30.5q0 12 7 36.5t7 37.5l-2 105q0 13 -105 15q-35 1 -102 -5q-71 -4 -101 -4q-26 0 -75 2t-73 2q-8 0 -37 -3q-24 -2 -37 -1q-14 4 -44 9q-18 1 -59 -3q-47 -7 -51 -10 q-10 -6 -16 -50q-10 -85 -3 -119q20 -78 10 -124q14 -4 13 -44q0 -45 4 -54.5t2 -29.5q12 -10 11 -15q18 -27 18 -43q0 -14 -10 -37q-4 -8 -12 -25q0 -8 -2 -23q-1 -4 -3 -10.5t-7 -19.5q-7 -7 -20 -37q-1 -16 -5 -16l-16 36q-11 28 -11 43q1 5 0 8q-10 -4 -15 4.5t-8 16.5 q-23 17 -34 64q-43 9 -43 33q-1 13 8 22t9 16t-7 23q-3 7 0 20q6 17 6 20q1 17 -4.5 47t-5.5 42q0 23 10 40q16 27 16 38q0 6 -15 42q-4 12 -3 28q2 19 0 27q-8 48 -2 65q5 17 5 39q0 13 -3.5 44t-1.5 47q1 15 35 18q26 2 46 -3q7 -4 21 -7q139 -8 239 10q18 4 100 -8z" />
<glyph unicode="A" horiz-adv-x="1122" d="M990 -71q-6 -1 -16.5 1.5t-13.5 2.5q-4 0 -13 -2t-15 -2q-9 8 -30 18q-3 2 -4.5 -6t-3.5 -8q-10 0 -26.5 7t-23.5 7q-6 2 -24.5 -2.5t-23.5 -4.5q-18 0 -18 30q0 14 9.5 50.5t8.5 54.5q-8 19 -22 58q-4 37 -31 106q-21 35 -53 27q-15 -5 -34 -29q-24 -27 -32 -34 q-22 -8 -61 -31q-12 -12 -35 -34q-17 -16 -18 -16q-10 7 -20.5 25.5t-19.5 24.5q-28 14 -84 44q-17 16 -54 44q-12 8 -19 0q0 -11 -5 -34q-1 -3 -7.5 -7.5t-6.5 -6.5q0 -5 8 -11t6 -11q-5 -15 -28 -44.5t-26 -47.5q-4 -26 9 -71q14 -50 14 -70q0 -29 -23 -32q-21 -2 -55 5 q-43 12 -56 15q-18 1 -75 2q-7 2 -26 -4t-26 -6q-12 0 -13 10q-3 25 17 54q18 27 35 52q17 9 42 35q2 6 -5 18t-5 16q15 26 35 77q4 8 13 27q3 14 18 44q6 7 7 26t2 26q17 36 44 111q-1 24 3 74q13 13 28 40q7 33 26 96q4 -1 8 0q3 35 15 99q4 9 21 25t21 27q13 23 37 119 q3 23 13 70q6 21 25 55.5t23 49.5q4 13 21 102l15 66q10 31 25 61q9 23 37 54q13 8 26 -17q-4 -10 -4 -27q11 -14 31 -43q-4 -7 -6 -20q9 -20 23 -61q3 -20 13 -57q12 -22 37 -66q1 -16 7 -43q11 -33 31 -94q0 -20 8 -57q19 -28 49 -88q8 -32 27 -96q11 -40 30 -94 q8 -18 24 -55q3 -22 12 -59q8 -31 18 -65q4 -23 17 -61q7 -13 22 -37q32 -63 80 -209q6 -24 21 -74q3 -8 33 -61q7 -8 15 -17q13 -14 13 -21q0 -13 -25 -17q-17 -2 -36 -3zM700 344q3 1 0 14q-5 27 -22 80q-3 4 -16 6t-16 6q-4 10 -2 26l2 27v17q-14 14 -35 50 q-12 49 -40 147q-8 17 -21 50q-2 2 -9 43q-4 24 -17 31q-13 6 -19 -12.5t-12 -34.5q0 -18 -6 -52q-5 -5 -17 -15q2 -7 0 -18q-17 -47 -48 -139q-10 -29 -26 -80q-1 -23 -10 -67q-2 -7 -18 -31q-11 -17 -7 -31q1 -4 8 -4q5 0 46 19q28 17 91 53q4 3 13 14.5t17 11.5 q5 0 9.5 -11.5t8.5 -14.5q16 -11 51 -36q20 -17 63 -49q14 -9 32 0z" />
<glyph unicode="B" horiz-adv-x="799" d="M730 288q0 -10 -18 -12q-26 -5 -32 -8q-7 -9 -25 -28q-30 -24 -90 -75q-21 -20 -66 -58q-3 1 -9 0q-16 -15 -45 -50q-6 -24 -26 -70q-52 -82 -62 -75q-29 18 -44 52q-2 25 -13 73q-14 13 -37 44q-17 40 -10 55q24 6 69 29q20 17 49 44q3 5 8 14q20 10 53 36 q15 15 31.5 32t18.5 34q0 14 -16 29q-27 22 -28 25q-16 23 -50 67q-16 7 -43 26q-24 29 -71 85q-8 4 -30 21q3 -20 2 -35q-7 -17 -17 -53v-44q1 -60 4 -178q1 -7 3.5 -31t0.5 -37q0 -4 -4 -14.5t-4 -16.5q0 -9 2.5 -31.5t2.5 -35.5q0 -7 -3.5 -24.5t-1.5 -27.5 q1 -6 10.5 -10.5t10.5 -8.5q3 -18 9 -58q1 -6 14 -24.5t13 -23.5q0 -13 -33 -13q-13 0 -39 4t-34 4q-41 0 -116 13q-6 2 -37 0q-24 -1 -26 12q-1 9 24 37.5t26 35.5q6 30 4 79v76l5 128q-5 19 -9 51q-1 10 1.5 30.5t2.5 26.5q5 97 5 119q-2 13 0 49q8 66 22 186q2 30 2 55 q0 41 -9 105q-10 73 -11 118q-1 22 0 44q1 44 8 134v52q3 39 29 39q13 0 33 -22q28 -31 32 -34q40 -32 121 -88q33 -14 97 -41q41 -20 105 -65q74 -51 103 -68q20 -5 60 -23q13 -16 43 -43q15 2 31 -8q1 -36 -26 -83q-5 -5 -17 -11q-15 -6 -20 -10q-8 -13 -31 -40 q-4 -4 -89 -75q-30 -24 -74 -88q17 -37 30 -48q21 -18 41 -35q6 -11 21 -32q23 -22 67 -58l50 -50q15 -24 34 -47q18 -27 18 -53zM469 868q-3 7 -19 8q-18 3 -22 5q-17 13 -53 37q-21 8 -62 30q-9 5 -29 36q-18 25 -30 25q-24 0 -24 -49q0 -11 4.5 -38.5t2.5 -40.5 q-3 -83 0 -107q7 -61 13 -111q45 26 61 52q20 34 28 40t27 5.5t27 4.5t10.5 22t7.5 23q15 4 39 17q24 24 19 41z" />
<glyph unicode="C" horiz-adv-x="895" d="M671 1330q0 -17 8 -49q4 -7 20.5 -12t23 -12t37.5 -59q20 -29 38 -59q25 -32 19 -44q-3 -7 -12 -7q-5 0 -25 6t-31 4q-13 -1 -56 -17q-13 -4 -27 -20q-18 -18 -25 -24q-33 -11 -91 -40q-13 -17 -36 -42q-17 -12 -44.5 -22t-43.5 -20q-20 -21 -67 -58q-22 -14 -69 -41 q-26 -13 -71 -40q-3 -1 -27 -8q-16 -5 -19 -13q-7 -24 0 -121q6 -13 13 -40q11 -59 9 -75q-10 -18 -26 -58q-7 -30 0 -58q10 -8 21 -26q2 -18 -8 -165q0 -3 -4 -20q-5 -14 0 -21q18 -34 54 -48q8 -5 22 1q22 7 27 9q23 -3 70 -5q11 0 34.5 6.5t36.5 6.5q7 0 20.5 -6.5 t20.5 -6.5q10 0 33 6.5t32 6.5q15 0 41 -6.5t40 -6.5q25 0 49 13q5 4 21 26q3 10 14 28q6 3 16 27q7 16 18 14q7 -1 6 -51q-3 -52 0 -169q1 -20 4 -57q2 -11 5 -24q1 -14 -5 -21q-10 -14 -15 -14q-2 0 -21 15t-49 23q-40 13 -99 16q-52 2 -101 5q-7 0 -54 7q-37 6 -56 6 q-59 -6 -177 -13q-17 0 -46.5 4.5t-43.5 4.5q-5 0 -15 -4.5t-15 -4.5q-25 0 -28 9q-6 18 -7 50q-1 46 -1 52q-9 83 -9 75q7 27 17 84q6 41 4 76q0 36 -7 136q-7 85 -5 136q0 10 8.5 30.5t8.5 30.5q0 9 -8.5 22.5t-8.5 19.5q-3 15 0 79q0 19 4 57q3 14 13 35q2 5 45 27 q26 13 71 40q30 24 90 68q54 26 159 84q20 17 61 54q49 30 126 93q14 19 51 98q2 17 15 41q14 4 27 -24z" />
<glyph unicode="D" horiz-adv-x="870" d="M115 1371q10 -12 31 -40q63 -77 120 -136q34 -36 61 -57q20 -9 52 -30q16 -26 49 -70q24 -19 71 -58q11 -20 39 -54q20 -8 57 -35q17 -27 54 -83q14 -22 53 -62q18 -4 51 -22q31 -21 41 -56q4 -15 4 -36t-8 -31q-24 -14 -71 -47q-16 -20 -48 -54q-13 -6 -36 -23 q-14 -21 -43 -65q-10 -13 -41 -50q-24 -30 -78 -86q-27 -15 -71 -49q-6 -15 -23 -45q-25 -27 -78 -83q-21 -27 -65 -79q-16 -7 -41 -27q-2 -14 -13 -39q-9 -9 -44 -80q-3 -6 -13 -8q-10 -1 -13 3q-7 14 -9 41t-8 40q-24 41 -24 91q0 9 1 12q5 7 -13.5 40t-14.5 63 q3 12 81 26q20 -3 57 5q11 8 23 26q18 26 22 30l66 72q18 22 56 66q15 14 39 44q7 20 27 52q20 14 58 40q21 19 30 37q16 27 31 57q16 34 17 61q2 16 -34 52q-4 3 -67 49q-11 5 -31 21q-11 17 -35 48q-19 23 -57 67q-12 17 -34 48q-7 8 -25 12q-15 3 -19 -3q-12 -14 -12 -37 q-1 -37 -1 -43q1 9 3 -39v-47q1 -14 4 -64q1 -40 0 -64q-4 -29 -13 -84v-97v-61q2 -5 8 -15t5 -16q-6 -54 -30 -98q-4 -7 -35 -21q-15 -4 -44 -17q-35 -29 -111 -76q-6 -4 -14 0q-9 3 -8 9q3 17 18 44t18 40q13 42 14 116q3 87 7 117q12 20 27 62q3 15 -4 49q-10 24 -23 73 q0 13 3 35q6 27 6 32q5 54 4 61q0 5 -3 14t-3 16q5 13 9 33q1 25 -2 55q-5 39 -5 54q-3 125 0 239q0 7 8 95q-3 20 6 50q11 8 34 -10z" />
<glyph unicode="E" horiz-adv-x="1111" d="M919 1287q2 -13 7 -34q16 -11 40 -38q7 -16 23 -46q3 -4 30 -28q21 -20 21 -32q0 -7 -11 -12q-12 3 -41 -5t-87 -31q-29 -11 -67 -35q-24 -17 -71 -49q-27 -10 -77 -31q-1 -8 -8 -21q-22 -31 -53 -43q-41 -15 -58 -28q-23 -14 -67 -41q-14 -9 -43 -27q-8 -12 -22 -32 q-12 -8 -27 -31q-7 -18 -5 -54q0 -20 -1 -40q1 -25 15.5 -31t31.5 -6q18 0 55 8t56 8q13 -1 40.5 -7t43.5 -6q44 0 69 13q13 7 30.5 27t27.5 26q23 15 40 8q12 -3 12 -33q0 -17 -3 -42q-3 -13 -4.5 -24.5t-4.5 -35.5q-3 -17 -3 -33q0 -2 6.5 -13.5t6.5 -13.5q-8 -56 -21 -92 q-3 -6 -7 -6q-3 0 -34 19q-19 11 -59 30q-56 22 -115 20q-12 0 -29.5 -13.5t-27.5 -15.5q-7 -1 -81 4q-1 0 -21 9q-11 4 -14 -4q-6 -22 -3 -60q4 -48 3 -60q0 -12 -6 -62q-4 -37 -3 -63q3 -42 21.5 -51.5t51.5 -7.5q55 3 52 3h53q6 -2 33 -5q20 -3 34 0q10 10 30 19 q15 0 45.5 -7t43.5 -7q64 -5 107 27q12 11 35 35q9 11 17.5 24t19.5 12q20 -3 30 -46q1 -6 -6 -15.5t-7 -14.5q4 -38 9 -111q-6 -7 -13 -22q-7 -32 -9 -73q-1 -5 4 -18.5t5 -18.5q0 -12 -14 -12q-13 0 -40 19q-10 16 -37 44q-17 12 -57 13q-30 2 -82 -3q-58 -5 -81 -5 q-7 0 -22 2t-22 2q-34 0 -108 -7q-68 -7 -107 -6q-8 4 -27 9q-30 0 -96 -2h-17q-12 -1 -16 -1q-16 0 -16 13q0 11 12.5 39.5t4.5 71.5q-5 41 -4 79q7 55 17 165q0 -3 -8 79q1 5 0 9q-73 10 -103 4q-10 -1 -26 -14.5t-25.5 -15t-28.5 -8t-29 -6.5q-9 0 -11 6q-16 31 -13 52 q10 12 21 36q2 6 -5.5 18t-7.5 17q0 12 4.5 33t4.5 30q0 3 -2 47q-1 27 9 42q1 6 7 6q4 0 13.5 -10t12.5 -11q18 -4 62 -16q10 -3 51 -23q30 -14 51 -12q23 0 27 39q3 26 0 84q-1 17 -2 51q-3 63 -2 69q-3 8 0 21q13 0 37 6q6 10 21 27q30 14 84 48q10 13 33 31q25 6 74 27 q11 7 26.5 27.5t23.5 26.5q14 14 53 31t51.5 33t41.5 48q17 12 71 34q20 2 52 17q12 13 19 37q8 33 14 43.5t12.5 25.5t17.5 15q16 0 24.5 -13.5t16.5 -27.5z" />
<glyph unicode="F" horiz-adv-x="1023" d="M950 1288q0 -18 -9.5 -59t-11.5 -57q-1 -33 4 -90q10 -89 -12 -88q-15 0 -27 16.5t-23 33.5q-3 20 -21 47q-27 16 -98 16q-12 0 -30.5 -7.5t-28.5 -8.5q-44 -1 -120 6q-10 5 -32 10q-20 -3 -61 -5q-8 0 -24.5 4.5t-23.5 4.5q-24 0 -27 -9q-3 -12 0 -108q0 -7 4 -35 q3 -21 2 -34q-9 -12 -20 -37q-2 -19 5 -51q5 -36 5 -51q0 -10 -5 -28.5t-5 -30.5q1 -25 14 -58q-7 -16 -10 -35q28 -3 53 -1t44 -2q4 0 21 -9q14 -5 23 -4q10 4 32 13q6 1 26 -2.5t24 -3.5q47 0 75 14q23 16 73 46q35 18 38 4q3 -17 -1 -46q-7 -31 -7 -44q0 -14 4 -27 q3 -8 0 -71q0 -5 -2 -20.5t-2 -23.5t7.5 -28t7.5 -28q0 -17 -14 -17q-7 0 -22 17t-23 19q-20 6 -59 19q-14 10 -44 23q-15 -7 -44 -15q-8 2 -24 12.5t-26 10.5q-12 0 -34 -5q-29 -9 -35 -10q-50 -10 -85 5q-2 -10 5 -42q9 -36 9 -37q-2 10 -10 -71q-3 -33 -4 -57 q-2 -100 0 -144q2 -52 14 -96q0 -5 15 -18.5t15 -20.5q0 -20 -33 -20q-10 0 -34 8t-40 8q-10 0 -27 7t-27 6q-4 -2 -8.5 -11.5t-9.5 -9.5q-86 -13 -91 1q-2 3 -2 6q0 10 17 27t20 25q17 41 22 71q2 16 -5 43q-8 33 -8 41q-9 58 -4 85q7 20 17 63q8 65 4 115q-46 0 -60 6.5 t-27 4.5q-6 0 -47 -25q-22 -13 -66 -13q-5 0 -14 -5t-12 -5q-1 0 -3 3q-3 10 1.5 38.5t4.5 35.5q-6 24 -13 72l9 53q1 4 0 37q0 20 9 35q6 7 32 0q25 -8 34 -27q5 -11 28.5 -19.5t38.5 -7.5q28 2 68 13q1 33 8 108q3 30 5 41q2 34 0 152q0 13 -6 48q-4 29 -3 46q0 3 8.5 6.5 t8.5 7.5q0 11 -8.5 34.5t-8.5 36.5q1 24 -18 65.5t-19 56.5q0 42 43 42q20 0 63 -9t52 -9q10 0 27.5 13.5t29.5 13.5q14 2 40 -8t39 -10q9 0 25 9t23 9q5 0 12 -7t11 -7q6 0 18 7t18 7q14 -2 44 -4q8 0 26 5t26 4q20 -10 59 -23q45 -4 108 10q46 8 42 8q4 0 36 5q22 3 22 -5 z" />
<glyph unicode="G" horiz-adv-x="905" d="M590 -60q14 2 40 -7.5t39 -9.5q9 0 19.5 6.5t18.5 7.5q3 0 12.5 -4.5t13.5 -4.5q26 0 33 11q10 15 -7 61q-7 14 -6 35q1 26 1 32q-4 30 -12 37.5t-9 41.5v44q-3 96 -4 84q10 23 21 73q2 14 -5.5 43.5t-7.5 45.5q7 0 17 9q10 15 20 33t10 31q0 22 -23 22q-9 0 -31.5 -8.5 t-30.5 -8.5q-10 0 -21 2q-16 2 -20 2q-74 6 -107 6q-8 0 -29 3t-30 3q-33 0 -33 -20q0 -10 34 -48q17 -9 50 -30q18 -20 21 -24q13 -13 14 -26q4 -30 -5 -79q-9 -59 -9 -79q0 -11 8.5 -37.5t8.5 -37.5q0 -35 -45 -35q-9 0 -31.5 2.5t-32.5 1.5q-36 -2 -46 0q-7 6 -18 14h-47 q-21 0 -63 -8.5t-62 -8.5q-19 0 -33 7q-20 14 -25 90q-2 18 5 50.5t7 48.5q-4 10 -8 30q7 11 13 35q1 35 -3 96q-4 69 -6 96q3 27 4 80q0 8 -8 34q-6 20 -4 33q1 8 14.5 20t17 17t13.5 17q16 -3 44 2q4 5 7 19t7 18q20 14 61 46q33 24 80 65q34 30 106 84q29 16 86 50 q15 17 52 49q16 10 83 20q59 7 79 29q3 2 3 7q0 7 -22 21t-26 20q-14 28 -50 81q-18 14 -47 51q-11 40 -28 40q-20 0 -29 -51q-1 -13 -21 -28t-26 -26q6 -10 6 -26q-4 -6 -18.5 -8t-18.5 -5q-27 -32 -92 -86q-31 -12 -90 -43q-8 -16 -27 -41q-11 -13 -35 -36 q-21 -8 -61 -26.5t-68 -44.5q-10 -14 -36 -41q-24 -8 -67 -34q-41 -37 -52 -67q-6 -14 -3 -42q4 -30 3 -43q-12 -20 -23 -61q0 -20 8.5 -57t8.5 -54q-7 -50 -13 -148q7 -34 19 -106q1 -16 -6 -48q-1 -9 -10 -33q-7 -19 -7 -30q0 -10 8.5 -23.5t8.5 -21.5q0 -10 -6.5 -29.5 t-6.5 -27.5q0 -84 -1 -53q1 -30 14 -47q34 -39 125 -39q23 0 68.5 4.5t70.5 4.5q16 -5 47 -14q14 0 37 5t36 5q11 0 33.5 -5t31.5 -5q28 6 85 0q6 -1 39 0z" />
<glyph unicode="H" horiz-adv-x="896" d="M111 1294q82 3 95 -1q23 10 51 14q6 -6 6 -13q0 -10 -8.5 -27.5t-10.5 -20.5q-5 -39 -15 -122q-3 -22 -9 -67q-1 -26 -5 -74q-5 -3 -9 -11q-6 -71 0 -111q0 -3 9 -37t9 -55q0 -3 -3.5 -9.5t-0.5 -9.5q7 -8 22 -4q28 14 88 38q11 2 32 6q17 8 53 23q24 7 75 21q29 6 56 11 q34 9 46 26q7 8 7 21q0 10 -5.5 35t-3.5 36q7 20 15 58q9 110 0 157q-4 2 -15 49q-2 7 -20.5 31.5t-18.5 34.5q0 13 29 11q41 -3 39 -3q33 6 57 -3q13 -5 29 -1q17 6 19.5 6t53.5 4q30 3 43 -7q4 -4 4 -12t-14 -29q-17 -25 -18 -29q-12 -20 -27 -61q1 -34 0 -102 q0 -17 -2.5 -36.5t-0.5 -40.5q0 -10 4 -34t4 -37q0 -4 -8.5 -34.5t-9.5 -52.5q-1 -25 5 -35.5t3 -40.5q2 -10 0 -41q0 -15 10 -111q2 -19 -5 -39.5t-7 -41.5q0 -24 7 -63q4 -21 4 -42q0 -20 -5.5 -62t-5.5 -72q-5 -21 -6 -43q-3 -24 4 -43.5t9 -58.5q0 -44 5 -64 q7 -34 30 -68q20 -31 20 -43q0 -19 -18 -19q-5 0 -13.5 1t-12.5 1q-6 0 -11 -1q-10 -6 -27 0q-22 4 -26 4q-1 0 -2.5 -2l-1.5 -2q-40 14 -43 14q-10 -1 -29.5 -10.5t-31.5 -9.5q-51 0 -54 17q-4 16 10 43q21 37 23 43q-3 4 -4 14q8 32 22 98v31q0 23 -3.5 60.5t-3.5 53.5 q0 44 17 79q5 9 2 34q-5 32 -3 36q4 34 4 60q0 22 -6.5 45.5t-6.5 39.5q-1 13 3 38.5t4 36.5q0 38 -15 38q-7 0 -23 -10q-20 -12 -23 -12q-7 -7 -22 -20q-23 0 -66 -7q-21 -16 -62 -40q-26 -4 -77 -14q-88 -22 -88 -27q0 -46 -13.5 -97t-13.5 -67q0 -17 11.5 -41t11.5 -42 q0 -13 -4.5 -39.5t-4.5 -37t-5.5 -29t-4.5 -29.5q7 -39 14 -115q0 -6 -2 -16.5t-2 -15.5q0 -14 13 -42.5t13 -41.5q0 -7 -2 -12.5t-31 -5.5q-34 1 -38 0q-6 -1 -16.5 3.5t-15.5 4.5q-14 2 -48 -8t-52 -6q-15 5 -29 7.5t-14 12.5q0 13 18 43t20 40q2 7 -1 21t-3 20q0 20 2 55 q1 40 2 56q0 86 5 257q0 10 4 35q4 23 4 37q-10 53 -24 161q0 11 7 31.5t9 29.5q4 58 0 101q-3 20 3.5 49t6.5 44t-6 42.5t-6 44.5q0 19 4.5 55t4.5 56q0 38 -12 71q-2 8 -22 38q-15 23 -15 39q0 24 20 24q7 0 25 -6.5t28 -6.5q41 -3 37 -3z" />
<glyph unicode="I" horiz-adv-x="458" d="M210 1288q17 0 24.5 6t14.5 7q18 -3 58 0q30 5 44 5q27 0 27 -16q0 -19 -18.5 -40t-37.5 -27q-8 -10 -9.5 -22t-10.5 -20.5t-21 -32.5q3 -34 5 -124q-5 -37 -12 -94q0 -1 7 -61q5 -37 5 -81q0 -17 -2.5 -50t-2.5 -50q0 9 -3 -25q-1 -12 8 -25q1 -4 0 -46q0 -35 -9 -110 q-3 -9 -3 -16q0 -14 7 -31t7 -22q3 -61 -2 -135q-6 -62 7 -118q14 -62 14 -86q0 -30 67 -100q12 -11 -9 -29q-21 -8 -25 7q-23 -7 -54 -13q-19 6 -54 10q-46 -2 -40 -3q-17 7 -58 16q-16 1 -84 -13q-41 -10 -41 10q0 8 11 21q18 10 43 27v17q18 31 45 97q3 18 4 71 q0 38 13 65q6 10 1 30q-2 13 -5 27q0 6 13 168q2 42 -5 82q-8 44 -8 61q0 -1 10 85q-6 24 -10 66q-2 17 -5 48q-4 16 0 101q2 5 -4.5 33t-6.5 43q0 12 6.5 37.5t6.5 38.5q0 18 -20 85q-10 14 -26 48q-5 22 -41 46q-31 23 -28 45q1 6 10 6q5 0 31 -6.5t37 -3.5q7 0 20 -3 t18 -3q15 0 32 10q5 2 31.5 -5.5t27.5 -7.5z" />
<glyph unicode="J" horiz-adv-x="627" d="M432 1296q6 0 18 9.5t19 8.5q24 0 50 -1q36 -3 36 -19q0 -8 -15 -25q-19 -20 -20 -25q-11 -27 -33 -83q-8 -10 -18 -33q-4 -41 4 -112q1 -12 11 -41q8 -26 8 -43q-2 -11 -6 -36t-4 -41q0 -33 2 -82q-5 -22 -11 -60q0 -8 11.5 -21t11.5 -20q3 -23 -2 -54l-7 -54 q-10 -111 -10 -108q0 -10 7.5 -30t7.5 -31q0 -17 -5 -40.5t-4 -42.5q0 -2 6.5 -18.5t6.5 -19.5q-2 -20 -6 -61q-18 -24 -41.5 -57.5t-31.5 -42.5t-38 -35q-22 -18 -65 -57q-9 -7 -74 -85q-8 -10 -14 -62q-3 -23 -13 -23q-3 0 -30 13q-18 21 -47 51q-2 3 -14 32 q-10 22 -37 27q-7 3 -18 19q-13 24 -43 65q-11 3 -23 16q-1 8 8 19t18 11q21 0 46.5 -6.5t38.5 -6.5q24 0 58 14q15 7 29 30q10 18 23 35q29 33 78 104q5 13 1 37q-6 31 -6 37q0 36 9 85q9 54 10 83q0 -9 -4 71q-2 14 7.5 41.5t10.5 39.5q-6 22 -6 68q5 21 -2 65 q-6 31 -10 66q-7 61 -6 83q1 7 7.5 21.5t6.5 21.5q-5 28 -13 88q0 17 3 36q5 24 6 34q1 18 -13 44q-17 34 -19 41.5t-18 40.5q-11 26 -11 40q0 15 10 15q7 0 25.5 -6t21.5 -6q101 -24 122 -24z" />
<glyph unicode="K" horiz-adv-x="1030" d="M321 1290q0 -7 -17 -28.5t-20 -31.5q-3 -18 -8 -52q-13 -26 -29 -76q0 -2 -4 -72q-1 -24 -9 -37t-7 -41q7 -7 17 -26q2 -7 2 -17q0 -13 -6.5 -39t-6.5 -40q4 -17 7 -52q-1 -12 -4 -38q-2 -7 0 -51q0 -47 3 -50q18 -17 27 -4q10 14 15.5 45.5t11.5 42.5q7 20 28 41 q17 17 21 46q3 21 26 48l24 24q10 24 34 77q7 16 61 148q10 24 32 75q15 40 12 45q-1 7 -18 16t-21 14q-23 40 -5 46q27 7 41 7q8 0 26.5 -6t46.5 -7q4 0 24 6.5t36 6.5q17 0 52 -13q14 -6 85 -3q30 2 30 -7l-11 -18q-2 -6 -19 -29q-10 -14 -38 -41q-10 3 -24 0 q1 -13 -4 -34q-7 -12 -29.5 -24t-31 -23t-32.5 -78q-1 -4 -7 -36q-3 -18 -20 -39q-5 -6 -16.5 -36.5t-31.5 -46.5q-33 -27 -33 -40q0 -2 2.5 -8.5t2.5 -11.5q0 -11 -9 -28q-16 -14 -40 -44q-4 -21 -17 -58q-21 -43 -52 -101q-10 -13 -13 -27q-14 -44 -10 -54q4 -13 40 -48 q27 -20 74 -63q2 -11 14 -31q25 -19 71 -57q15 -27 54 -77q18 -4 48 -22q13 -10 26.5 -37t23.5 -39q24 -25 65 -48q10 -4 40 -31q20 -14 68 -60q16 -11 37 -43q1 -18 -28 -18q-23 -1 -63 4q-44 9 -62 10q-20 -3 -61 -4q-6 0 -21 5.5t-25 2.5q-38 -12 -50 -12t-12 15v7v9 q0 28 -13 57q-4 8 -54 58q-17 26 -58 75q-30 19 -83 67q-7 7 -10.5 28.5t-10.5 29t-27.5 14t-26.5 9.5q-13 11 -41 30q-26 14 -30 14q-9 0 -9 -20q0 -13 5 -42q2 -42 -20 -76q-14 -24 -13 -81q-9 -22 -17 -52q1 -9 15.5 -11t14.5 -12q1 -14 14 -27q13 -6 35 -21 q13 -12 28.5 -23t15.5 -20q0 -3 -4 -6q-23 -15 -62 -18h-70q-16 3 -44 4q-16 0 -62 -5q-40 -6 -63 -5q-40 5 -41 20q-3 31 42 44q23 6 26 33q1 20 3 43q3 5 4 42q4 88 4 152q0 10 -3.5 30.5t-3.5 29.5q0 11 7 29.5t7 29.5q0 12 -7.5 28.5t-7.5 27.5q0 27 -2 62q2 40 13 87 q12 41 10 87q-11 20 -21 42v135q0 14 -5 43.5t-5 43.5q0 26 10 47q8 8 8 20q0 7 -6 27.5t-6 33.5q0 20 5 44q2 15 -1 44q-4 44 -7 54q-6 23 -24 33q-42 21 -42 44q0 12 23 12q13 0 36.5 -5.5t31.5 -5.5q12 0 31 3.5t30 3.5q25 0 50 -13q12 -3 23 -3q13 0 37 6t34 6 q24 0 24 -10z" />
<glyph unicode="L" horiz-adv-x="907" d="M239 1281q8 0 27.5 5t27.5 5q20 0 20 -14q0 -8 -17 -40q-14 -11 -37 -39q-18 -35 -26 -76q3 -18 5 -54q-7 -18 -15 -58q0 -11 5 -35.5t5 -35.5q0 -7 -5.5 -23.5t-4.5 -24.5q10 -19 23 -59q2 -15 -3 -42q-5 -33 -5 -41q-2 -37 0 -67q0 -7 5 -27t3 -30q-11 -11 -23 -37 q0 -11 7.5 -31.5t7.5 -30.5q0 -3 -7.5 -4.5t-7.5 -4.5q-2 -35 6 -88q0 -3 4.5 -3.5t4.5 -2.5q-2 -7 -9 -21t-6 -23q12 -65 36 -93q11 -12 33 -17t44 -9q44 -16 101 -28q44 -6 129 -26q31 -17 98 -46q31 -7 71 5q11 11 40 32q37 19 39 19q8 0 10 -6q9 -17 6 -51 q-1 -27 -4 -54q-17 -31 -36 -74q-1 -10 -1 -18q0 -14 3 -29t3 -21q0 -17 -16 -38q-3 -5 -9 -5q-8 0 -25 15q-21 19 -27 22q-40 19 -121 54q-8 -4 -27 -5q-6 10 -23 25q-17 10 -62 23q-6 1 -53 6q-31 5 -57 21v6q-19 17 -36 17q-8 0 -23 -5q-12 -2 -20 0q-36 6 -104 27 q-11 12 -38 30q-6 3 -63 7q-47 3 -55 23q-4 7 -4 16q0 14 12 46.5t9 46.5q-11 93 -11 77q0 20 8 39q16 31 17 68q0 32 2 64q1 28 -10 72q0 4 -6.5 10.5t-6.5 12.5q0 5 6.5 18t6.5 22v159q1 14 3 55q2 36 1 56q0 12 -3.5 37t-3.5 38q0 14 6 54q5 34 1 54q-1 14 -14 34 q-17 25 -22 33q-15 35 -21 56q-7 30 0 33q11 4 36 1q27 -2 35.5 -1.5t34.5 -3.5t32 -4q28 2 94 2z" />
<glyph unicode="M" horiz-adv-x="1249" d="M1102 1284q5 -1 32 4q18 3 27 -4q17 -17 -10 -45q-6 -6 -23 -7.5t-23 -6.5q-35 -32 -42 -63q-5 -13 4 -31q8 -23 10 -31q3 -42 0 -110q-2 -15 -6 -53.5t-4 -58.5q0 -9 5 -30t5 -33q-12 -14 -24 -49q-2 -13 6 -38.5t8 -37.5q-4 0 -10 -4q7 -20 16 -58q-3 -36 -6 -104 q0 -17 5 -54t5 -58q-7 -16 -14 -50q1 16 4 -102q-2 -23 0 -64q7 -45 38 -162q3 -8 26.5 -24t23.5 -26q0 -27 -63 -27q-21 0 -67 5t-60 5q-12 0 -38 -5t-38 -5q-39 0 -39 26q0 3 19 36.5t16 77.5q0 11 9 95q0 3 7 32q4 23 1 36q-1 8 -14 26.5t-13 31.5q0 14 13 40.5t14 39.5 q3 31 -4 126q-6 30 -13 90q0 5 4.5 16t4.5 15q1 7 0 54q0 16 -3 95q-3 55 -2 92q2 9 8.5 27.5t4.5 26.5q-6 47 -27 46q-13 0 -23 -20q-12 -26 -17 -30q-12 -7 -35 -27q-17 -28 -58 -81q-6 -4 -21.5 -5.5t-23 -8t-13.5 -26t-13 -27.5q-12 -1 -30 -8q-7 -3 -22 -29 q-10 -17 -20 -12q-18 10 -36 44q-19 41 -29 51q-21 10 -58 35q-23 26 -67 73q-24 21 -77 52q-7 3 -12 -17q-15 -48 -13 -66q10 -39 21 -114q3 -27 -1 -75q-3 -57 -3 -77q0 -21 6 -84q7 -51 2 -82q-7 -14 -17 -44q0 -3 3.5 -5t5.5 -5q11 -111 8 -179q-5 -9 -12 -27 q4 -20 8 -59q0 -1 -6.5 -1t-6.5 -3q10 -68 32 -118q10 -5 27 -22q8 -13 8 -22q0 -18 -35 -18q-17 0 -55.5 5t-51.5 3h-41q-38 -1 -115 5q-6 1 -9 8q-4 7 0 10q10 11 33 34q11 7 28 29q9 17 15.5 34.5t13.5 51.5q0 -3 -4 81q-5 74 0 148q-6 53 -10 162q8 34 18 104 q0 10 -6.5 27.5t-6.5 26.5q3 7 5 21q-2 6 -11 15t-8 18q0 12 10.5 39t12.5 40q0 6 -9.5 11.5t-9.5 11.5q0 7 11 22t12 22q4 47 -4 99q-14 22 -29 69q0 9 13.5 27.5t11.5 30.5q-13 49 -59 94q-13 11 -43.5 21t-41.5 20q-17 14 -13 40q2 7 22 5q12 -1 42 -13q27 -7 43 -7 q14 0 42.5 10t41.5 10q8 0 22.5 -10t22.5 -10q7 0 22 9.5t24 10.5q4 0 14 -5.5t15 -5.5q6 0 18 7t16 7q5 0 6 -3q13 -15 19 -44q8 -38 12 -47q13 -27 40 -59q14 -10 41 -34q2 -10 9 -25q24 -11 67 -45q5 -6 8.5 -26.5t12.5 -26.5q33 -21 77 -10q12 5 51 46q15 20 45 58 l17 17q23 27 69 78q19 9 48 36q6 13 8.5 41t5.5 41q3 7 13 9h129h65q3 -5 10 -9z" />
<glyph unicode="N" horiz-adv-x="1006" d="M249 1298q5 0 29 5q17 3 25 -5q12 -15 22 -49q13 -43 17 -53q15 -30 32 -50q12 -14 69 -62q13 -6 33 -21q6 -19 25 -50q20 -6 54 -26q3 -11 13 -31q2 -3 53 -50q11 -12 24 -26.5t26 -15.5q29 -5 39 30q5 11 -8 75q-9 23 -19 68q6 43 9 134q-6 14 -17 42q-2 6 -14 29 q-12 18 -12 27q0 22 33 22q8 0 32.5 -4t37.5 -3q51 4 62 1.5t44 2.5q40 9 47 9q16 0 16 -18q0 -22 -22 -64q-27 -49 -28 -59q-2 -4 -6 -11t-4 -11q6 -57 14 -169q2 -30 0 -97q0 -17 -2 -52.5t-2 -55.5q0 -57 4 -230q3 -131 6 -117q-7 -34 -14 -101q-2 -18 0 -62 q0 -67 8 -197q11 -18 27 -54q2 -5 17.5 -20t15.5 -20t-6 -6q-67 -21 -106 3q-13 6 -25 6t-28 -8q-21 -8 -26 -8q-45 -10 -95 3q-8 3 -8 7t5.5 15.5t6.5 18.5q2 14 21 29t22 25q6 10 -2 31.5t-6 31.5q1 7 14 18t13 18q1 9 -11 24t-12 25q-2 31 3 84q7 65 7 83q-3 16 -6 42 q3 5 9.5 21t4.5 23q-8 38 -27 116q2 27 -8 75q-6 10 -22 20q-24 13 -27 17q-12 9 -35 30q-9 19 -31 53q-7 7 -50 37q-20 8 -57 34q-1 13 -10 37q-21 12 -61 42q-7 17 -27 46q-23 20 -33 20q-4 0 -7 -3q-10 -13 -10 -36q0 -18 2 -39q3 -69 4 -205q0 -10 -5 -35.5t-3 -38.5 q5 -10 12 -28q-2 -40 -4 -120q2 -48 6 -180q4 -114 3 -180q0 -6 -8 -19.5t-5 -20.5q3 -12 22 -29t22 -27.5t17 -27.5t14 -23q0 -11 -57 -11q-21 0 -76 4q-49 4 -67 3q-7 -2 -22 -10.5t-24 -5.5q-15 5 -32 8.5t-17 14.5q0 16 21 48q23 37 26 47q19 63 22 98q5 57 -5 124 q-2 7 -9.5 22t-7.5 23q0 19 7 50q8 36 10 47q5 34 5 72q0 17 -3 46q-2 38 -2 47q0 42 -5 125q-1 3 -9.5 5.5t-8.5 6.5q1 8 11 15t12 12q2 23 -3 60q-6 46 -6 60q4 25 4 77q-1 4 -11.5 7.5t-10.5 9.5q1 19 16 57t16 59q0 16 -10 34.5t-18 35.5q-3 11 -13 28q-4 6 -35 30 q-2 1 -42 28q-27 17 -34 34q-4 13 5 20t24 6q93 -6 159 6q14 1 57 -5z" />
<glyph unicode="O" horiz-adv-x="838" d="M432 1451q26 -12 39 -49q3 -13 1.5 -40t2.5 -38q8 -20 32 -46q27 -30 33 -43q11 -29 34 -82q26 -34 69 -111q6 -26 24 -77q18 -24 49 -76q10 -31 30 -94q20 -38 59 -115q15 -31 14 -34q-6 -19 -32 -44.5t-31 -38.5q-20 -36 -44 -109q0 -13 -4 -35q-26 -15 -60 -53 q-7 -22 -12.5 -63t-13.5 -60q-9 -3 -22 -10q-29 -27 -48 -83q-27 -79 -31 -89q-17 -13 -41 -45q-2 -8 7.5 -22t6.5 -22q-5 -12 -25.5 -26.5t-26.5 -23t-13 -52.5q-5 -31 -23 -30q-18 0 -22 33q-7 49 -9.5 54.5t-49.5 79.5q-12 14 -30 43q-8 28 -30 79q-7 2 -19 10 q1 14 -26 78q-3 19 -15 51q-14 13 -38 48q-11 43 -43 124q-22 23 -60 74q-53 80 -61 118q-3 11 1 24q10 26 11 33q4 16 16 36q21 26 25 32q14 33 41 94q10 11 23 33q7 37 32 109q17 18 46 59q11 28 33 82q19 48 60 138q7 15 24 42q10 22 33 74q10 18 36 52q26 21 48 11z M444 1007q-15 18 -60 42q-1 1 -5 -17t-21 -58q-22 -24 -61 -74q0 -15 -37 -74v-9q-12 -23 -32 -68q-19 -28 -36 -70q0 -23 12 -50q18 -31 20 -49q4 -38 36 -88q19 -18 52 -59q13 -42 46 -123q19 -16 42 -62q1 -5 4 -5q1 0 12 38q8 23 32 63q7 1 16 9q-3 16 0 41q5 12 26 19 t27 25q-4 10 -6 31q10 33 37 84q21 28 54 86q14 42 6 79q-16 4 -38 17q0 22 -10 63q-20 35 -69 124q-14 30 -47 85z" />
<glyph unicode="P" horiz-adv-x="876" d="M680 1287q5 0 14 -4t13 -4q12 5 36 12q21 2 27 -8q14 -26 26 -81q8 -37 8 -88q1 -56 -4 -86q-7 -11 -17 -35q0 -40 -9 -119q-7 -34 -27 -59q-4 -4 -45 -35q-30 -21 -31 -40q1 -8 -5 -27q-4 -6 -19.5 -11t-20 -11t-5 -22.5t-5 -23.5t-52.5 -55q-13 -10 -34 -32 q-16 -28 -46 -81q-21 -20 -58 -66q-10 -33 -44 -93q-10 -13 -18 -13q-15 0 -18.5 26t-17.5 75q-4 12 -21 28t-21 26q1 7 4 22q0 8 -9 25q-5 13 -3 21q2 6 16 7.5t17 4.5q38 32 85 94q9 18 30 54q17 11 50 38q10 13 54 77q11 21 38 62q12 6 29 21q22 33 29.5 58.5t4.5 66.5 q-2 27 -3.5 56.5t-13.5 46.5q-9 10 -27 5q-19 -2 -36 -5l-37.5 -7.5t-41.5 -5.5q-6 0 -18 6.5t-19 6.5q-20 -10 -66 -23q-12 0 -38 9t-37 9q-4 0 -10.5 -6t-12.5 -6q-4 0 -12.5 7t-11.5 7q-10 0 -7 -64q2 -10 9 -37.5t4 -43.5q-2 -13 -15.5 -35.5t-14.5 -35.5q-1 -17 7 -44 q9 -33 10 -44q-3 -13 -4 -41q-2 -42 0 -132q0 -8 6 -44q5 -27 1 -46q1 -41 -1 -121q-5 -22 -10 -71q0 -1 6 -3t6 -5q0 -13 -6 -39.5t-6 -40.5q8 -10 17 -31q-5 -24 -9 -75q2 -19 17 -96q7 -12 14 -42q0 -7 7.5 -29t7.5 -29q0 -8 -5 -9q-20 -11 -57 -6q-31 3 -59 6 q-6 0 -19.5 6.5t-20.5 6.5q-6 -9 -18 -17q-93 -16 -93 15q0 5 8.5 15.5t10.5 17.5q1 17 17.5 46t20.5 44q-7 4 -13 17q7 27 22 79q7 34 4 46q-2 4 -11.5 14t-9.5 17t12.5 17t12.5 17q1 11 -9.5 31t-11.5 27q-7 29 -4 46q8 15 17 49q0 10 -6.5 29.5t-6.5 27.5q0 10 4 29.5 t4 29.5q0 7 -4 21t-4 23q0 1 4 4t4 6q-3 45 -4 140q0 13 9 88q0 2 7 34q5 20 1 36q-1 6 -15.5 13.5t-14.5 16.5q-3 14 5 41.5t8 41.5q0 3 -8.5 7.5t-8.5 7.5q0 11 9 34.5t9 34.5q0 17 -23 45t-25 46q-1 14 -12.5 27t-11.5 17q0 12 24 19q16 4 46 3q32 -3 44 0q83 22 163 18 q4 0 14 -4t16 -4q3 0 5 4t3 4q20 0 58 -4t57 -4q2 7 9 12q85 3 241 -4z" />
<glyph unicode="Q" horiz-adv-x="1060" d="M523 1271q1 -14 13 -39q8 -9 33 -21.5t33 -22.5q5 -6 3.5 -21t1.5 -21q31 -37 88 -118q11 -28 35 -83q9 -13 63 -76q17 -18 48 -54q16 -29 53 -88q10 -4 22 -17q6 -24 -4 -54q-13 -35 -48 -88q-14 -18 -49 -54.5t-49 -56.5q-13 -25 -40 -79q-6 -10 -48 -75 q-15 -17 -36 -53q-10 -40 -31 -115q-6 -16 -16 -16q-17 0 -34 29q-4 10 -7 36t-10 38q-10 1 -25 12q-8 6 -15 36q-3 11 -22 39t-19 36q0 9 11 10q20 3 57 29q24 15 50 58q36 65 38 68q9 4 23 14q11 29 41 78q2 3 26 22q18 11 16 21l-16 61q-2 1 -23 40l-18 30q-16 10 -44 35 q-12 24 -34 71q-16 19 -46 57q-10 18 -35 54q-13 11 -35 35q2 9 -4 18q-35 2 -48 -12.5t-24 -43.5q-14 -34 -22 -45q-14 -13 -39 -42q-13 -19 -40 -61q-10 -8 -27 -27q-14 -35 -44 -105q-2 -5 -15.5 -17.5t-11.5 -23.5q1 -10 17 -21q16 -16 20 -22q6 -34 30 -93 q11 -16 41 -38.5t38 -37.5q7 -8 8 -31t6.5 -31.5t26 -20.5t26.5 -19q11 -13 26 -41q18 -38 24 -47q17 -26 51 -74q7 -17 23 -45q29 -47 146 -169q23 -22 65 -70q13 -24 46 -67q14 -11 41 -22q38 -16 43 -18q19 -17 55 -48q1 -1 35 -17q22 -11 22 -24q0 -7 -20 -9 q-14 2 -31 2q-10 -2 -27 -9.5t-34 -7.5q-13 0 -30 3q-32 7 -67 -5q-36 -12 -64 2q-10 4 -21 21q-15 23 -17 26q-9 14 -27 40q-22 14 -57 49q-20 30 -58 93q-10 17 -36 48q-23 11 -65 40q-16 21 -46 62q-15 23 -47 67q-17 16 -45 52q-13 25 -40 72q-8 8 -21 27 q-37 69 -121 201q-14 20 -44 58q-3 15 -11 42q-5 11 -24 28l-30 20q-6 6 -6 14q0 9 24 40q13 8 33 47q4 6 10 18q8 42 11 51q7 23 20 29q7 3 9 19t8.5 19.5t22.5 13.5q7 16 27 46q11 13 34 44q11 24 40 74q12 10 31 31q1 20 14 54q20 16 58 53q10 15 26.5 55.5t30.5 54.5 q16 20 36 34l21 22q11 13 20 13q17 0 30 -40q8 -27 17 -56z" />
<glyph unicode="R" horiz-adv-x="1097" d="M67 1260q10 0 34.5 9.5t30.5 9.5q17 2 46 -5q35 -5 45 -5q6 0 17 2t17 2q17 0 51 -2t51 -2q12 0 36 5.5t35 4.5q40 -10 117 -23q14 4 44 8q11 0 27.5 -9t29.5 -8q14 12 38 23q21 1 44 -4q41 -10 44 -10q-3 0 34 1q23 0 29.5 -12.5t2.5 -41.5q-9 -7 -17 -23q0 -11 7.5 -36 t4.5 -39q-7 -40 -44 -98q-15 -10 -41 -37q-4 -24 -21 -71q-10 -10 -29 -37q-4 -18 -14 -48q-4 -11 -14 -24q-6 -6 -6 -29q0 -7 -12.5 -14.5t-15.5 -13.5q-10 -26 -30 -81q-7 -18 -47 -81q-30 -50 -37 -85q0 -4 10 -9t13 -8q10 -19 35 -57q43 -63 93 -121q25 -24 71 -77 q8 -17 32 -48q16 -17 76 -62q17 -10 52 -34q19 -20 59 -54q14 -5 41 -23q1 -3 27 -20q20 -14 20 -20q0 -7 -20 -7q-9 0 -32.5 5t-33.5 3q-42 -8 -78 -5q-37 3 -75 7q-16 -7 -44 -14q-67 11 -74 11q-18 -1 -18 10q0 28 1 26q4 19 3 46q-7 13 -23 25q-20 14 -28 22 q-12 17 -36 50q-24 20 -67 67q-14 24 -45 74.5t-53 70.5q-8 1 -21 8q-7 30 -37 77q-15 13 -33.5 25t-20.5 30q0 12 23.5 29.5t27.5 26.5q26 67 84 196q21 37 40 67q13 14 35 48q6 28 22 81q13 8 32 30q15 25 36 89q8 27 4 31q-5 3 -58 9q-61 7 -75 6q-6 0 -17.5 -7.5 t-18.5 -7.5q-17 0 -51 7.5t-51 7.5q-34 0 -54 -14.5t-27 -39.5q1 -29 0 -86q0 -12 -2 -44t-2 -48q0 -67 4 -121q1 -8 10 -39q6 -25 4 -40q0 -17 -12 -46t-15 -44q-1 -10 4 -57q6 -27 15 -85q-8 -31 -10 -94q0 -4 7 -21.5t7 -23.5q-9 -47 -19 -153q0 -6 9.5 -16.5t9.5 -16.5 q-4 -20 -4 -63q1 -5 12.5 -13.5t13.5 -16t16 -31.5q10 -20 10 -27q0 -15 -30 -15q-12 0 -39 5.5t-36 6.5q-30 0 -135 -5q-35 -2 -36.5 1.5t-1.5 9.5q0 10 10 23q17 18 18 23q29 42 33 68q3 14 -5 41t-8 38q6 33 9 98q-8 17 -19 53q-7 54 0 94q13 18 27 58q1 6 -8 16t-9 14 q3 27 4 77q0 14 -7 78q-8 56 -7 68q6 23 14.5 67.5t8.5 47.5q-6 7 -13 23q-4 51 0 160q0 3 2 8.5t2 8.5q0 74 -15 97q-13 18 -13 27v5l1 5q0 7 -15 22q-15 12 -32 22q-28 25 -28 41q0 11 20.5 16t23.5 4q6 -3 23 -3z" />
<glyph unicode="S" horiz-adv-x="824" d="M598 1291q4 -3 -10.5 -17.5t-14.5 -20.5t11 -7q18 -4 20 -19v-21q11 -20 45 -54t44 -54q2 -3 20 -24q10 -13 7 -21q-7 -22 -24 -22q-14 0 -32 12t-38 12l-68 -17q-5 -1 -15 -14.5t-17 -10.5q-33 13 -44 13q-12 -2 -22 -2.5t-25 -10.5q-23 -17 -68.5 -30t-58.5 -21 q-25 -19 -25 -59q-2 -24 25 -49q34 -33 44 -60q15 -40 70 -98q14 -33 60 -91q45 -34 44 -81q0 -33 24 -55q40 -34 48 -49q20 -38 43.5 -79t54.5 -63t50 -51q7 -13 7 -27q0 -24 -20 -32q-20 -15 -57 -37q-10 -5 -50 -10q-32 -5 -47 -17t-30.5 -17t-22 -15t-59.5 -7 q-24 2 -27 -3q-8 -2 -24.5 -28.5t-57.5 -26.5q-30 0 -30 -10q0 -1 2 -4v-6q0 -10 -12 -15q-37 -25 -82 -100q-40 -67 -58 -71q-6 -1 -10 -1q-15 0 -12 31q3 40 -1 52q0 2 -2 45q0 21 -34 32q-11 29 -24 61q-62 13 -85 88q-4 13 10 13q6 0 28 -3t33 -3q6 0 23 -7t22 -7 q3 0 9 4.5t14 4.5q9 0 20 -6t16 -6q3 0 5 5q19 37 63 54q55 20 72 38q50 53 110 70q12 1 24.5 3t9.5 9q-9 30 -29.5 55t-41.5 51q-17 18 -46 95q-10 27 -37 57q-22 25 -48 51q4 1 9 5q-2 27 -42.5 39t-43 40t-52.5 103q0 2 -27 57q-14 33 -37 41q-26 10 -50 49t-14 66 q3 12 29 17.5t29 8.5q17 31 71 51q77 27 85 34q2 -6 5 -8q18 34 83.5 46t85.5 52q1 -5 7 -8q25 12 77 59q11 15 29 74q16 44 40 55q9 3 13 3q9 0 10 -29q4 -36 24 -51z" />
<glyph unicode="T" horiz-adv-x="1104" d="M134 1271q35 10 103 16q12 0 33 -11.5t33 -12.5q-8 1 82 4q71 4 210 12h37q12 0 61 5q39 4 61 3q13 -7 37 -20q6 0 34 4q34 13 107 26q52 1 65.5 -19.5t16 -51.5t3.5 -60q-6 -10 -10 -34q2 -41 14 -92q10 -44 -2 -50q-15 -6 -42 23q-34 38 -51 45q-38 20 -121 47 q-8 2 -23 -6.5t-22 -8.5q-21 0 -59.5 8.5t-55.5 8.5q-46 0 -46 -27q0 -7 3 -23t3 -21q0 -13 5 -36t5 -35q-1 -10 -8.5 -30t-7.5 -32q9 -28 20 -88q3 -55 -4 -149q-1 -4 -6 -13.5t-4 -14.5q0 -6 5 -25t4 -29q-2 -6 -7 -16t-3 -18q7 -32 -9 -98q-1 -12 7 -29q12 -20 13 -28 q0 -7 -5 -21.5t-5 -21.5q0 -3 5 -10.5t5 -10.5q-3 -9 -13.5 -23.5t-10.5 -24.5q0 -7 11.5 -18t12.5 -18q2 -17 -4.5 -47t-5.5 -42q0 -9 9.5 -26t9.5 -27q0 -6 -9.5 -15.5t-9.5 -15.5q7 -3 14 -12q-1 -38 22 -92q25 -62 27 -74q1 -8 -13 -10q-11 -1 -34 2q-29 4 -31 4 t-10.5 4.5t-12.5 4.5q-10 0 -30 -4.5t-30 -4.5q-34 -4 -68 -7q-43 -6 -67 4q-3 2 -3 6q0 6 8 20t8 18q6 16 27 48t24 50q3 16 -7 43.5t-10 39.5q-1 24 2 61q2 45 2 61q0 14 -2 45q-3 29 -2 44q0 12 7 35.5t6 34.5q0 17 10 75q1 7 -9 19t-10 18q0 26 9.5 75.5t9.5 73.5 q0 7 -8.5 21.5t-10.5 21.5q6 27 9 84q0 4 -3 15.5t-3 16.5q0 15 6 45.5t4 42.5q0 13 -4 47q-4 30 -4 47q1 7 7.5 20.5t6.5 22.5q0 47 -14 50q-32 8 -74 8q-26 0 -75.5 -4t-75.5 -4l-40 5q-24 3 -39 -5t-35 -32q-21 -30 -31 -38q-24 -20 -35 -20q-23 0 -20 54q8 34 23 108 q-2 17 0 50q0 28 5 74q2 5 6 5q17 5 47 -5q37 -13 50 -15z" />
<glyph unicode="U" horiz-adv-x="930" d="M760 1284q34 6 75 6q5 -4 -4 -41q-18 -27 -41 -88q-3 -16 1 -40q5 -31 3 -41q-4 -7 -8 -22q0 -21 1 -59q3 -46 3 -61q-2 -47 0 -141q1 -4 4.5 -10.5t3.5 -9.5q-8 -21 -17 -67q0 -20 6 -57q7 -39 7 -58q0 -8 -4 -24t-4 -24q0 -97 8 -267q2 -9 6 -30t3 -33 q0 -15 -6.5 -50.5t-6.5 -57.5q1 -29 23 -69q21 -16 45 -54q3 -24 -31 -30q-30 -4 -77 -3q-64 3 -75 3q-9 0 -50 -4q-30 -3 -48 0q-9 0 -80 25q-67 22 -190 76q-26 19 -81 54q-20 8 -57 26q-18 12 -55 26q-10 1 -18 -1.5t-12 -2.5q-13 0 -44 8q-40 12 -31 29q5 14 24 42 q11 17 22.5 33t11.5 33q0 11 -5 34t-5 35q10 36 23 110l-15 103q-8 60 -8 59q7 5 14 21q0 23 -3 60q-3 47 -3 59q3 59 0 174q0 4 -8.5 7t-8.5 7q2 11 12 27.5t11 26.5q1 17 -6 79h-4q2 6 10 29q6 17 3 30q-3 14 -17 31q-19 23 -22.5 32.5t-13.5 32.5l-5 10q11 12 37 23 q19 1 54 -4q41 -9 52 -9q23 3 74 0q13 0 28 -2t20 -12q5 -9 -11 -26t-26 -23.5t-10 -18.5q0 -7 5 -26.5t4 -26.5q0 -17 -4 -82q-3 -51 -3 -81q0 -33 3.5 -95t3.5 -94q0 -12 -3 -30q-4 -23 -4 -33q-6 -76 -6 -123q0 -10 5 -30t4 -33q0 -24 -6.5 -76t-6.5 -79q0 5 13 -61 q-2 -21 10 -49q15 -13 55.5 -23t54.5 -19q16 -18 54 -47q10 -7 33 -6t33 -3q28 -20 88 -54q32 -16 50 -13q1 21 4 57q-3 19 -4 54q9 22 22 71q2 17 -6 46.5t-8 42.5t8 39t6 42q-10 7 -20 21q-1 15 4.5 31t7.5 26q0 16 -5 44.5t-5 40.5q0 9 5 24.5t5 25.5q-6 34 -14 105 q-12 130 -9 157q1 8 13.5 23.5t12.5 25.5q1 13 -8 36.5t-9 34.5q7 10 14 30q-2 9 -12.5 19.5t-10.5 17.5q0 6 11.5 15t11.5 16q0 6 -11 10.5t-12 6.5q-13 23 -17 54q-1 7 -12.5 24.5t-11.5 22.5q0 16 30 16q15 0 45.5 -6.5t40.5 -6.5q26 4 77 7z" />
<glyph unicode="V" horiz-adv-x="1163" d="M101 1314q18 -8 57 -18q17 0 49.5 6t48.5 6q30 -4 89 -8q6 0 17.5 7.5t18.5 6.5q7 -3 10 -14q4 -12 -3 -17q-12 -17 -40 -33q-34 -20 -44 -30q-26 -24 -26 -54q0 -18 10 -48q13 -41 16 -54q6 -31 18 -94q3 -25 19 -75q14 -9 34 -31q7 -16 11 -44q5 -34 9 -44t13 -27 q7 -23 21 -67q6 -10 13 -31q-7 -9 -9 -26q3 -6 18.5 -8.5t18.5 -9.5q4 -15 0 -44t0 -40q7 -30 39 -85q21 -35 27 -35q11 0 14 32q1 20 3 38q1 4 32 90q22 61 71 186q10 21 26 66q1 27 13 80q18 23 45 71q14 31 23 81q-2 30 4 92q7 32 7 46q0 20 -27 35q-38 22 -69 63 q-6 7 0 17q4 11 12 14q10 1 28 -6.5t26 -7.5q-5 0 120 8q68 6 71 6q7 -1 16 -7.5t15 -6.5q7 0 22 9t23 9q8 -1 18.5 -11.5t17.5 -10.5q6 0 16 9.5t15 8.5q7 -3 12 -14q2 -12 -3 -17q-17 -23 -56 -50q-45 -34 -57 -46t-12 -29q0 -6 5.5 -14.5t4.5 -12.5q-3 -7 -18.5 -13.5 t-18.5 -12.5q-3 -8 5 -25t6 -25q-4 -11 -21 -27.5t-20 -26.5q-4 -25 -13 -79q-7 -31 -14 -48q-11 -25 -31 -67q-13 -36 -19.5 -62t-20.5 -77q-14 -26 -36 -80q2 -21 -4 -65q-4 -14 -26 -45.5t-23 -53t-5 -63.5q-7 -36 -27 -75q-11 -13 -30 -45q-4 -18 -14 -52 q-11 -30 -31 -90q-7 -27 -21 -79l-16 -88q-9 -53 -34 -74q-4 -3 -7 -3q-12 0 -22 37q-5 27 -11 57q-3 23 -13 67q-15 14 -41 46q-3 9 2 22.5t2 19.5q-3 5 -15 12.5t-14 14.5q-2 4 6 12.5t6 14.5q-5 12 -41 66q-27 44 -27 66q0 7 4 34q6 21 2 33q0 4 -17 4q-9 1 -9.5 15.5 t-3.5 42.5q-14 33 -37 98q-9 40 -30 117q-15 38 -35 83q-13 17 -30 61q1 22 -3 59q-6 -2 -13 0q-4 31 -18 89q-5 17 -27 50t-26 52q0 40 -13 116q-5 12 -29.5 28t-28.5 33t-27.5 41.5t-23.5 39.5q0 20 20 20q6 0 25 -4t27 -2q5 0 14 7t15 7z" />
<glyph unicode="W" horiz-adv-x="1544" d="M276 1198q-2 -5 -2 -10q0 -12 19 -56q8 -17 18 -55q2 -20 2.5 -40.5t13.5 -37.5q25 -30 28 -56q6 -38 9 -42q10 -25 25 -70q2 -31 14 -98q5 -16 20.5 -38.5t19.5 -33.5q3 -25 6 -47q3 -33 27 -43q7 -3 16 -34q2 -9 7 -58q2 -34 25 -71q4 -6 12 -10q7 -5 10 1q19 37 19 64 q0 23 30 41q16 10 15 48.5t5 44.5q23 20 23 42q0 3 -3 13v14q0 16 4 30q5 30 19 88q14 17 34 54q3 9 0.5 32.5t3.5 34.5q16 30 33 30q4 0 7 -3q16 -17 24 -53q10 -51 13 -58q8 -14 21 -45q2 -33 14 -97q2 -6 15.5 -8t16.5 -6q2 -7 -2 -20.5t-3 -18.5q10 -21 22 -62 q1 -36 18 -55q24 -27 27 -36q0 -1 -1 -35q0 -29 10 -29q5 0 21 26q27 39 31 66q2 6 -6 17.5t-7 18.5q5 17 26 58q18 39 20 53q-2 8 3 27q12 15 37 48q5 9 17 26q4 25 17 76q18 36 38 110q-1 17 2 55q2 13 15 21q6 -1 13 0q14 40 25 103q9 55 5 76q-3 15 -20 42t-19 42 q-1 7 -6.5 18t-5.5 15q0 17 25 17q9 0 24 -7l15 -7q15 -4 30 -9t38 -4q14 1 33 6t31 5q10 0 25.5 -5t22.5 -5q16 0 47 14.5t42 14.5q23 0 23 -17q0 -22 -57 -76q-17 -9 -47 -35q-22 -26 -32 -58q-4 -36 -17 -108q-12 -24 -33 -74q-8 -31 -30 -94q-13 -23 -35 -67 q-23 -61 -36 -115q0 -27 -10 -76l-21 -36q-30 -51 -26 -74q0 -3 6 -16.5t4 -17.5q-4 -13 -16.5 -25.5t-16.5 -20.5t-26 -63q-10 -22 -27 -67q3 -9 3 -26q-12 -7 -26 -28q0 -4 9 -10.5t8 -10.5q-3 -15 -17 -37q-19 -27 -21 -34q-25 -49 -46 -103q-3 -7 -15 -65 q-10 -40 -29 -55q-4 -3 -7 -3q-11 0 -38 48q-16 28 -30 92q4 7 4 23q-10 2 -23 9q-2 31 -14 93q-8 49 -21 73q-10 1 -21 13q-3 8 2 28t2 30q-14 52 -44 88q-9 8 -13 8q-7 0 -9 -25q-1 -34 -1 -36q-13 -17 -31 -55q-6 -14 -7.5 -44.5t-5.5 -43.5q-16 -20 -41 -63 q-4 -11 -4 -54q0 -4 4 -21q3 -16 0 -23q-6 -21 -43 -88q-8 -7 -20 -22q-1 -6 -4 -35q-1 -19 -13 -22q-22 -9 -45 40q-6 14 -7 42q-3 36 -5 46t-19 44q-15 27 -13.5 44.5t-8.5 37.5q-15 26 -17 28q-7 26 -23 71q-12 27 -27 83q0 21 -4 58q-4 16 -21 44q-16 26 -19 47 q-2 28 -14 47q-15 24 -17.5 32t-9.5 62q-4 34 -27 55q-14 17 -21 48q-7 27 -13 54q-23 63 -23 67q2 29 -5 43q-12 22 -13 24q-4 28 -21 85q-2 4 -15.5 11.5t-14.5 19.5q1 9 -2 27q-10 6 -21 22q-4 14 -4 57q0 35 -9 53q-5 13 -28 29.5t-30 24.5q-3 5 2 14t2 12q-3 4 -30 20 q-18 13 -18 21q1 12 18 13h35q21 -8 66 -13q16 3 30 3q19 0 40 -6.5t34 -6.5q21 0 56 15t52 5q7 -3 7 -8q0 -16 -30 -57q-15 -24 -32 -48z" />
<glyph unicode="X" horiz-adv-x="1040" d="M217 1290q9 1 24 13t25 14q21 1 32 1q23 0 23 -8q0 -4 -11 -17q-15 -20 -20 -27q-16 -26 -10 -57q30 -34 65 -80q6 -17 19 -52q5 -7 22 -40q-5 -13 -4 -33q21 -20 48 -52q-2 -9 0 -27q9 -6 27 -44q13 -39 26 -33q18 11 34 33t29 44q5 8 30 57t36 76q10 32 36 93 q41 103 41 109q0 13 -20 30q-17 11 -17 17t104 -3q20 -3 37 -8q10 -3 11 0q7 14 27 14q9 0 26.5 -3.5t26.5 -3.5q18 0 44 4q37 7 37 -11q0 -9 -10 -19q-19 -18 -54 -54q-27 -21 -74 -67q-6 -14 -15 -41.5t-31 -83.5q-14 -14 -41 -48q-4 -28 -21 -81q-16 -8 -40 -34 q-7 -17 -13 -48q-4 -37 -10 -50q-10 -30 -35 -73q-3 -4 -19.5 -18t-16.5 -26q0 -22 13 -56q11 -26 23 -54q5 -29 27 -80q4 -6 18 -9.5t18.5 -10.5t4.5 -27t5 -26t16 -16q5 -19 17 -49q10 -3 23 -13q-4 -12 -4 -32q18 -26 52 -80q6 -13 19 -40q18 -39 57 -116q10 -1 22 -9 q9 -8 27 -25q44 -46 44 -54q0 -7 -14 -7q-13 0 -38.5 3.5t-37.5 3.5q-18 0 -29 -4q-40 -17 -98 -5q-4 2 -15.5 -3t-15.5 -5q-19 0 -19 28q0 6 1.5 16.5t1.5 16.5q0 26 -27 71q-21 33 -42 67q-8 22 -26 68q-18 18 -50 61q-8 27 -25 80q-6 21 -24 58q-16 21 -30 13 q-37 -22 -40 -71q1 -19 -4 -53q-14 -28 -49 -77q-37 -51 -49 -75q-6 -21 -19 -61q-7 -14 -21 -46q-2 -4 -13 -54l-1 -21q0 -14 -7 -18q-12 -3 -31 7.5t-28 10.5q-10 0 -26 -7.5t-22 -10.5q-28 -6 -45 -5q-10 0 -52 9q-31 6 -51.5 5t-20.5 5q0 10 36 25q8 6 15 20 q10 22 14 26q33 26 84 84q6 8 2 27q-5 20 -2 27q4 7 18.5 16t18.5 15q6 20 21 58q12 19 32 58q24 47 71 147q18 34 49 106q17 61 13 103q-3 18 -15 42q-17 34 -20 41q-6 23 -23 67q-14 12 -38 41q-5 17 -15 52q-4 10 -27 32q-1 -1 -4 0q-4 24 -17 71q-11 7 -27 27 q-11 36 -41 105q-19 23 -53 63q-14 24 -48 58q-24 14 -24 24q0 15 33 12q28 0 88 -5q5 0 38 -5q23 -5 38 -3z" />
<glyph unicode="Y" horiz-adv-x="1028" d="M141 1286q14 0 38 11t38 11q42 2 52.5 -17.5t8.5 -54.5q0 -41 5 -57q4 -10 17.5 -23.5t17.5 -21.5q4 -22 19 -66q15 -30 44 -89q5 -17 18 -58q2 -16 9 -40q11 -5 30 -17q9 -15 19 -54q9 -47 22 -53q8 -3 13 10q7 21 8 26q10 14 14 41q7 40 9 47q8 30 30 88q27 37 71 112 q7 27 24 81q10 31 30 97q0 20 12 44q6 3 15 3q8 0 26 -5t28 -5q11 0 33.5 3.5t32.5 3.5q46 3 59 0l39 -2q29 0 32 -11q2 -11 -19 -33q-15 -14 -31.5 -29l-49.5 -45q-64 -81 -96 -186q0 -20 -10 -58q-2 -4 -13 -4t-13 -5q-4 -12 -5 -38.5t-3 -36.5q-6 2 -13 0 q-34 -61 -41 -98q-3 -14 -10 -41q-9 -9 -27 -34q-12 -21 -33 -61q-4 -17 -16 -52.5t-17 -122.5q-1 -8 3 -24.5t4 -25.5q0 -28 -4 -96q-4 -61 -3 -94q6 -7 13 -24q2 -24 -1 -62t-2 -62q6 -10 12 -23q4 -18 22.5 -43.5t18.5 -29.5q0 -5 -3 -6q-20 -9 -95 -14q-16 0 -40 5 q-30 5 -40 5q-27 -2 -57 -2q-39 0 -39 17q0 6 7.5 21.5t9.5 21.5q3 18 21 49.5t23 48.5q1 4 -6 12.5t-7 14.5q-3 14 2.5 44t5.5 44q0 9 -4 26.5t-4 27.5q0 11 5 38t3 40q0 3 -7 5t-7 5q0 14 12 47q8 30 7 47q0 6 -32 84q-14 29 -35 89q0 20 -10 58q-7 13 -28.5 35t-29 37 t-12 64t-14.5 68q-17 14 -45 49q0 19 -9 54q-17 26 -50 80q-22 48 -75 143q-11 13 -34 43q0 1 -17 19t-13 21q14 12 88 10q9 0 24 -13t25 -14z" />
<glyph unicode="Z" horiz-adv-x="960" d="M261 1230q52 -10 152 -37q15 -13 44 -31q22 0 63 -9q24 -15 75 -35q7 -1 22 5t24 4q14 -5 36 -24t33 -25q49 -10 94 -21q84 -19 84 -30q1 -20 -30 -28q-38 -12 -41 -13q-13 -20 -39 -56q-18 -21 -53 -65q-5 -16 -18 -41q-11 -2 -28 -9q-11 -18 -34 -56q-16 -23 -46 -67 q-34 -39 -98 -115q-12 -26 -44 -77q-21 -20 -56 -61q-9 -26 -27 -68q-23 -19 -63 -57q-11 -14 0 -19q20 0 58 -8q13 -14 44 -40q16 -11 44 -18q62 -10 177 -46q27 -18 82 -40q17 -1 67 27q14 17 49 40q6 3 15.5 -1t10.5 -12q1 -15 -7 -38q-10 -33 -11 -38q-5 -32 -17 -97 q-9 -20 -23 -61q-2 -3 1 -14q0 -4 -1 -10q-9 1 -21.5 14.5t-17.5 16t-78 26.5q-34 14 -105 37l-81 27q-23 11 -71 27q-23 1 -71 8q-64 16 -119 40q-10 11 -37 27q-26 -2 -80 4q-34 6 -65 12q-44 11 -50 29q-4 16 34 37q44 26 50 33q11 18 31 54q12 11 32 34q52 68 81 108 q12 24 38 67q13 13 31 37q6 20 23 57q7 7 27 14.5t27.5 17.5t16 34t14.5 36q2 3 30 23q10 1 24 12q4 27 26 76q24 15 49 31q43 27 43 52q0 8 -4 15t-76 24q-19 6 -21.5 16.5t-9.5 13.5q-17 5 -51.5 4.5t-49.5 2.5q-5 10 -18 22q-24 3 -70 15q-20 10 -58 25q-20 2 -54 6 q-30 6 -43 0q-11 -4 -28 -23q-13 -5 -31 -18l-23 -22q-17 -15 -24 -11q-6 3 -6 11q0 6 6 22.5t6 21.5q0 19 13.5 36.5t14.5 37.5q1 16 14.5 25t15.5 24q-12 15 -21 35q18 31 18 40q0 7 -2 22.5t-2 21.5q0 17 11 21q16 5 30 -20q18 -32 29 -38t114 -30z" />
<glyph unicode="[" horiz-adv-x="466" d="M376 1230q6 -23 0 -79q-2 -26 -5 -50q-4 -30 -14 -48q-2 -3 -5 -3t-12.5 6.5t-14.5 7.5q-68 7 -132 7q-7 0 -7 -7q3 -44 4 -131q-4 -30 -7 -88q5 -69 7 -209q-1 -5 -6 -15t-5 -17q0 -3 5.5 -4.5t5.5 -2.5q0 -61 -5 -165q-5 -120 -6 -165q0 -37 4 -87q-1 -12 -1 -24 q0 -14 8 -15q26 -2 76.5 14.5t78.5 12.5q24 -5 36 -60q14 -67 0 -119q-9 -33 -40 -35q-43 -2 -117 8q-86 11 -116 12q-9 0 -23 -5.5t-21 -6.5q-44 -2 -48 8q-12 37 -12 168q0 8 6 24.5t6 26.5q1 21 -3 63t-4 63q0 26 4 80t3 82q-5 17 -12 47q0 3 3.5 5t3.5 4q0 30 -3.5 91 t-3.5 91q0 19 6 55.5t6 54.5q0 16 -6 46.5t-6 46.5q0 -24 12 190q1 17 0 31q0 9 -8 32.5t-8 31.5q0 12 9 20q25 19 71 23q39 1 79 4q44 4 91 0q4 0 11 -6.5t13 -4.5q10 1 33 16t38 14q22 -2 31 -39z" />
<glyph unicode="\" horiz-adv-x="655" d="M109 1189q-15 -13 -27 -27q-11 -23 -38 -64q-20 -8 -43 -31q-1 -16 27 -68q20 -22 50 -70q6 -14 8.5 -47.5t11.5 -47.5q4 -9 20.5 -17.5t20.5 -16t3 -23.5v-23q6 -10 17 -31q9 -33 30 -97q10 -28 37.5 -75t36 -69t25.5 -63q9 -17 23 -54q-1 -10 3 -30q8 3 18 0 q6 -32 22 -95q13 -21 37 -65q7 -15 21 -77q13 -48 31 -71q3 -3 6 -3q8 0 20 13l20 20q22 14 61 45q34 40 31 66q0 14 -19 35t-24 30q-7 27 -27 79q-2 12 -11 32q-16 18 -40 59q-3 5 -28 111q0 14 -7 40q-20 20 -57 68q-6 20 -19 61q-7 7 -19 26q-3 24 -12 68q-5 16 -41 77 q-11 13 -28 41q-5 26 -22 72q-7 3 -20 17q-5 23 -18 71q-9 27 -34 98q-2 20 -20 50q-4 3 -26 -14z" />
<glyph unicode="]" horiz-adv-x="462" d="M81 1230q21 -7 37 -8q58 7 186 10q27 -3 41 -6q23 -7 29 -23q11 -30 8 -78q-3 -41 -6 -81q-2 -1 -7 -7q0 4 5 -78q2 -94 2 -110q0 -9 -3.5 -27.5t-3.5 -28.5q0 -9 3.5 -23t3.5 -21q2 -15 0 -43t-2 -43v-197q0 -11 -4.5 -36t-2.5 -38q4 -8 9 -28q2 -10 -1 -26 q-1 -20 -1 -27q0 -25 1 -70q1 -46 1 -66t8 -62t8 -63q0 -33 -15 -53.5t-50 -20.5q-13 0 -45.5 4t-47.5 4h-100q-22 -4 -67 -8q-13 -3 -27 -4q-17 -3 -24 4t-5 23l5 28q0 14 -3.5 45.5t-3.5 45.5q0 25 7 44q4 11 18 10q11 -3 24 -4q13 -9 30 -17q27 -3 53 -6q29 -2 49 9 t25 75q1 28 -7.5 78t-8.5 74q6 14 10 41q-6 3 -13 13q-1 8 0 21q3 17 3 21v98q1 36 4 108v34v124v102q-1 10 -4 33.5t-3 36.5q0 4 5.5 19t1.5 19q-11 14 -50 17q-5 0 -11 -5.5t-8 -7.5q-59 -7 -90 -4q-34 4 -35 20q-9 128 24 179q5 7 11 7t18 -12t19 -15z" />
<glyph unicode="^" horiz-adv-x="1023" d="M484 959q5 1 19 -10q23 -14 24 -15t37 -42q14 -14 40 -44q11 -10 35 -31q17 -17 53 -54q11 -4 27 -16q14 -28 50 -75q14 -9 39 -24q15 -16 44 -49q10 -5 29 -18q7 -7 41 -31q31 -20 31 -27q-1 -7 -26.5 -24t-28.5 -29q-3 -15 -17 -23t-29 -17q-5 -7 -13 -14t-12 -4 q-13 6 -23 26q-14 24 -18 28q-9 8 -26 27l-72 75q-22 16 -63 50q-7 13 -26 38q-8 13 -62 59q-13 18 -44 41q-20 4 -50 -19q-1 -11 -8 -27q-16 -11 -49 -35q-24 -19 -68 -57q-5 -24 -30 -63q-8 -10 -33 -17t-32.5 -14t-15.5 -25.5t-12 -24.5q-12 -12 -36 -45l-8 -14t-10 -12 q-13 19 -43 54q-3 2 -50 29q-38 23 -42 37q-6 11 19.5 20.5t31.5 16.5q10 12 32 27q30 18 39 27q10 14 35 38q20 11 59 36q11 9 27 31q5 15 21 41q24 30 54 57q27 17 77 58q5 17 25 50q27 27 58 34z" />
<glyph unicode="_" horiz-adv-x="1351" d="M220 138q14 5 44 10q17 0 49 -7.5t51 -7.5q28 2 81.5 14t82.5 12q32 1 80 -4q77 -10 78 -10q85 -7 84 -7q7 0 14 8.5t14 9.5q115 7 242 0q23 -8 70 -18q5 0 11 7t11 7q29 1 57 9t36 8q11 0 21.5 -10t22 -49t11.5 -72q0 -32 -16.5 -38.5t-34.5 -3.5q-26 3 -60 1 q-21 -1 -57 0q-41 3 -56 3q-2 0 -1 -1.5l1 -1.5q-18 7 -52 13q-89 4 -159 0q-42 -10 -129 -20q-11 -1 -29.5 6.5t-28.5 9.5q-10 0 -27 -4.5t-26 -4.5q-11 0 -36.5 4.5t-40.5 4.5q-17 -2 -48 -9t-48 -7q-27 0 -80.5 7t-77.5 9q-13 0 -32 -4.5t-29 -4.5q-20 0 -55.5 3.5 t-50.5 5.5q-20 -6 -53 -6q-16 0 -41 16q-6 11 -8 45t-5 43q4 41 7 42q11 10 19 12q18 1 35 1q31 4 78 -7q60 -13 81 -14z" />
<glyph unicode="`" horiz-adv-x="530" d="M374 685l1 3q11 21 41 62q9 1 22 10q21 26 19 30q-7 15 -29 27q-27 14 -36 23q-13 17 -30 52.5t-25 47.5q-17 16 -47 52q-12 18 -40 54q-16 15 -48 49q-2 0 -17 27q-7 10 -10 31q0 16 -2 45q-4 22 -7 22t-20 -20q-8 -11 -19.5 -41.5t-21.5 -43.5q-6 -6 -24 -10t-24 -11 t-9.5 -22t-6.5 -21q-7 -7 -23 -25q-18 -27 -18 -39q0 -10 21 -21q37 -17 56 -31q54 -40 82 -60q13 -14 43 -40q7 0 20 -5q-3 -8 0 -19q10 2 28 -1q9 -10 26.5 -27t53.5 -47q5 -10 14 -24q17 -20 30 -27z" />
<glyph unicode="a" horiz-adv-x="1176" d="M584 1327q15 -29 15 -58q0 -12 3 -20q12 -19 30 -59q12 -22 12 -55q0 -35 4 -51q15 -26 42 -84q9 -41 27 -124q10 -19 26 -61q7 -31 27 -89q14 -16 35 -50q6 -33 23 -94q13 -15 30 -49q0 -32 10 -97q17 -57 34 -57q16 0 82 9q30 4 52 44q15 28 32 28q12 0 12 -20 q-5 -45 3 -115q9 -22 8 -41q-3 -18 -7 -37q0 -10 5.5 -27t5.5 -23q0 -7 -7 -8q-14 -3 -34 14q-24 26 -31 29q-14 8 -30.5 18t-27.5 10q-22 0 -22 -31q0 -13 19 -63q8 -13 22 -42q-5 -9 -9 -27q8 -9 28.5 -39.5t66.5 -97.5q8 -4 18 -8q16 -7 16 -13q0 -3 -4 -4 q-57 -13 -135 -12q-13 0 -39.5 6t-39.5 6q-15 0 -25.5 -5t-33.5 -7q-24 -1 -30.5 2t-6.5 5t10 12t10 17t9 17t9 17q0 6 -9 14.5t-9 12.5q4 13 10 40q-7 48 -26 102q-17 45 -21 57q-14 32 -26 41q-5 4 -15 4t-27 -5q-23 -8 -30 -8q-29 -2 -83 9q-15 3 -56.5 -2l-41.5 -5 q0 1 3 1q-31 6 -64 -5q-17 -8 -55 -8t-47.5 -8.5t-9.5 -37.5q1 -37 -1 -42q-17 -37 -39 -112q-1 -13 16.5 -42.5t17.5 -41.5q0 -22 -20 -22q-1 0 -28 4q-17 3 -25 -2t-26 -1q-26 6 -28 6q15 0 -141 -7q-31 0 -31 14t39 52q27 30 37 40q19 24 29 46q3 7 -3.5 21t-5.5 23 q0 1 44 92q2 0 12 13q5 8 1 14q-14 23 -40 13q-10 -4 -54 -40q-35 -28 -55 -27q-16 3 -16 23l10 57q2 5 11 19.5t9 24.5q0 7 -5.5 19.5t-7.5 18.5q2 24 -3 68q-7 6 -17 19q-1 17 20 20q20 2 32 -5q18 -14 68 -47q30 -17 64 -17q20 0 32 12t23 99q6 13 13 38q10 20 25 66 q-8 10 -4 31q3 6 24 50q15 28 40 86q6 23 17 63q12 14 27 41q2 19 9 57q10 14 22 45q-1 2 -4 3q17 29 44 88q20 70 58 186q3 26 17 71q18 40 27 40q5 0 29 -45zM570 788q-2 2 -9 25q-6 17 -11 17q-12 0 -20 -34q-4 -25 -10 -47q-13 -17 -31 -57q-5 -20 -13 -61 q-10 -24 -29 -70q-2 -23 -17 -68q-9 -11 -25 -31q-27 -46 -27 -50q0 -6 3.5 -11t33.5 -3q41 3 44 3q60 -5 52 -5q15 0 56 -15q7 -5 25.5 1t22.5 3q11 -7 29 -7q15 0 33.5 9t18.5 24q0 5 -5.5 20.5t-4.5 25.5q2 20 -13 63q-2 8 -45 106q-11 22 -30 66q-3 13 -4.5 39t-5.5 39z " />
<glyph unicode="b" horiz-adv-x="815" d="M65 209q17 -3 36 -6q15 -1 33 10q19 7 56 24q23 7 43 16q26 8 34 23q4 8 -10 18q-18 14 -20 21q-3 17 0 44q5 37 5 46q0 10 -3 35t-2 39q5 8 9 22q-6 27 -4 80q0 3 2 3q9 0 23 -14q7 -7 12 -25t11 -24q15 -7 47 -25q64 -50 98 -117q10 -21 4 -25q-21 -17 -65 -37 q-50 -24 -65 -37t-42 -39q-54 -44 -90 -58.5t-76 -22.5q-16 3 -44 5q-16 -2 -33 -3q-21 -2 -21 -10q-3 -41 18 -70q27 -37 23 -115q-1 -42 13 -95q4 -16 7 -21q6 -13 14 -13q7 -1 13.5 13t9.5 17q23 18 47 48q0 9 3 24q11 14 66 70q12 13 37 34q16 4 49 16q22 11 68 35 q14 20 51 53q20 1 55 12q10 6 23.5 28t25.5 28q4 3 14 -3.5t14 -5.5q11 5 26 21t22 23q19 6 56 22q24 8 48 17q28 11 34 30q3 12 -17 25q-34 20 -35 23q-25 23 -73 72q-18 27 -61 77q-20 13 -60 43q-12 11 -26.5 24.5t-10.5 27.5q3 19 22.5 36t37 32.5t50.5 46.5 q17 23 52 66q16 7 49 25q3 6 11 16q4 3 34 17q19 10 19 23q-2 17 -20.5 32t-35.5 29q-27 11 -78 42q-7 19 -31 47q-9 7 -32.5 13.5t-31.5 12.5q-11 14 -37 42q-13 8 -36 23q-27 17 -81 56q-27 21 -72 72q-11 17 -35 44q-22 4 -64 21q-12 16 -39 47q-42 34 -61 34 q-8 -1 -8 -38q0 -10 5 -31.5t3 -32.5q0 -8 -8.5 -24t-8.5 -24q0 -10 8.5 -30t8.5 -30q-4 -17 -8 -52q0 -5 8.5 -12.5t8.5 -13.5q0 -14 -8 -39t-9 -38q4 -13 8 -38q-6 -14 -13 -40q-2 -31 5 -64q1 -7 11.5 -24t10.5 -28q0 -22 -12.5 -61.5t-14.5 -58.5q-1 -14 4 -39.5 t5 -36.5q0 -5 -5 -15.5t-4 -16.5q2 -7 12 -22t10 -23q0 -13 -11 -33.5t-11 -30.5q6 -13 10 -30q-8 -21 3 -67q3 -5 3 -12q0 -16 -13 -42q-15 -31 -18 -41q-10 -27 -23 -54q-11 -34 -10 -57q1 -3 3 -3q4 0 22 11.5t23 10.5zM263 1047q20 -30 44 -40q10 -6 20.5 -26.5 t17.5 -25.5q26 -12 77 -39q8 -13 30 -34q4 -1 20 -3q11 -1 11 -5q-3 -20 -40 -44q-20 -13 -22 -16t-12 -21q-6 -13 -21.5 -23.5t-27.5 -19t-33 -27.5l-47 -47q-31 -30 -43 -27q-7 3 -7 17q0 -4 20 95q3 13 -3.5 60t-4.5 74q-5 13 -6 43q4 7 7 21q1 18 -6 61q-3 8 -5 20 q-3 13 1 18q4 6 16 0q10 -4 14 -11z" />
<glyph unicode="c" horiz-adv-x="899" d="M773 1334q-13 -102 -13 -122q0 -27 7 -54q2 -7 -8 -17t-10 -14q7 -12 14 -37q-4 -29 -23 -26q-23 3 -112 45q-7 8 -23 18q-42 -8 -106 -13q-7 0 -23 4t-26 4q-7 0 -22 -5t-22 -3q-18 5 -52 13q-3 0 -5 -4.5t-4 -4.5q-14 1 -51 10q-33 8 -52 7q-27 -3 -43 -26.5t-16 -67.5 q0 -4 7 -12.5t7 -14.5v-71q0 -10 4.5 -37.5t4.5 -41.5q0 -5 -6.5 -12t-6.5 -11q0 -19 6.5 -55.5t6.5 -56.5q0 -12 -4.5 -33t-4.5 -33q0 -14 -4 -46t-4 -49q0 -30 8 -49t37 -36q42 -21 49 -27q22 -30 75 -81q16 -14 67 -36q27 -5 78 -27q6 -2 5 -17t3 -18q15 -7 46 -10 t45 -11q6 -5 6.5 -24.5t10.5 -20.5t32 -5q18 -19 62 -50q16 -5 55 -5t57 -12q2 -1 2 -3q0 -4 -14 -14q-17 -10 -20 -14q-10 -14 -31.5 -44t-61.5 -90q-1 -1 -20 -42q-9 -26 -25 -24t-20 29q-4 40 -7 46q-7 1 -17 8q6 13 4 27q-6 6 -20 3t-19.5 1.5t-2 18t-2.5 17.5 q-4 3 -13.5 -3.5t-13.5 -4.5q-16 8 -35 28q-30 29 -32 30q-18 16 -58 48q-6 7 -21 17q-22 5 -57 20q-10 14 -33 39q-27 11 -79 41q-19 18 -53 54q-15 11 -50 30q-15 4 -45 18q-18 11 -47 40q-17 27 -20 67q7 17 13 48q0 6 -8 16.5t-8 16.5q0 4 8 11.5t8 13.5q1 3 -6 4.5 t-7 4.5q4 44 6 127q-9 3 -19 16q-1 13 4 37t6 33q-4 4 -5 10q10 7 21 25q1 3 -5 4.5t-8 5.5q0 6 5 16t5 14q0 7 -5 19t-5 18q2 16 7.5 46.5t5.5 45.5q0 6 -5.5 12.5t-7.5 11.5q3 30 0 93q0 4 -7 14.5t-6 16.5q9 10 23 30q0 3 -5 5.5t-5 4.5q-1 32 6 58q4 1 14 7q6 16 26 33 q21 4 116 -4q10 0 35.5 -7.5t39.5 -7.5q10 0 33 7.5t33 7.5q10 -5 32 -9q8 0 23.5 7t25.5 6q10 0 31 -11.5t36 -9.5q4 0 7.5 12.5t9.5 12.5q19 2 58.5 -7.5t57.5 -9.5q46 0 67 17q65 53 95 53q16 0 13 -23z" />
<glyph unicode="d" horiz-adv-x="925" d="M261 1247q6 -22 25 -67q18 -32 52 -56q13 -2 34 -9q13 -23 42 -64.5t87 -110.5q18 -18 50 -56q7 -5 22 -13q9 -13 26 -37q23 -23 63 -71q3 -13 13 -36q17 -14 50 -44q5 -14 21 -35q10 -2 28 -9q4 -7 4 -26t9 -23l54 -30l13 -42q-7 -9 -23 -25q-41 -26 -119 -81 q-44 -47 -134 -134q-13 -7 -33.5 -22t-55.5 -40q-6 -3 -17.5 -10t-53.5 -44q-26 -11 -67 -44q-19 -20 -53 -63q-4 -11 -18 -31q-23 -7 -63 -27q-47 -27 -66 -47q-13 -17 -25 -34q-15 -17 -28 -11q-13 4 -10 24q6 37 6 34v58q0 23 8.5 72.5t8.5 74.5q0 34 -6 66q-6 40 -7 63 q0 7 9 48v80l4 76q-10 37 -23 116q-1 15 8 49t6 53q-1 13 -13 30l-18 27q-14 28 -14 35q0 11 8 23q10 0 32 4t32 4q17 0 32 -8q7 6 15.5 13t13.5 4q10 -2 35 -10.5t38 -8.5q17 0 30 10q7 -2 18 -12q-6 -29 -18 -84q-2 -9 -23 -49q-16 -31 -13 -49l13 -111l-9 -44 q15 -84 15 -90q0 -7 -7.5 -17.5t-7.5 -17.5l15 -48q2 -9 0 -27q-6 -20 -6 -25q0 -18 18 -18q23 0 50 41q14 23 30 48q7 13 37.5 19.5t37.5 17.5l63 76l54 30q24 12 46 24t20 39l-58 49l-38 62q-6 20 -24 53q-6 7 -22.5 10t-23.5 9t-59 79q-9 15 -29 40q-25 18 -34 28 q-14 19 -26 38t-46 47q-37 33 -49 47q-7 14 -22 41q-3 5 -49 39q-20 17 -38 31q-27 18 -45 20h-36q-18 3 -24 21q-3 10 17 20.5t24 15.5q4 14 17 39q17 12 50 35q11 21 40 54q10 5 18 27q6 14 17 14q16 -2 30 -23q8 -21 20.5 -40.5t24.5 -53.5z" />
<glyph unicode="e" horiz-adv-x="1098" d="M966 1257q7 -30 0 -84q0 -4 -6.5 -12t-6.5 -12q0 -10 8 -32t5 -35q-1 -12 -2 -25.5t-11 -12.5q-10 2 -28 21q-21 25 -24 26q-19 14 -64 24q-12 3 -40 0q-10 -1 -60 -8q-37 -6 -61 -5q-11 0 -33 11t-34 11t-38.5 -11t-39.5 -11q-10 -1 -25.5 7.5t-23.5 9.5q-35 5 -40 -4 q-27 -38 -50 -116q-3 -15 0 -63q0 13 0 -61q0 -35 14 -54q5 -6 13 -6q7 0 24 6t24 6q6 0 10 -2q13 -7 29 -7q11 -1 28 0q21 3 31 3q17 0 41.5 -8.5t37.5 -8.5q17 0 32 13q23 24 58 67q13 15 27.5 33t26.5 18q20 0 20 -26q0 -3 -10 -52q-4 -17 -4 -33q0 -19 6.5 -48t6.5 -43 t-7 -44t-7 -50q0 -13 1.5 -33.5t1.5 -27.5q0 -44 -19 -44q-10 0 -31 30q-24 40 -29 44q-12 17 -45 40q-13 5 -37 4h-38q-5 0 -17.5 2t-18.5 2q-98 0 -118.5 -3.5t-39.5 -6.5q-12 -4 -12 -41q0 -71 20 -118q5 -11 22 -20q29 -12 32 -15q11 -10 35 -29.5t57 -35.5t94 -50 q21 -20 66 -59q32 -22 71 -44q17 -4 49 -18q10 -14 31 -40q10 -10 41 -21q17 -10 37.5 -20.5t36.5 -6.5q44 5 44 -16q0 -10 -16 -24q-24 -14 -62 -50q-6 -8 -10 -28.5t-10 -29.5q-8 -1 -25 -8q-8 -19 -27 -53q-9 -9 -15 -9q-10 0 -18 25q-14 38 -16 41q-15 15 -44 50 q-10 19 -41 52q-4 3 -16 -4t-18 -4q-7 4 -13 19.5t-11 19.5q-29 22 -88 63q-19 17 -63 44q-31 8 -88 37q-7 4 -15.5 21t-15.5 21q-23 8 -66 25q-28 12 -54 34q-9 11 -32 35q-20 10 -47 41q-9 23 6 77q12 60 11 78q4 26 1 56q-10 8 -35 5q-34 -4 -37 -4q-58 6 -77 -28 q-21 -43 -44 -59q-5 -4 -15 -1t-12 10q-3 14 -3 28q0 16 6 50t6 54q0 7 6.5 22t6.5 21q-13 20 -22 51q3 17 -5.5 48t-8.5 41q0 29 18 29q23 0 58.5 -38.5t38.5 -41.5q23 -20 47 -20q65 -3 71 5q10 15 10 44q0 10 -10 79q-1 9 -14 20t-13 21q0 17 10 43q8 21 17 41 q0 2 5 11.5t4 14.5q-3 8 -16 14.5t-16 13.5q-7 23 0 78q0 10 -7.5 37t-7.5 37q0 30 58 30q13 0 43.5 -2t41 -1.5t24.5 -6.5t22 -7q5 4 18 8q7 -8 26 -18q17 -3 46 0q36 4 47 4q7 0 32 -4q18 -3 31 0q17 13 54 27q10 1 27 -7.5t24 -9.5q31 3 91 4q4 0 12.5 -7.5t12.5 -6.5 q6 11 23 23q17 -5 49 -5q11 3 32 30q16 23 46 23q22 0 22 -24q0 -7 -7 -27t-4 -33z" />
<glyph unicode="f" horiz-adv-x="929" d="M777 1254q4 -4 44 -56q10 -10 21 -20q15 -15 12 -22q-4 -15 -25 -26.5t-39 -21.5q-9 -6 -33 -8t-34.5 -10.5t-23.5 -33.5t-21 -33q-17 -14 -53 -43q-8 -11 -26 -28q-22 -16 -62 -54q-4 -16 -17 -43q-11 -11 -37 -25.5t-37 -24.5q-3 -11 -8 -35q-12 -33 -30 -102 q-7 -51 5 -57q6 -4 13 -4q10 0 34 10.5t36 10.5q10 0 27.5 -8t26.5 -9q10 0 27.5 4t26.5 4q13 -2 40 -4q15 9 48 23q4 0 24.5 10.5t30.5 10.5q17 0 20 -28q0 -23 2 -43q0 -17 -8 -49t-8 -49q1 -4 6 -20.5t4 -23.5q-2 -1 -3 -40q-1 -22 -17 -28q-10 -4 -33 13q-17 14 -32 28 q-9 16 -34 36q-12 2 -90 0q-47 1 -136 -9q-13 -3 -15 -31q0 -10 5 -26q4 -20 5 -28q-1 -27 0 -84q0 -18 5 -87q4 -54 3 -86q0 -7 -8 -24.5t-5 -25.5q10 -20 37 -77q8 -8 18 -15q14 -16 14 -23q0 -6 -11 -6q-33 0 -98 6q-6 0 -21.5 7t-24.5 7q-32 1 -123 -11q-37 -9 -33 -9 q-11 0 -11 16q0 27 32.5 47t39.5 42.5t16 65.5q6 68 0 106q-7 19 -17 58q0 19 8 36.5t8 29.5q0 13 -8 31q0 6 -7 10t-7 9q0 7 8.5 22.5t8.5 22.5q0 16 -31 20q-21 1 -43 1q-5 2 -17 -3t-18 -5q-4 0 -11.5 5.5t-11.5 2.5q-11 -11 -34 -27q-8 -3 -22.5 -17.5t-22.5 -14.5 q-9 0 -17 11t-8 41q2 50 2 41q0 13 2 33.5t2 32.5q0 7 -3.5 34.5t-3.5 40.5q0 36 20 36q7 0 25 -7.5t26.5 -8t25.5 -14t25 -16.5q6 -1 14.5 6t12.5 7q12 0 32.5 -7t28.5 -7q10 0 16 5q11 13 13 32q3 12 1 38q-1 27 -1 37q0 7 -2.5 16t-2.5 15t3 21.5t2 22.5q0 4 -7.5 9 t-5.5 10q6 12 34 44q23 17 62 54q8 10 23 25q41 27 117 94q18 34 48 70q7 0 14 1q16 27 53 80q20 15 57 49q5 6 18 34q7 27 16 53q10 37 24 34q24 -3 47 -43q30 -52 38 -61z" />
<glyph unicode="g" horiz-adv-x="871" d="M732 1206q2 -74 -5 -87q-11 -24 -11 -44l10 -39q16 -60 14 -77q-1 -6 -11 -7q-9 -2 -16 3q-25 15 -44 49q-24 42 -43 54.5t-72 22.5q-11 1 -43 -4q-34 -7 -39 -7q-22 0 -58 2.5t-52 2.5q-58 0 -102 -8q-53 -12 -58 -13q-13 -4 -13 -18q0 2 3 -42q1 -14 -4.5 -42.5 t-5.5 -40.5t7.5 -32t7.5 -35q0 -19 -9 -43.5t-9 -34.5q0 -12 6.5 -35.5t6.5 -33.5q1 -18 -4 -48q-8 -34 -8 -47q0 -24 -1 -69q-6 -57 3.5 -73.5t30.5 -27.5q31 -17 34 -20q12 -11 40 -30q27 -8 80 -33q14 -17 48 -48q15 -3 45 -13q9 -18 34 -49q7 -5 25 -5.5t23.5 -3.5 t18.5 -21q10 -13 20 -9q4 3 4 10q0 4 -4 17.5t-7 21.5q-3 61 28 143q3 10 3 23q0 24 -13.5 64.5t-13.5 54.5q0 9 3 24.5t3 22.5q0 10 -3 17q-26 55 -60 74q-65 31 -52 51q7 13 30 10q45 -6 37 -6q25 2 51 6q30 1 51 -6q68 -20 105 -8q4 0 19 9t21 9q8 0 13 -11 q4 -16 -23 -48q-31 -39 -33 -52q-3 -22 -3 -46q0 -27 6 -87.5t4 -93.5q-4 -17 -13 -54v-44v-297q0 -11 6 -35t6 -37q0 -33 -27 -33q-12 0 -68 37q-5 3 -7 15.5t-5.5 15.5t-64.5 41q-27 19 -84 53q-21 10 -61 31q-18 19 -58 54q-20 16 -63 44q-15 2 -44 10q-59 32 -121 80 q-18 21 -62 61q-23 14 -47 32t-24 57q0 12 7 34t7 33q0 19 -2 56.5t-2 50.5q0 22 14 60t14 56q0 14 -4 27q-23 58 -20 88q0 12 9.5 41t9.5 45q0 14 -12.5 44.5t-12.5 48.5q0 13 6 24q13 30 -1 98q-2 12 -13 47q-10 29 -10 44t10 22.5t67 7.5q12 0 35.5 -8.5t35.5 -8.5 q14 -1 34 3q27 4 34 6q24 1 75 4q77 1 104 -1q14 -5 44 -10q4 0 18.5 3.5t16.5 3.5q26 -6 69 -12q12 7 31 16q52 16 135 31q17 3 25 3q15 0 15 -8q0 -5 -8.5 -29t-8.5 -44z" />
<glyph unicode="h" horiz-adv-x="933" d="M240 1156q2 -29 3 -85q0 -16 -8.5 -33.5t-8.5 -44.5q-2 -47 0 -60q1 -64 4 -128q4 -76 17 -86q6 -4 20 -4q65 0 87 22q7 7 7 34q0 50 -17 94q-2 14 -6 36q-3 7 -23 32q-15 20 -15 32q0 19 38 18q11 -1 18.5 -7.5t14.5 -6.5q11 0 41 11q34 12 89 -1q5 0 27 4q18 3 19 -6 q1 -12 -20 -40.5t-23 -40.5q-10 -99 0 -106q19 -9 121 45q10 6 0 53q-8 41 -8 108q0 3 4 10t4 11q0 7 -4 37q-6 43 -23 128q-3 8 -20.5 28t-17.5 30q0 23 38 24q24 2 51 -7q22 -5 44 -5q33 0 83 14q58 18 79 7q7 -4 7 -13q0 -11 -18 -40q-20 -34 -23 -38q-10 -16 -27 -50 q0 -17 -10 -57q-14 -32 -3 -92q2 -13 0 -20q-4 -11 -4 -21q0 -19 7 -56q6 -28 -13 -64q-4 -7 -4 -15q0 -13 9.5 -31.5t9.5 -19.5q2 -22 1 -59q-1 -19 -6 -61q-1 -14 0 -45q6 -63 13 -186q3 -53 0 -81q-6 -23 -13 -67q2 19 5 -85q-5 -30 -5 -77q12 -27 23 -96q1 -12 28 -44.5 t27 -41.5q0 -10 -19 -10q-9 0 -26 6.5t-28 6.5q-9 0 -22.5 -4t-19.5 -4q-7 0 -29 10.5t-43 14.5q-10 2 -40 -11t-51 -13q-26 0 -26 9q0 7 25 44.5t27 52.5t5 60q2 20 11 44t9 37q0 16 -8 37q-6 12 -6 58q0 25 4 47q-4 10 -10 22q3 27 6 55q3 31 -1 57q-3 13 4 40.5t7 38.5 q-2 17 -6 22t-1 22q10 56 0 90q-3 10 -27 4q-63 -15 -84 -31q-9 -7 -7 -30q3 -37 3 -34q0 -14 -7 -54q-5 -26 1 -54q13 -65 28 -78q25 -23 25 -40q0 -14 -20 -14q-10 0 -37 10.5t-39 9.5q-10 -3 -18 -3q-10 0 -25 4t-25 4q-13 0 -25 -5q-44 -19 -53 -19q-28 0 -28 17 q0 7 15 25.5t16 24.5q6 11 23 41q5 15 7.5 35.5t3.5 42.5q1 26 -10 40q-6 4 -10 4q-7 0 -20 -7q-17 -8 -20 -10q-22 -5 -58 -25v-40q0 -7 -2 -17t-2 -21q0 -10 4 -30.5t4 -32.5q0 -10 -4 -27.5t-4 -29.5q0 -14 4 -37.5t4 -37.5q0 -10 -4 -31t-4 -31q0 -17 6 -47q7 -34 8 -46 q0 -34 3 -98q13 -23 28 -68q3 -7 -7 -10q-8 -1 -20 0q-11 3 -18 7q-26 14 -41 14q-7 0 -18.5 -5t-20.5 -5q-7 0 -19.5 4.5t-21.5 4.5q-16 0 -34 -8t-26 -8q-12 0 -25 15q-4 5 -4 11t12 17t15 18q11 15 22 49q-1 45 15 163q8 34 -6 124q-6 35 -10 69q-3 30 6 67q14 55 0 115 q-13 53 1 118q11 60 -1 118q-16 71 -2.5 118.5t-2.5 120.5q-7 31 -8 76q4 17 4 49q-10 17 -33 49q-1 3 -17 22q-11 12 -11 20q0 7 10.5 12.5t36.5 1.5q28 -4 36.5 -3t22 -4t25.5 -5q22 0 55 15q30 11 61 11q41 0 41 -20q0 -13 -21 -31.5t-27 -62.5z" />
<glyph unicode="i" horiz-adv-x="509" d="M391 1294q7 -14 -17 -44q-19 -21 -37 -43q-17 -14 -42 -44q-9 -22 -9 -41q0 -7 2.5 -21t2.5 -21q0 -15 -7 -29q-6 -14 3.5 -29.5t6.5 -42.5q-1 -26 -4 -50q0 -67 3 -91q2 -18 -3 -45q-4 -34 -4 -46q0 -11 2.5 -23t19.5 -21q29 -14 29 -15q11 -9 35 -27q4 -3 41 -19 q25 -10 25 -18q1 -19 -35 -33q-46 -17 -49 -20q-24 -18 -60 -51q-6 -9 -1 -81q0 -13 4 -55q3 -36 3 -57q0 -37 -7 -63q-17 -51 2 -115q5 -11 3.5 -37.5t2.5 -37.5q10 -30 26 -47q22 -19 61 -65q7 -10 0 -15q-4 -2 -16 -1q-30 -4 -89 0q-44 6 -76 3q-35 -2 -106 -9 q-73 -10 -63 14q12 23 33 40q30 22 41 36q17 24 24 54v57q0 5 -2 56q-2 43 0 70q1 37 9 53.5t8 24.5q0 4 -6 16.5t-9 27.5q-4 30 -4 63q0 7 4 35q5 23 0 36q-5 22 -26.5 31.5t-42.5 17.5q-29 13 -34 16q-23 13 -30 30q-3 7 25 21q22 7 54 30q27 23 56 55q3 8 3 16 q0 6 -2.5 25t-2.5 31q0 19 6 34q9 17 -4 66v88q4 20 -2 59q-15 28 0 59q3 5 3 12q0 10 -8 25q-10 24 -12 29q-4 15 -18 44q-21 21 -57 68q-3 4 0 10t9 7q21 4 45 7q23 3 43 -7q38 -18 81 -9q32 8 96 5q9 -2 29.5 4t27.5 6q11 0 16 -9z" />
<glyph unicode="j" horiz-adv-x="678" d="M361 1291q12 -4 32 -1q31 3 39 3q13 0 37 -6t36 -6q13 0 30 8t29 8q10 0 25 -4q37 -9 44 -27q2 -6 -9 -14t-13 -12q-4 -27 -18 -39.5t-19 -25t-5 -48.5t-9 -50q-11 -19 -8 -53q2 -37 7 -106q1 -23 -5 -59q-4 -42 -5 -56q3 -6 5 -19q-1 -7 -6.5 -21t-5.5 -21 q0 -6 5.5 -15.5t6.5 -13.5q-1 10 -5 -34q-9 -101 -7 -119q0 -3 6 -9t6 -10q0 -8 -7 -25t-5 -26q7 -13 17 -37v-62v-97q-7 -26 -14 -80q5 -19 9 -62q-8 -20 -19 -61q0 -6 5.5 -18t5.5 -16q0 -16 -72 -77q-33 -20 -93 -67q-7 -7 -15 -28t-16 -29q-17 -17 -67 -45 q-20 -4 -57 -21q-18 -19 -57 -54q-18 -9 -48 -33q-5 -21 -23 -58q-18 -31 -24 -30q-5 0 -14.5 16.5t-9.5 17.5q-21 24 -55 81.5t-56 80.5q-1 3 -19.5 10.5t-18.5 16.5q0 20 43 23q21 -2 66 4q30 4 88 23q6 3 59 38q32 21 92 67q17 23 53 61q18 14 52 41q12 9 23 31 q3 17 -3 48.5t-6 44.5q2 18 8.5 53.5t6.5 58.5q0 11 -2 26v44q0 15 5 41.5t5 47.5q0 37 -14 97q-3 14 -3 25q0 9 3.5 21.5t3.5 22.5q0 12 -6.5 38t-6.5 42q9 24 17 75q2 7 -3 18t-5 16q-6 88 -4 178q0 7 7 35q4 23 1 37q-8 33 -57 114q-15 16 -41 48q-11 30 4 36 q33 13 74 -2z" />
<glyph unicode="k" horiz-adv-x="1059" d="M149 1256q17 0 88 5q54 6 87 2q6 -2 7 -16q0 -13 -3 -20q-4 -14 -40 -59q-8 -6 -22 -23q-10 -50 -9 -121q0 -15 1.5 -31t11.5 -23q7 -3 14 -3q14 0 48 22q16 15 46 44q21 11 58 37q10 14 36 41q20 6 52 25q31 35 37 81q2 9 -10.5 22.5t-12.5 17.5q0 3 5 6q35 23 102 3 q41 -10 93 2t79 -2q18 -7 41 -7q-17 0 97 12q10 2 21 -4t11 -14q-1 -11 -14 -20.5t-25 -19.5q0 -1 -32 -18q-44 -26 -129 -71q-26 -6 -71 -27q-1 -17 -37 -59q-24 -21 -75 -62q-19 -14 -55 -42.5t-104 -84.5q-3 -1 -15 -4t-12 -8q0 -37 27 -94q7 -6 17 -20q1 -11 6 -32.5 t33 -54.5q16 -8 36 -32q3 -6 -2 -20t-1 -20q6 -10 26.5 -23t26.5 -23q8 -15 15 -44q7 -36 12 -45q5 -20 21 -54q20 -21 54 -65q7 -32 31 -87q6 -11 71 -99q13 -23 49 -64q21 -10 58 -27q14 -17 48 -46q30 -15 30 -27q0 -18 -58 -18q-24 0 -122 17q-36 4 -50 1q-20 -7 -21 -7 q-18 3 -53 0q-7 0 -20 -6.5t-26 -6.5q-9 0 -24 5q-56 14 -54 24q3 11 23.5 25t19.5 36q0 15 1.5 28t1.5 14q0 12 -30 83q4 10 4 27q-22 24 -62 77q-6 9 -8 35t-9 37q-17 10 -44 34q-10 23 -32 73q-11 17 -31 53q-8 35 -30 100q-14 31 -49 75q-40 50 -42 50t-8 -30 q-10 -52 -4 -183q10 -30 19 -67q0 -13 -4.5 -30t-6.5 -25q-7 -124 -4 -189q8 -30 23 -87q2 -28 12 -84q5 -10 32 -27.5t32 -26.5q3 -5 -0.5 -13t-9.5 -8q-29 -9 -106 -6q-9 0 -26.5 5t-27.5 4q-13 0 -43 -7t-45 -7l-29 -2.5t-45 -0.5q-20 4 -20 17q0 5 11.5 18.5t12.5 18.5 l15.5 7t23.5 37q9 14 21 45q-2 34 4 103q10 44 10 83q0 33 -18 154q-5 30 4 86q10 67 10 90q-5 43 -10 128q-2 40 0 91q1 20 6 52t5 49q0 32 -11 73q-14 66 -4 90q7 17 7 40q0 59 -36.5 78.5t-37.5 56.5q-3 28 27 28q15 0 42 -10.5t67 -10.5z" />
<glyph unicode="l" horiz-adv-x="847" d="M338 1266q0 -9 -20.5 -43.5t-26.5 -53.5q-10 -13 -23 -41q-14 -117 -14 -263q0 -4 7 -13.5t7 -13.5q0 -10 -4.5 -31t-4.5 -31q0 -20 4 -57q4 -40 5 -58q3 -76 0 -124q0 -4 -4.5 -13.5t-4.5 -13.5q0 -7 4.5 -22t4.5 -22q0 -4 -4.5 -11.5t-4.5 -11.5q1 14 5 -57.5t4 -84.5 q0 -7 -4.5 -18.5t-4.5 -16.5q0 -10 4.5 -31t4.5 -32q0 -4 -5.5 -15.5t-3.5 -15.5q11 -29 36 -36q18 -5 47 -4q40 1 46 0q35 -3 106 -10q42 -3 83 -6q47 -2 78 6q14 6 28 26q22 28 26 32q18 19 43 54q1 3 4 3q8 0 14 -14t6 -28q0 -6 -2 -12q-15 -41 -15 -85q1 -45 1 -90 q3 -27 -6 -62q-7 -9 -45 0q-19 7 -54 17q-6 1 -18 -4t-18 -5q-14 0 -35 5q-27 4 -36 4q-58 6 -88 6q-34 -2 -111 -6q-71 -4 -110 -4q-12 0 -32.5 5t-30.5 5q-21 0 -65 -8t-64 -8q-23 0 -41 6q-6 1 -6 7q0 7 11 24q15 24 16 27q10 10 24 30q26 37 27 40q17 24 19 45 q-5 28 -8 84q3 6 9.5 17t5.5 20q0 4 -11 6t-11 7q-8 35 0 75q13 16 27 50q2 17 -1 47q-3 39 -4 45q1 18 0 54q-6 6 -15 23q0 10 5 29t5 29q5 48 0 88q0 10 -7 33.5t-7 36.5q2 7 10.5 17t8.5 15t-8.5 7.5t-10.5 5.5q-5 23 -3 71q3 19 7.5 59.5t9.5 123.5q2 2 5 15q3 11 0 17 q-19 29 -53 92q-30 53 -30 74q0 17 17 17q13 0 34 -10q12 -6 32 -3q24 4 31 3q4 0 11 -5t12 -5q15 7 48 14q13 0 38.5 3.5t41.5 3.5q52 0 52 -25z" />
<glyph unicode="m" horiz-adv-x="1388" d="M1209 1288q7 -1 8 5q-2 -16 -17 -44q-8 -7 -27 -12t-27 -10q-15 -17 -49 -45q-17 -4 -44 -21q-6 -12 -6 -27q1 -36 1 -27q-1 -27 0 -37q5 -53 15 -107q2 -24 12 -75q9 -20 22 -63q15 -62 17 -102q-4 -20 -7 -62q7 -2 18 -9q6 -21 9 -88q-5 -17 -5 -50q13 -23 30 -74 q-3 -17 -4 -45q6 -13 13 -40q-6 -8 -9 -23q10 -4 24 -17q-4 -25 0 -72q9 -67 26 -105q17 -26 48 -78q6 -22 23 -61q3 -8 20.5 -18.5t17.5 -17.5q0 -21 -83 -27q-141 -8 -205 4q-27 7 -21 46q1 10 19.5 27.5t19.5 29.5q2 14 -9.5 39t-12.5 36q0 11 9 29.5t9 28.5q-1 4 -11 9 t-12 10q2 21 0 66q-2 61 -7 88q-7 53 -24 87q-10 2 -21 13q-2 4 4.5 12.5t8.5 12.5q2 29 -5 54q-10 10 -21 36q-4 30 -13 92q-11 37 -24 111q4 30 0 87q-6 18 -24 18q-13 0 -47 -68q-11 -35 -40 -102q-12 -16 -35 -50q-4 -18 -19 -54q-22 -28 -62 -92q-3 -6 0 -27 q3 -17 -4 -22q-16 -11 -43 13q-4 3 -37 58q-6 9 -13 27q0 23 -8 67q-6 12 -25 29.5t-25 28.5q-10 30 -36 93q-12 14 -35 44q-16 20 -23 37q-1 4 -4.5 22.5t-5.5 18.5l-3 -3q-12 -23 -22 -65q-16 -61 -17 -67q-17 -38 -40 -117q4 -24 4 -75q-10 -32 -27 -98 q-25 -129 -35 -209q0 -47 -5 -137q-1 -12 -10.5 -39t-7.5 -42q1 -16 22 -49.5t23 -47.5q0 -10 -10 -10q-56 0 -213 10q10 0 -47 -4q-28 0 -42 12q-3 3 -3 6q0 6 13 17q20 14 23 17q15 17 32 33q20 21 27 40q3 11 2 35q-3 27 0 40q7 -3 14 0q0 16 4 48h4q2 39 9 115q0 5 4 12 t4 11t-7 11.5t-5 11.5q2 7 15.5 17t15.5 17q11 33 23 112q2 24 0 54q-2 4 -7 16.5t-3 17.5q14 26 31 76q1 11 -5 29.5t-4 28.5q2 13 17.5 30t18.5 28q-3 17 -4 48q4 13 8 42q-4 5 -4 4q14 35 40 111q10 19 18 62q3 84 -14 117q-13 22 -41 46q-27 22 -51 42q-9 -3 -17 0 q-8 34 7 40.5t41 3.5q23 -2 44 -5q-10 2 75 3q46 2 76.5 -7.5t57.5 -51.5q8 -15 12 -40q6 -31 12.5 -43.5t23.5 -37.5q11 -20 33 -58q17 -30 52 -90q9 -18 27 -58q9 -10 23 -34q-4 -23 4 -58q4 -6 16 0q10 4 15 13t7.5 32.5t8.5 33.5q9 -3 19 0q21 23 29 50q-1 20 6 58 q10 16 37.5 43.5t39.5 48.5q5 22 21 64q13 17 36 56q1 24 18 58q11 10 80 14q22 -3 66 -4q36 8 107 17q10 1 27.5 -3t26.5 -6z" />
<glyph unicode="n" horiz-adv-x="971" d="M175 1253q10 -4 27 -9q42 -1 62 5q14 4 23 4q20 0 20 -14q0 -10 -9 -24q-5 -5 -14 -23q-7 -27 9 -67q17 -27 49 -84q2 -4 10 -34q5 -18 22 -36t32 -55q-3 -11 9 -47q18 -20 52 -64q6 -12 10.5 -40t8.5 -41q6 -4 17 -17q7 -25 30 -89q4 -14 16 -21t16 -17q5 -19 19 -54 q14 -19 41 -57q1 -4 6 -30q4 -20 13 -16q12 12 17 36q4 20 8 41q4 9 10 26q0 15 -4 58q-2 7 -6 30q-4 17 -4 28q0 4 5 12.5t5 13.5q-2 10 -12 34q-8 20 -7 34q0 7 13 20.5t14 21.5q0 16 -11 41.5t-11 39.5q-2 13 7.5 36.5t10.5 34.5q3 27 -7 71q-11 56 -11 70q2 37 0 107 q-2 8 -33 36t-31 38q0 7 14 8t42.5 -7.5t41.5 -8.5q11 0 26 6t26 6q13 0 35.5 -5t34.5 -5q13 0 32.5 6.5t31.5 6.5q21 0 1 -36q-17 -14 -37 -45q-10 -39 -4 -111q0 -4 7 -10.5t6 -10.5q-12 -18 -27 -54q-2 -12 6 -32.5t8 -29.5t-7 -28.5t-7 -29.5q0 -14 4 -44t4 -45 q0 -19 -5 -60t-3 -64q8 -8 18 -25q2 -16 -1 -42q-3 -31 -3 -38q-1 -20 0 -33q3 -17 3 -34q0 -20 4 -62q2 -17 -6 -28t-5 -21q0 -8 8.5 -16.5t8.5 -11.5q0 -10 -8 -21.5t-8 -23.5q9 -13 16 -42q-4 -11 -9 -41q-1 -7 -7 -19t-6 -23q0 -9 6 -31.5t3 -41.5q-6 -27 -6 -52 q0 -20 4.5 -53t5.5 -50q0 -3 -5 -44q-3 -28 5 -50q13 -44 5 -79q-9 -34 -37 -41q-15 -5 -32 22q-8 27 -31 80q-10 11 -25 36q-13 36 -42 106q-7 7 -18 24q-43 68 -58 104q-6 27 -23 78q-23 50 -48 88q-22 10 -46 40q-3 7 8.5 17.5t8.5 16.5q-3 7 -20 8t-20 6q-8 16 -12.5 48 t-9.5 46q-5 10 -30 37q-24 21 -24 37q-2 24 -12 24q-1 0 -6 -1.5t-6 -1.5q-6 0 -6 6q-7 41 -23 78q-14 24 -28 51q0 7 -5 21q-1 3 -7 3q-4 0 -5 -3q-2 -31 -5 -96q-2 -19 -4 -53q-1 -31 0 -93q0 -13 3 -59q1 -35 1 -58q-1 -7 -7.5 -22.5t-6.5 -25.5q0 -13 7 -39.5t7 -40.5 q-8 -31 -20 -98q0 -6 7.5 -14.5t8.5 -12.5q3 -23 11 -91q3 -25 24 -46t21 -22q12 -30 12 -31q0 -12 -19.5 -14t-32.5 -2q-20 0 -45 7t-59 6q-14 0 -45.5 -6.5t-46.5 -6.5q-33 0 -57 16q-6 4 -6 8q0 7 23 25t25 25q12 23 25 71q0 13 -5 36q-5 27 -5 35q-2 19 0 71 q12 71 12 74q0 27 -8 50q3 99 0 133q0 7 -4.5 20t-4.5 20t7.5 23.5t7.5 24.5q0 10 -7.5 29.5t-7.5 29.5q0 5 6.5 13t8.5 12q0 7 -3 18t-3 15q-6 88 -4 113q0 12 5 32.5t5 31.5q0 23 -5 69t-5 68q3 18 4 58q1 33 -9 94q-15 34 -38.5 49.5t-33.5 34.5q-27 61 -27 59 q0 12 16 12q11 0 32 -6q39 -11 63 -11q15 0 33 6t31 5z" />
<glyph unicode="o" horiz-adv-x="898" d="M292 571q4 14 19 26t19 22q18 24 31 63q13 31 45 70q15 17 25 14q32 -11 80 -108q13 -22 24 -43q10 -26 9 -48q-2 -14 -20 -37q-10 -8 -27 -29q-10 -27 -34 -69q-36 -48 -45 -45q-16 3 -32 31q-12 23 -25 44q-14 29 -49 81q-10 6 -20 28zM452 1371q26 -12 39 -49 q3 -13 1.5 -40t2.5 -38q8 -20 32 -46q27 -30 33 -43q11 -29 34 -82q26 -34 69 -111q6 -26 24 -77q18 -24 49 -76q10 -31 30 -94q20 -38 59 -115q15 -31 14 -34q-6 -19 -32 -44.5t-31 -38.5q-20 -36 -44 -109q0 -13 -4 -35q-26 -15 -60 -53q-7 -22 -12.5 -63t-13.5 -60 q-9 -3 -22 -10q-29 -27 -48 -83q-27 -79 -31 -89q-17 -13 -41 -45q-2 -8 7.5 -22t6.5 -22q-5 -12 -25.5 -26.5t-26.5 -23t-13 -52.5q-5 -31 -23 -30q-18 0 -22 33q-7 49 -9.5 54.5t-49.5 79.5q-12 14 -30 43q-8 28 -30 79q-7 2 -19 10q1 14 -26 78q-3 19 -15 51 q-14 13 -38 48q-11 43 -43 124q-22 23 -60 74q-53 80 -61 118q-3 11 1 24q10 26 11 33q4 16 16 36q21 26 25 32q14 33 41 94q10 11 23 33q7 37 32 109q17 18 46 59q11 28 33 82q19 48 60 138q7 15 24 42q10 22 33 74q10 18 36 52q26 21 48 11zM464 927q-15 18 -60 42 q-1 1 -5 -17t-21 -58q-22 -24 -61 -74q0 -15 -37 -74v-9q-12 -23 -32 -68q-19 -28 -36 -70q0 -23 12 -50q18 -31 20 -49q4 -38 36 -88q19 -18 52 -59q13 -42 46 -123q19 -16 42 -62q1 -5 4 -5q1 0 12 38q8 23 32 63q7 1 16 9q-3 16 0 41q5 12 26 19t27 25q-4 10 -6 31 q10 33 37 84q21 28 54 86q14 42 6 79q-16 4 -38 17q0 22 -10 63q-20 35 -69 124q-14 30 -47 85z" />
<glyph unicode="p" horiz-adv-x="888" d="M415 1266q30 5 92 14q20 0 77 -6q8 -1 33 -5q21 -3 34 -3q20 0 54 3q38 4 54 5q34 3 38 0q20 -10 20 -27q0 -10 -9 -27q-10 -24 -11 -30q-3 -7 3.5 -20.5t4.5 -20.5q-4 -15 -19 -38q-19 -30 -23 -37q-21 -48 -64 -134q-14 -11 -36 -39q-4 -20 -18 -60q-19 -30 -45 -55 t-37 -63q-17 -67 -19 -71q-7 -17 -25.5 -37.5t-24.5 -37.5q-2 -10 -24.5 -30t-26.5 -33q-13 -27 -32 -67q-8 -15 -11.5 -58.5t-15.5 -60.5q-3 -3 -6 -3q-13 0 -30 33q-4 11 -7 40q-1 10 -21 26t-38 56t-15 51q7 20 32 45.5t32 40t24 23.5t24 22q3 24 19 61q11 20 44 57 q28 24 47 87q15 52 14 82q0 10 15 22.5t18 18.5q12 30 38 92q3 3 10 11t7 11q-1 1 -3 1q-8 4 -24 -1q-18 -7 -24 -7q-23 0 -69 4t-69 4q-11 0 -32 -4t-30 -4t-23 4t-22 4q-5 0 -16 -4t-16 -4q-3 0 -11.5 5.5t-11.5 5.5t-3 -3q-5 -14 -1 -35l6 -34q1 -25 4 -69q1 -52 0 -62 q-2 -9 -9.5 -23.5t-7.5 -24.5q0 -8 7.5 -17t9.5 -15q3 -37 -6 -108q-10 -81 -10 -105q0 -49 -1 -156q-3 -40 8 -102q13 -74 13 -101q-4 -46 -8 -135q1 -50 12 -84q7 -6 17 -21q3 -9 6 -24q1 -2 20.5 -14t15.5 -19q-16 -23 -97 -6q-37 7 -97 -1q-25 -4 -96 5q-6 2 -13 9 t-6 11q6 15 33 44t31 47q12 39 9 110q0 8 -9 74q-7 51 -4 88q10 24 21 75q0 17 -8.5 48t-8.5 46q0 3 6.5 5t6.5 3q0 20 -6.5 60.5t-6.5 59.5q0 8 7 26.5t6 27.5q-1 5 -11 14.5t-12 16.5q0 24 6 61q7 50 8 62q10 134 9 174q0 10 -6.5 27.5t-6.5 26.5q0 4 6.5 10.5t6.5 10.5 q0 21 -13 45q-20 25 -54 76q-14 31 -14 45q0 12 7 19.5t57 3.5q4 -1 10.5 -7.5t10.5 -6.5q9 0 23 6.5t23 7.5q4 0 57 -11q48 -8 45 -8q26 8 80 19q11 0 32.5 -7t29.5 -7q17 -3 40 0z" />
<glyph unicode="q" horiz-adv-x="1044" d="M492 217q8 -8 20 -28t12 -23q2 -18 27 -34q40 -24 44 -28q7 -12 22 -32q17 -10 45 -35q3 -6 1.5 -21t2.5 -20q10 -12 36.5 -26t34.5 -21q22 -26 63 -73q24 -24 48 -47q14 -17 46 -41q22 -5 66 -21q6 -4 9 -13q4 -8 0 -11q-19 -9 -47 -14.5t-55 -11.5q-9 -1 -47 -18 q-30 -12 -49 -12q-31 0 -61 29q-25 24 -48 51q-9 16 -31 48q-9 5 -23 17q-14 17 -44 49q-26 25 -71 81q-7 22 -30 62q-23 11 -62 41q-27 24 -53 66q-7 20 -28 58q-3 4 -43 45q-30 32 -30 50q0 6 -4 20t-27 38q-31 34 -33 37q-11 19 -37 54q-12 13 -34 44q-5 26 -24 70 q-4 10 -21 19t-22 18q-44 81 -45 129q0 16 14 36q13 14 27 29q24 25 71 77q6 14 22 43q9 18 31 50q11 7 31 28q9 11 36 61q11 21 39 80q9 19 27 58q15 21 40 44q20 7 48 31q9 11 9.5 37.5t5.5 37.5q17 37 34 36q14 0 32 -14q13 -15 26 -27q38 -30 85 -105l39 -69 q24 -21 62 -69q10 -27 36 -81q11 -9 31 -31q8 -15 28 -44q13 -16 39 -45q48 -62 81 -123q8 -13 16.5 -27t8.5 -26q0 -24 -30 -72q-5 3 -14 0q-11 -31 -40 -90q-15 -15 -45 -47q-12 -21 -40 -58q-14 -17 -38 -49q-12 -33 -40 -94q-9 0 -19 -9q-5 -48 -27 -140q-1 -8 -9 -10 q-9 -5 -13 0q-6 5 -10 23t-12 25.5t-26.5 12.5t-25.5 10l-21 30q-9 9 -22 32q0 12 -3 30q-14 11 -32 41q0 6 12.5 9t14.5 4q10 10 31 28q14 2 33 13q-3 10 0 30q3 4 15 4t17 7.5t6 25t7.5 24t18 22t34.5 51.5q10 4 25 18q0 20 9 57q5 8 25 17.5t25 17.5q9 20 -5 44 q-11 5 -32 19q-12 23 -39 67q-14 15 -37 48q-3 18 -17 50q-18 8 -48 34q-4 5 -2.5 19.5t-2.5 21t-25 16.5t-21 24.5t-7 43.5q-15 18 -40 4q-9 -4 -13 -17q-7 -18 -10 -23q-34 -31 -71 -78q0 -10 -3 -30q-25 -22 -66 -75q-8 -10 -14 -38.5t-12.5 -37.5t-23 -14t-21.5 -12 q-5 -3 0 -10q4 -9 4 -12q-2 -28 4 -83q1 -5 12 -5t14 -4q10 -25 37 -72q18 -23 56 -70q25 -33 61 -103t60 -102q6 -18 29 -51zM493 845q13 -27 41 -79q14 -13 39 -46q15 -32 5 -61q-5 -13 -21 -27q-19 -18 -23 -27q-13 -21 -41 -67q-7 -15 -14 -29q-9 -19 -20 -18 q-16 0 -27 20q-17 30 -19 32q-7 8 -22 24q-7 15 -22 44q-18 13 -41 44q-3 23 24 65q22 30 66 85q11 15 34 44l11 15q20 -3 30 -19z" />
<glyph unicode="r" horiz-adv-x="968" d="M109 1280q17 0 35 5.5t34 7.5q2 0 8 -6t9 -7q15 -3 66 0q22 1 86 7q52 6 83 6q6 0 16.5 -6.5t15.5 -6.5q8 0 21 4t18 4h45q14 2 49 3q30 2 49 2q12 0 36.5 -2.5t34.5 -2.5q39 6 120 0q32 -8 30 -32q-1 -12 -10.5 -31t-12.5 -27q-1 -35 -7 -79q-20 -31 -54 -93 q-4 -16 -17 -44q-27 -34 -76 -103q-8 -12 -53 -99q-7 -10 -18 -34q-3 -20 -13 -57q-12 -7 -26 -28q-13 -43 -11 -50q13 -24 32 -70q10 -25 33 -58q20 -26 37 -51.5t33 -72.5q17 -51 29 -69.5t42 -55.5q21 -31 35 -66q2 -19 15 -59q12 -8 29 -25q3 -26 10 -61q10 -19 40 -69 q3 -9 13 -26q8 -3 21 -15q14 -27 44 -79q22 -26 56 -44q18 -13 64 -41q31 -16 31 -29q0 -10 -22 -8t-105 -6q-31 4 -88 1q-31 -10 -49 -10q-23 0 -33 18.5t-21 38.5q-8 10 -7 31.5t-3 29.5q-20 24 -57 73q-17 25 -26 52q0 16 -5 41q-8 19 -17 40.5t-36 53.5q-6 16 -21 43 q-20 11 -46 35q-5 10 -5 31t-3 29q-13 11 -33 40q-7 21 -26 62q-19 26 -45 64q-13 34 -53 118q-18 16 -49 54q-22 40 -19 61q2 6 16 17.5t18 13.5q7 12 13.5 37t12.5 35q20 22 52 71q10 34 36 98q18 15 44 52q1 23 13 64q6 9 23.5 20t21.5 20q20 30 20 42q0 26 -61 33 q-23 -6 -70 -8q-8 0 -23 8.5t-26 8.5q-19 1 -63 1q-1 0 -16.5 -7t-30.5 -4q-44 7 -39 7q-32 0 -32 -31q0 -10 6.5 -30t6.5 -30q2 -70 0 -101q0 -13 -6 -55q-4 -36 -2 -57q8 -16 17 -50q1 -16 -6 -45q-6 -33 -7 -46v-112q0 -11 -3 -51q-3 -33 -1 -51q0 -6 6 -17.5t6 -19.5 q-8 -10 -18 -34q0 -7 6.5 -19.5t7.5 -17.5v-43v-139q0 -4 -4 -12.5t-4 -14.5q0 -47 18 -88q6 -13 28 -41q27 -35 27 -43q0 -7 -12 -7q-15 0 -56 10q-15 -3 -42 -3q-84 18 -127 8q-38 -9 -41 -9q-16 0 -23 11q-4 7 9 20.5t14 17.5q6 16 21.5 31.5t19.5 22.5t7 30q0 -6 -4 67 q0 31 -4 89q3 20 0 57q-3 9 -3 16t5.5 23.5t5.5 33.5q2 10 -17 39q10 29 22 88q1 10 -6 30t-7 30q0 6 7 16.5t6 17.5q0 6 -11 11.5t-11 11.5q-1 14 9 42t8 42q0 8 -10.5 20t-10.5 20q-1 14 4 38q7 30 9 37q-2 13 0 41q0 4 5 12.5t3 13.5q-3 54 -21 156q-4 44 -10 87 q-4 28 -47 76q-13 12 -27 25.5t-14 23.5q0 14 13 20.5t64 1.5q5 -1 16 -6t16 -5z" />
<glyph unicode="s" horiz-adv-x="825" d="M611 1250q7 -27 30 -35q17 -8 30.5 -28.5t15 -44t32 -42.5t31.5 -42q2 -17 0 -17q-11 0 -57 6q-38 4 -65 4q-40 0 -71 -10q-61 -21 -77 -28q-35 -17 -67 -53q-10 -10 -44 -10q-21 0 -27 -7q-12 -15 -25 -32q-4 -6 -4 -15q0 -20 46 -65q54 -53 63 -74q8 -33 48 -108 q2 -1 6 -1t18.5 5t16.5 5q17 0 49 -3t48 -3q51 0 78 26q6 5 17 5q17 0 17 -22q0 -13 -5 -36t-5 -33q0 -15 12 -40.5t12 -42.5q0 -35 -18 -35q-9 0 -27 16q-10 9 -20 17q-17 10 -37 10q-45 0 -45 -40q0 -22 38 -64q47 -45 55 -69q3 -29 26 -83q9 -12 33 -39q15 -16 15 -25 q0 -4 -1 -8q-11 -21 -24.5 -26t-28.5 -10q-20 -5 -49 -27q-37 -25 -56 -34q-84 -41 -135 -91q-18 -17 -71 -27q-44 -7 -58 -29q-6 -10 -20 -11t-18 -4q-22 -14 -30 -59q-10 -49 -24 -64q-7 -7 -13 -7q-7 0 -15.5 18.5t-15.5 35.5q0 1 -16 27q-10 14 -10 27q0 8 4.5 22.5 t4.5 19.5q0 10 -42 40q-34 27 -37 30q-21 18 -27 40q-4 14 -38 16t-34 11q0 2 1 5q20 37 63 37q16 0 55.5 -7.5t59.5 -7.5q44 0 74 25q14 10 34.5 13t44 5.5t67 40.5t87.5 42q11 1 11 10t-17 34.5t-20 35.5q-10 4 -21 15q-1 2 1.5 7.5t2.5 8.5q0 7 -11 10t-21 25 q-10 27 -19.5 35t-29.5 55q-13 34 -51 31q-27 -8 -84 -21q-18 -3 -65 -20q-43 -16 -63 -16q-39 0 -39 27q0 6 14.5 31t10.5 46q-1 27 -11 84q-6 27 28 27q32 0 50 -13.5t87 -12.5q7 0 7 7q0 15 -18 29.5t-14.5 20.5t-0.5 11q-54 63 -67 79q-32 42 -57 95q-7 1 -17 11 q-2 10 -24 41q-17 26 -17 44q0 20 22 37q4 3 10 3q5 0 14.5 -4t14.5 -4q9 0 15 11q0 4 16 15.5t19 11.5q20 -6 38 6q29 15 69 51q34 30 68 47q21 10 58 12q30 3 49 22.5t68 37.5q35 13 45 46q4 14 4 66q2 40 22 34q28 -7 35 -44t13 -75z" />
<glyph unicode="t" horiz-adv-x="1223" d="M1117 1169q12 -31 31 -94q1 -10 0 -20q-2 -11 -9 -9q-20 4 -44 24q-28 21 -41 28q-23 10 -44 4q-20 -12 -58 -31q-33 -6 -98 -17q-4 -1 -17.5 -7.5t-22.5 -5.5q-7 0 -16.5 8.5t-14.5 8.5t-5.5 -8.5t-3.5 -8.5q-13 -3 -37 0q-27 5 -35 5q-19 0 -30 -9q-27 -23 -41 -108 q-2 -13 4 -35q10 -26 10 -36q-6 -37 -4 -107q7 -42 7 -46l-4.5 -4.5t-8.5 -34.5q-1 -17 9 -45q9 -34 11 -47l-6 -108l-8 -186q-6 -105 -6 -107q10 -13 20 -40q-6 -18 -10 -53q4 -39 23 -94l16 -12t16 -21q0 -4 -7.5 -10.5t-29.5 -3.5q-31 3 -37 3q-12 -3 -35.5 7.5 t-35.5 10.5q-14 0 -48 -10.5t-54 -7.5q-13 3 -8 35q17 67 37 199q1 46 -5 125q-5 90 -5 125q7 16 12 44q2 21 0 53q-2 40 -2 51v163q-2 19 -5 94q-1 16 2 47t3 45q0 36 -15 59q-4 8 -17 8q-10 0 -28 -8q-27 -13 -31 -15q-3 -7 -13 -17q-4 0 -12.5 4.5t-13.5 4.5 q-11 1 -58 -4q-31 0 -89 -9q-25 -13 -76 -35q-8 4 -21 0q1 -13 -4 -36q-50 -57 -61 -57q-26 0 -32 44q2 33 -1 93q-10 64 -10 76q0 42 10 49q6 5 17 7q7 0 21.5 -1.5t18 -1.5t9 -3t8.5 -1q3 1 4 9.5t7 8.5q16 -8 47 -14q14 1 33.5 13t29.5 14q11 -3 32 -4q33 12 103 31 q35 -4 109 0q17 3 45.5 18t39.5 17q39 13 75 19q22 -3 67 0q27 7 80 20q48 5 139 20q16 4 57 21q25 20 84 45q37 5 54 -8t21 -57q3 -33 6 -64z" />
<glyph unicode="u" horiz-adv-x="934" d="M233 652q7 -35 17 -111q-4 -25 -4 -76q1 -6 5.5 -17.5t2.5 -21.5q-1 -7 -8 -12.5t-9 -10.5q-3 -7 5 -18t8 -17q-7 -20 -8 -58q11 -39 45 -67q4 -4 17 -2q13 3 17 2q34 -23 102 -63q22 -1 63 -8q10 -3 22.5 -17l12.5 -14q12 -2 20 -2q10 0 21 2t16 2q14 0 37 -15 q14 -12 20 1q6 9 -3 34q-8 6 -17 23q-3 13 0 33q3 28 3 34q-1 31 0 96q7 22 14 63q3 47 -4 102q-3 22 6 51q7 19 1 47q-7 49 -7 57q-2 43 3 118q8 82 7 118q-6 37 -10 111q3 48 0 143q-10 66 -47 93q-8 5 -8 11q1 7 17 6q38 8 110 1q26 -9 63 -4q50 8 51 8q17 0 30 -8 q1 -2 1 -6q0 -7 -9 -32t-11 -33q-11 -10 -24 -30q-17 -68 -13 -108q0 -6 13 -11t14 -10q0 -20 -11 -53.5t-11 -50.5t8.5 -53.5t8.5 -53.5q0 -27 -11 -80t-11 -80q0 -6 8.5 -14t8.5 -12q-7 -8 -12 -25q1 -6 11 -9t11 -7q0 -4 -7 -9t-7 -8v-75v-115q4 -22 9 -63q1 -84 -5 -138 q-1 -14 -9.5 -44t-7.5 -45q0 -10 22 -54q4 -9 32 -43q23 -31 23 -42q0 -5 -1 -9q-6 -6 -70 -3.5t-89 -3.5q-13 -4 -30 0q-22 4 -29 4q-5 0 -31 -4q-18 -4 -30 0q-24 4 -112 38q-40 16 -111 54.5t-108 52.5q-18 6 -58 18q-28 22 -101 50q-21 0 -61 4q-24 3 -24 17q0 16 17 36 q4 3 28 23q16 14 17 27q9 49 8 122q-3 142 -3 122q1 186 0 227q0 17 -6 61q-3 39 -3 63q0 21 4.5 68t4.5 70q-6 12 -13 41q1 40 0 125q-1 18 -3.5 39t-14.5 29.5t-26 13.5q-20 10 -20 20q0 13 14 21t27 8q17 0 60.5 -18t64.5 -15q98 17 117 1q5 -5 5 -15q0 -15 -16 -57.5 t-18 -59.5q-5 -42 -12 -125q-2 -38 4 -92q0 -6 4 -14.5t4 -12.5q-8 -29 -17 -88q0 -17 7 -47.5t7 -42.5q0 -10 -9 -30.5t-9 -27.5zM456 494v2l-20 3q2 5 -3 11q-18 20 -54 62q-10 22 -38 63q-3 4 -19.5 5t-16.5 8q0 14 12.5 31.5t25 33.5t39.5 48q10 22 23 46t30 30.5 t27 6.5q25 0 17 -31q-7 -25 30 -67q11 -4 28 -20q6 -9 23 -21q10 -9 10 -20q0 -16 -13 -33q-9 -11 -17 -21q1 -9 -3 -26q-6 -4 -18 -15q-2 -9 -10 -26q-20 -37 -53 -70z" />
<glyph unicode="v" horiz-adv-x="1162" d="M108 1298q14 10 62 -4q35 -10 62 -10q21 0 51 9.5t47 11t32 2.5q22 1 26 -9q1 -2 1 -7q0 -10 -13 -25q-15 -20 -18 -26q-11 -20 -43 -38q-22 -13 -20 -37q2 -31 12 -107q7 -52 31 -75q17 -18 17 -44q2 -37 4 -45q19 -39 39 -101q3 -54 35 -100q10 -14 14.5 -39.5 t8.5 -49.5q-3 -14 4 -43q67 -135 80 -132q18 1 28 45q16 64 20 73q9 20 24.5 35t15.5 16q4 13 4 23q0 4 -1.5 11t-1.5 11q0 10 12 23q25 34 37 81q7 40 15 80q19 41 46 125q-6 17 0 48q22 26 25 48l6 60q4 23 4 30q0 4 -7 19t-15 48q-5 20 -20 24q-20 7 -25 11 q-31 43 -31 51q0 16 20 16q21 0 74.5 -11.5t60.5 -11.5q9 2 41 8t50 6q13 0 36.5 -5t37.5 -5q21 0 44 8t28 8q22 0 22 -14q0 -11 -30 -30q-34 -23 -39 -28q-29 -34 -42 -63q-10 -20 -12 -58q-1 -44 -7 -61q-4 -10 -20.5 -27t-20.5 -27q-7 -20 -12.5 -64t-13 -64t-52.5 -105 q-28 -56 -28 -104q0 -11 1 -24q3 -23 -24 -71q-34 -58 -36 -65q-1 -25 -8 -67q-12 -17 -30 -50q-26 -57 -37 -115q4 -10 4 -33q-14 -14 -34 -47q4 -15 4 -41q-19 -34 -48 -102q-3 -40 -23 -115q-28 -58 -51 -58q-5 0 -10 4q-28 21 -45 70q-11 39 -23 82q-4 13 0 42t0 42 t-19 32.5t-19 29.5q-6 32 -24 90q-10 14 -26 45q4 13 4 39q-2 10 -18 25.5t-21 23.5q-13 27 -23 88q-2 9 -7 84q-6 51 -17 81q-51 127 -59 148q-24 65 -26.5 115.5t-30.5 99t-55 97.5q-13 33 -35 79q-13 12 -37 45q-3 4 -24 26q-16 18 -16 27q0 21 26 21q2 0 38 -13 q25 -8 44 4z" />
<glyph unicode="w" horiz-adv-x="1578" d="M354 1310q0 -13 -24.5 -43t-26.5 -42q-8 -29 -5 -67q5 -14 13 -40q11 -44 26 -87q15 -49 37 -78q2 -4 2 0q0 -4 -7 -16t-5 -19q4 -15 20.5 -34.5t20.5 -28.5q21 -44 38 -121q22 -92 33 -123q16 -23 45 -68q12 -20 13 -39q-7 -24 -4 -66q13 -32 35 -32q5 0 9 3 q16 20 21 57q6 51 10 60q14 28 36 85q14 79 4 142q-3 18 -19 47q-18 32 -21 45q-4 27 -14 77q-6 24 -23 71q0 1 -38 67q-23 38 -23 72q0 16 -5 25t-24 20t-25 21q-3 5 4.5 13t14.5 9q22 5 62 2q48 -2 61 -2q10 0 32 6t32 6q9 0 17 -3q14 -7 23 -58q-6 -26 -6 -76 q3 -35 9 -72q8 -51 35 -51q13 0 27 31q9 23 19 48q24 44 37 84q1 7 0 44q-3 6 -8 20t-5 21t7 9q28 5 63 5q27 0 72 -4q54 -4 70 -5q29 -2 29 -10t-11 -16q-16 -10 -18 -14q-10 -33 -36 -95q-16 -16 -40 -52q-7 -32 -22 -95q-9 -10 -22 -35q-47 -127 -49 -208q0 -20 4 -45 q1 -3 4.5 -12t3.5 -15q0 -3 -5 -13t-3 -14q21 -38 62 -119q0 -3 2.5 -19.5t10.5 -16.5q24 -1 44 31q7 13 11.5 37t7.5 33q17 28 41 87q3 25 13 79q8 26 27 74q11 51 38 153q11 30 33 79q5 8 17 28q14 28 35 92q10 56 0 94q-7 6 -21 20q-3 3 -14 34q-7 4 -15 9q-11 8 -11 14 q0 14 33 14q17 0 47.5 -7t42 -8t34 -6t33.5 -3q23 6 71 13q87 7 108 0q3 0 3 -5q0 -8 -21 -25q-16 -4 -40 -19q-45 -44 -75 -98q-9 -13 -29 -76q-14 -57 -48 -168q-8 -11 -21 -31q-2 -19 -10 -54q-9 -17 -27 -54q-10 -20 -27 -61q-6 -17 -4 -27q5 -26 3 -37q-9 -15 -30 -53 q-13 -30 -22 -84q-1 -28 -8 -88q-2 -3 -58 -147q-13 -33 -42 -104q-24 -47 -61 -149q-1 -37 -17 -104q-20 -38 -45 -38q-19 0 -19 27q0 8 3.5 26t3.5 26q0 19 -18 46q-24 31 -28 42q-6 44 -26 131q-14 13 -37 43q-4 24 -17 66q-6 10 -13 27q-7 32 -14 63q-11 44 -17 45 q-7 3 -10 -15q-3 -25 -4 -25q-4 -28 -17 -81q-12 -46 -27.5 -82.5t-29.5 -71.5q-20 -47 -21 -71q1 -16 -4.5 -43.5t-34.5 -87.5q-7 -24 -15 -47q-12 -28 -29 -33q-13 -4 -20 20q-5 19 -10 39q-14 46 -41 142q-7 20 -21 62l-37 98q-10 50 -36 151q-11 18 -31 58q-7 19 -23 84 q0 13 -4 37q-13 23 -34 69q-10 27 -33 81q-12 19 -29 57q-3 10 3.5 31.5t4.5 31.5q-11 24 -31 71q-3 14 -9 40q-4 9 -64 152q-25 65 -38 90q-23 46 -50 89q-3 5 -30 22q-18 13 -18 22q0 15 24 15q9 0 13 -4q20 -14 55 -19q42 -4 57 -9q7 -3 16 -3q10 0 32 6t29 6 q14 0 50.5 8t50.5 8q27 0 27 -21z" />
<glyph unicode="x" horiz-adv-x="1009" d="M122 1297q39 -1 71 0q12 0 36 5.5t35 5.5q37 0 37 -29q0 -12 -4 -31t-4 -28q-5 -1 -6 0q3 -31 18 -89q10 -22 41.5 -64.5t42.5 -67.5q14 -44 49 -125q22 -40 39 -40q10 0 16 14q10 24 11 26q15 14 36 45q6 23 23 70q10 12 31 39q3 5 21 50q11 29 37 85q14 23 44 73 q7 7 3 24q-9 26 -9 28q0 16 40 16q17 0 47 -5t43 -5q12 0 22 3q42 16 70 16q24 0 24 -13q0 -9 -14 -21q-9 -10 -19.5 -41.5t-18.5 -38.5q-19 -9 -46 -31q-6 -24 -23 -67q-10 -17 -29 -50q-5 -11 -15 -31q-5 3 -12 0q1 -11 -6 -34q-24 -24 -54 -75q1 -19 -4 -54 q-3 -15 -30 -50q-17 -14 -41 -48q-16 -50 4 -54q16 -3 30 -3q24 0 65 10q58 12 66.5 13.5t28.5 13t30 11.5q23 0 23 -38q0 -10 -3.5 -30.5t-3.5 -29.5q0 -14 -6.5 -42.5t-6.5 -42.5q0 -10 4 -24.5t4 -19.5q0 -23 -25 -17q-17 8 -53 21q-31 -3 -91 0q-8 0 -29.5 10t-32.5 10 q-17 0 -17 -9q0 -4 10 -18t11 -19q2 -22 16 -59q1 -3 12 -1.5t13 -1.5q2 -6 -4.5 -16.5t-3.5 -14.5q3 -6 18.5 -5.5t18.5 -4.5q5 -14 5 -41q-1 -32 2 -43q6 -21 27 -58q8 -16 58 -86q13 -15 36 -49q5 -27 27 -78q7 -13 28 -29.5t28 -24.5q25 -32 25 -47q0 -13 -22 -13 q-7 0 -24 3t-23 3q-49 2 -88 14q-18 4 -49 -10q-22 -9 -37 -9q-27 0 -27 30q0 6 1 14q0 -1 -4 42q1 17 -4 49q-8 13 -30 36t-29 40q-1 4 7.5 14t5.5 15q-4 13 -21 34.5t-23 28.5q-24 41 -44 89q-4 19 -18 54q-8 16 -27 44q-12 13 -20 5q-15 -13 -33 -57q-10 -36 -34 -104 q-19 -31 -50 -94q-17 -38 -52 -115q-12 -18 -13 -47q-2 -4 7.5 -16.5t9.5 -18.5q0 -16 -38 -21q-32 1 -91 -3q-70 -14 -108 -14q-43 0 -49 11q-2 7 5 21q7 10 12 22q0 1 37 44l44 54q9 7 22 25q-3 12 -5 33q9 23 37 62q15 13 39 44q3 3 22.5 54.5t62.5 154.5q13 16 35 50 q9 16 0 17q-24 4 -96 0q-16 -1 -55.5 -16t-55.5 -15q-27 0 -27 34q0 14 9.5 51t7.5 53q-1 8 -8.5 33t-4.5 38q3 35 22 35q15 0 40.5 -17t38.5 -18q87 -12 115 8q36 26 10 81q-4 10 -28 16.5t-30 13.5q-4 6 1 18.5t3 18.5q-7 15 -48 79q-10 8 -23 26q-11 41 -44 116 q-15 23 -44 67q-4 19 -24 40q-10 1 -45.5 49t-28.5 55q9 8 30 8h31q10 0 28.5 -2t25.5 -2z" />
<glyph unicode="y" horiz-adv-x="1187" d="M286 1304q17 3 44 -4q22 -26 45 -95q-4 -9 -4 -26q20 -21 61 -67q14 -21 45 -61q12 -8 32 -28q11 -19 21 -39q14 -25 31 -25q13 0 44 25q24 17 41 47q6 23 26 64q8 3 28 13q56 48 56 95q0 9 -1.5 26t-1.5 24q0 28 12.5 41.5t27.5 13.5q10 0 39 -11q13 -6 26 -1q19 5 24 5 q12 0 30.5 -7.5t32.5 -7.5q15 0 42 10t42 8q2 0 29 2t40 0q19 -3 19 -16q0 -20 -43 -48q-31 -12 -81 -44q-21 -25 -88 -81q-23 -15 -33 -49q-7 -25 -35 -37q-17 -5 -32 -35q-15 -41 -21 -48q-17 -12 -45 -40q-6 -10 -9.5 -35.5t-11.5 -35t-47 -34.5q-36 -22 -36 -34 q0 -5 9 -16t11 -19q4 -28 0 -66q-2 -10 -9.5 -33.5t-7.5 -37.5q0 -16 10.5 -46.5t10.5 -46.5q0 -21 -7 -55q-8 -41 -10 -57q-1 -8 1.5 -25.5t2.5 -24.5v-133q0 13 -2 -57q0 -6 -6.5 -19.5t-3.5 -20.5q1 -7 22.5 -44t21.5 -50q-2 -24 23 -44.5t25 -24.5t-7 -12 q-20 -11 -44 -11q-19 0 -53.5 12t-50.5 12q-41 -8 -102 -17q-19 3 -47 4q-1 0 -10 -4t-14 -4q-13 0 -17 20q-5 23 21 34q30 14 33 21q7 13 17 39q7 19 21 64q16 53 16 55q0 1 -12 85q-1 9 4 26.5t5 24.5q0 3 -4.5 9.5t-4.5 10.5q0 3 6 24.5t6 26.5q0 27 -6 45.5t-6 25.5 q0 15 11.5 44.5t11.5 39.5q0 13 -3 34q-3 26 -3 33q-1 13 -9.5 26.5t-7.5 28.5q0 5 7.5 15.5t7.5 16.5q-2 8 -14.5 23t-12.5 25q-2 11 8.5 32.5t8.5 34.5q-6 14 -26 28q-27 17 -33 24q-12 24 -44 68q-17 12 -44 39q-4 18 -18 54q-7 8 -27 20t-26 20q-13 28 -44 79 q-15 10 -45 33q-7 5 -22 17q-27 8 -72 35q-24 20 -48 39q-33 25 -33 37q0 10 28 10q13 0 43 -3q27 -3 37 -2q3 0 14.5 5t16.5 4q3 -2 10 -9.5t14 -7.5q6 1 14 10.5t15 10.5q13 3 94 0z" />
<glyph unicode="z" horiz-adv-x="917" d="M131 1287q12 -3 39 -14q29 -20 90 -53q23 -11 88 -27q23 -3 67 -13q35 -18 111 -49q29 -7 88 -22q17 -4 49 -14q26 -18 80 -38h43q25 -4 25 -26q0 -11 -15 -30q-23 -29 -25 -31q-11 -13 -32 -38q-12 -21 -34 -60q-15 -17 -49.5 -48t-46.5 -50q-21 -35 -4 -48 q20 -11 88 -4q12 1 41.5 14.5t45.5 13.5q27 0 27 -16q0 -7 -8 -21t-6 -21q0 -13 -6.5 -35t-6.5 -32q6 -11 8 -37q-2 -20 -7 -43q-4 -25 -14 -36q-4 -5 -18.5 6.5t-18.5 11.5q-3 0 -8.5 -5t-9.5 -4q-19 10 -57 26q-16 -3 -50 -4q-17 5 -52 14q-79 6 -86 3q-15 -6 -39 -39 q-6 -19 -22 -58q-15 -15 -44 -49q-32 -40 -45 -60q-22 -36 -26 -70q-1 -8 7 -10q6 0 21.5 2.5t21.5 2.5q11 0 25.5 -9.5t21.5 -10.5q21 -3 64 -13q11 -9 28 -20q20 -1 60 -9q7 -1 128 -48q24 -10 59 2q3 0 49 24q34 17 64 17q7 1 7 -4t-13.5 -28.5t-13.5 -31.5 q3 -29 -13 -74q-7 -4 -20 -18q-4 -6 -4 -18q0 -2 3 -25q1 -17 -2 -27q-18 -47 -30 -47q-14 1 -30.5 26t-24.5 29q-33 19 -94 29q-27 4 -52 11q-12 4 -47 30q-29 23 -61 23q-74 1 -158 28q-37 10 -107 37q-14 9 -45 26q-11 4 -64 17q-40 8 -61 22q-6 5 -6 13q0 13 14 37 q20 17 54 54q20 30 63 88q24 20 67 67q15 20 31 61q7 17 0 20q-18 9 -50 4q-5 -1 -33 -19t-82 -48q-24 -11 -25 9q-3 23 5.5 67.5t6.5 66.5q0 7 -10.5 19t-10.5 20q0 26 -1 51q3 39 22 39q10 0 33 -15t30 -16q18 -8 58 -15q155 -2 203 9q10 3 19 21q10 23 13 27q8 7 25 24 q23 30 67 93q3 4 20.5 16t17.5 19q0 16 -42 40q-29 17 -59 31q-12 12 -42 27q-36 3 -107 14q-23 5 -52 19q-43 21 -50 24q-58 24 -67 24q-15 -3 -34 -23q-23 -25 -30 -29q-1 -2 -17 -16q-10 -10 -20 -10q-21 0 -21 19q0 9 10.5 30t12.5 29q14 47 32 147q-5 15 -4 44 q10 17 38 12q15 -7 42 -21z" />
<glyph unicode="{" horiz-adv-x="614" d="M530 1377q7 -19 4 -50l-4 -48v-96q0 -5 -13 -15q-47 -37 -136 -113q-22 -15 -57 -55q-2 -3 8 -5.5t10 -7.5q3 -18 0 -47q-4 -39 -4 -46q-1 -46 0 -94q0 -6 7 -57q3 -34 -3 -55q-2 -13 -27 -33.5t-28 -35.5q-1 -7 15 -13.5t19 -11.5q4 -14 11 -108v-64q0 -4 3 -17t3 -20 q0 -11 -7 -46q-4 -27 -1 -45q1 -16 25 -53q19 -28 34 -41q23 -10 64 -40q19 -22 56 -71q10 -4 21 -17q10 -81 0 -146q-2 -14 -11 -28.5t-19 -9.5q-21 11 -44 45q-31 43 -41 53q-37 28 -107 86q-24 22 -72 64q-19 9 -47 33q-9 13 -10 61q0 10 2 27t2 24q3 121 0 168 q0 20 -1 27q-3 17 -12 26t-36 21q-30 13 -39 20q-28 20 -54 37q-31 24 -38 49q-3 12 21 16q37 7 40 8q18 10 85 47q12 3 21 13v104q3 40 9 119v26q1 37 3 71q3 44 14 71q6 11 30 19t30 13q11 23 39 60q20 11 60 38q30 23 51 45q10 14 33 41q34 34 56 47.5t29 13.5q4 0 6 -4z " />
<glyph unicode="|" horiz-adv-x="336" d="M85 1311q23 2 40 -4q21 -13 70 -33q7 -1 24.5 4.5t23.5 5.5q7 0 11 -5q9 -15 0 -87q-12 -34 -24 -104q-1 -18 9.5 -51.5t9.5 -53.5q-2 -11 -16 -32.5t-16 -31.5q-1 -13 7 -27t9 -21q-1 -13 -3 -40q3 -38 7 -118q2 -41 -18 -166q-2 -10 -3 -30v-40q1 -25 1 -35 q0 -9 -2 -33t0 -35q0 -5 5.5 -16t2.5 -17q-10 -4 -21 -14q0 -22 10 -56t11 -51q0 -15 -8 -46t-8 -45q-1 -24 6 -67.5t7 -64.5q0 -62 -27 -62q-7 0 -22 2.5t-22 1.5q-77 -4 -86 -2q-63 16 -63 50q0 13 9 41.5t11 41.5q-2 -15 -4 96q-2 37 -2 39q10 29 22 88q0 10 -19 126 q-1 3 -6 23q-4 11 -2 20q14 38 34 110q-3 23 -5 71q0 8 5 22t5 21q-8 23 -17 73q0 12 13 105q6 20 11 61q-2 27 -5 85q7 10 14 30q1 17 -4 41q-6 33 -6 43q-1 22 -4 120q-2 15 -5 30q-2 20 5 33q3 4 35 4z" />
<glyph unicode="}" horiz-adv-x="613" d="M71 1352q27 -32 78 -92q26 -23 73 -55q54 -39 72 -54q51 -42 64 -118q3 -14 1 -36q-2 -17 -7 -54q-1 -13 2 -34q3 -27 3 -34q-3 -13 0 -41q12 -50 17 -61q11 -33 28 -56.5t87 -65.5q5 -5 31 -6q18 -2 20 -11q1 -12 -15 -22.5t-32 -19.5q-10 -8 -32.5 -18.5t-32.5 -18.5 q-23 -17 -47 -42q-12 -12 -24 -39q-9 -39 -5 -113q5 -24 12 -74q3 -65 -5 -84q-2 -8 -14.5 -14.5t-22.5 -10.5q-22 -15 -66 -46q-60 -48 -91 -92q-4 -7 -16 -20q-24 -29 -48 -56q-31 -31 -58 -46q-7 -5 -18 5t-12 22q-13 99 4 174q3 13 18 23t30 18t44 26q5 11 16 30 q14 7 43 24q15 10 31.5 18.5t19.5 19.5q4 17 4 40q0 21 -6 56q-7 44 -8 55q0 6 6.5 10t6.5 8q0 2 -6.5 7.5t-6.5 8.5q0 44 14 129q1 6 21 13q16 9 15 17q-2 13 -26 31.5t-28.5 30.5t-4.5 109q0 18 6 115q4 71 -1 115q0 10 -15 18q-21 13 -22 14q-43 40 -134 113q-8 1 -17 8 q-10 36 -8 91q0 34 11 98q6 13 27 9q7 -3 24 -22z" />
<glyph unicode="~" horiz-adv-x="875" d="M355 871q24 -20 70 -63q3 -15 13 -44q36 -44 54 -41q18 4 38 28q14 19 28 39q27 27 71 81q2 18 19 45q18 9 44 -14q8 -7 14.5 -25t12.5 -23q24 -13 67 -46q18 -22 8 -44q-3 -8 -44 -41q-18 -10 -54 -34q-16 -17 -49 -52.5t-52 -49.5q-17 -9 -49 -32q-5 -17 -22 -44 q-28 -25 -41 -25q-16 0 -30 30q-17 42 -20 44q-15 20 -57 51q-49 34 -62 45q-1 3 -2.5 12.5t-6.5 7.5q-8 -3 -49 -35q-16 -15 -20 -23q-3 -16 -14 -40q-20 -13 -54 -45q-5 -6 -10 -33q-5 -21 -17 -26q-10 -2 -21.5 11.5t-21.5 25.5q-17 19 -45 57q-22 19 -50 63q-3 14 25 35 q22 7 56 27q15 23 48 67q36 40 63 61q18 7 48 27q7 7 21 38q13 27 29 30q14 3 32 -15z" />
<glyph unicode="&#xa1;" horiz-adv-x="485" d="M188 -91q-29 41 -91 112q-34 30 -63 49q-16 -3 -30 2q-1 25 24 61q16 6 40 26q2 1 12 44q4 11 8 36q-1 27 0 81q6 24 13 73q0 27 4 80q14 43 34 126q2 18 -6 50.5t-5 49.5q1 14 17.5 41t19.5 41q1 12 -12 53q-4 8 15 143q1 23 15 64q14 19 43 9q11 -4 11 -13 q0 -7 -5.5 -15.5l-5.5 -8.5q11 -37 28 -112q-3 -16 -4 -47q6 -23 16 -68q0 -23 4 -67q0 -2 4 -0.5t6 0.5q6 -24 3 -56q0 -4 -3.5 -13t-3.5 -14q0 -15 3.5 -43t3.5 -40q-3 -16 -3 -44q10 -6 23 -25q0 -2 -8 -6.5t-8 -8.5q-1 -3 4.5 -9.5t6.5 -9.5q0 -24 5 -68q5 -54 15 -115 q2 -37 20 -108q6 -11 26 -26t25 -21q24 -27 22 -35q-5 -10 -22.5 -21t-21.5 -16q1 -5 0 -12q-12 -1 -32 -11q0 -9 -10 -28q-11 -12 -32 -36q-13 -20 -42 -57q-14 -20 -31 -18q-11 0 -19 11.5t-13 19.5zM161 1117q-8 14 -49 39q-24 13 -71 39q-3 1 -25 3q-16 1 -15 9 q3 23 49 67q25 17 74 56q2 17 15 35q26 9 60 -7q20 -10 55 -48q6 -13 26 -36q17 -13 55 -22q12 -3 24.5 -6.5t12.5 -13.5t-14 -29q-6 -8 -26.5 -14t-26 -11.5t-18.5 -21.5q-21 -18 -57 -55q-17 -26 -33 -26q-18 0 -36 42z" />
<glyph unicode="&#xa2;" horiz-adv-x="886" d="M550 1290q5 1 7 -9q1 -8 0 -15q-7 -20 -20 -63q-11 -64 -16 -130q-8 -125 -4 -188q10 -20 20 -61q4 -28 -3 -88.5t-4 -92.5q7 -7 16 -22q1 -26 -9 -100q0 -10 -7 -22q-64 -25 -119 -23q-13 0 -16 25q-4 36 0 164q0 4 8 148q0 4 1.5 18t1.5 23q0 35 -3.5 109t-3.5 110 q0 5 2 18t2 20q0 6 -4 27q-8 44 -28 128q-4 11 -2 21q5 10 13 7q74 -17 168 -4zM378 1030q0 -13 -4.5 -41.5t-2.5 -42.5q0 -4 4 -47q4 -28 -1 -45q-5 -13 -22 -26q-22 -14 -27 -20q-41 -49 -61 -87t-13 -60q8 -20 30 -46q30 -35 36 -44q8 -27 37 -70q48 -42 98 -48 q15 -3 40 9q31 12 42 14q26 -4 77 -3q24 4 65 37q12 14 37 41q33 30 53 30q17 0 14 -28.5t4 -69.5q10 -54 12 -68q2 -27 7 -56q2 -32 -5 -55q-2 -10 -38 -4q-4 0 -7.5 7t-6.5 5q-107 -9 -235 -32q-39 -12 -122 -31q-59 -15 -57 -15q-11 0 -19 5q-15 8 -25 29.5t-21 41.5 q-16 24 -44 74q-6 18 -26 52q-19 20 -59 65q-10 17 -30 53.5t-61 106.5q-13 15 -37 45q-10 16 -9 20q12 10 34 27.5t62 54.5q12 24 44 70q15 11 39.5 36.5t73.5 77.5q16 8 43 28q3 16 16 37q29 18 45 18q20 0 20 -45zM661 1050q46 -7 73 -19q15 -5 37 -1q29 7 34 7 q9 0 9 -11q0 -20 -34 -80q-6 -10 -6 -54q0 -25 2 -52q-2 -29 -13 -47q-7 -12 -16 -12q-8 0 -22 19q-19 21 -23 24q-12 16 -39 41q-17 2 -52 7q-16 3 -33.5 4.5t-20.5 12.5q-7 37 -7 68q0 59 24 96q7 11 23 11q10 0 33 -7t31 -7zM541 234q2 -8 -2.5 -26t-4.5 -28 q-1 -29 3 -64q9 -22 17 -69q0 -19 -13 -20q-15 -1 -45 3q-33 4 -44 4q-10 1 -35 -2.5t-35 -3.5q-20 0 -20 12q0 4 5 11q29 53 39 122q2 7 -3 23t-5 20q0 7 5 10q23 14 127 23q11 0 11 -15z" />
<glyph unicode="&#xa3;" horiz-adv-x="1076" d="M509 1273q34 -29 102 -81q15 -7 48 -24q20 -19 63 -49q30 -19 92 -62q9 -4 50 -21q31 -13 41 -30q4 -7 -13 -19q-23 -17 -25 -20q-6 -19 -20 -56q-7 -13 -20 -37q-4 -25 -12 -47q-7 -33 -24 -33q-18 0 -27.5 36.5t-50.5 63.5q-7 5 -41 49q-19 24 -81 50q-18 6 -45 31.5 t-42 32.5q-24 14 -42 8q-12 -2 -37 -32q-6 -12 -22 -33q-22 -23 -22 -58q0 -12 8 -27q12 -23 7 -66q-5 -29 -21 -28q-24 3 -76.5 -2t-74.5 -2q-19 3 -19 41v57q-3 10 -16 40q-11 24 -11 39q1 12 29 59q10 7 26 21q17 27 57 72q24 16 69 50q5 13 20 37q12 10 37 31 q9 17 33 33q20 3 60 -24zM680 764q-1 -17 3 -54q5 -41 5 -55q0 -41 -19 -41q-10 0 -50 17q-2 4 -8 7q-78 1 -232 8q-8 2 -29.5 7.5t-31.5 5.5q-101 0 -199 -13q-5 0 -13.5 -7.5t-16.5 -7.5q-68 8 -65 28q3 50 10 138q2 18 23 18q15 0 57 -13.5t58 -13.5q68 -4 70 -4 q56 0 72 4q8 2 77 -4q12 4 49 9q32 -5 86 -9q27 -1 39 0q9 2 47 14q30 10 47 7q23 -4 21 -41zM430 607q16 1 19 -22q1 -13 0 -41q-3 -27 -40 -81q-20 -13 -50 -45l-12 -27q-3 -5 -26 -22q-14 -14 -11 -24q3 -8 18 -10h26q35 -3 82 -35q4 -3 77 -27q17 -7 34.5 -15t33.5 -6 t34 -12q29 -18 33 -21q21 -3 57 -20q18 -20 73 -21q9 0 28 -4t29 -4q19 0 58 6t60 6q3 0 16.5 2.5t20.5 1.5q12 -3 13 -8q4 -15 -30 -66q-17 -14 -48 -47q-2 -11 -9 -30q-18 -24 -58 -72q-4 -10 -10 -21q-8 -16 -21 -13q-20 3 -31.5 25.5t-21.5 28.5q-75 35 -139 57 q-48 14 -146 45q-50 17 -105 41q-22 12 -66 32q-85 37 -172 58q-17 0 -51 7q-21 11 -61 37q-11 3 -25 13q-9 18 3 35t40 40.5t37 33.5q3 7 9 20q18 13 53 41q5 3 54 61q19 17 48 57q3 7 -2 22t-5 19q0 10 7 13q15 6 21 6q173 -13 156 -14z" />
<glyph unicode="&#xa4;" horiz-adv-x="940" d="M511 902q-18 24 -35 47q-26 31 -41 37q-9 1 -16 -10t-15 -22t-29 -31q-4 6 -24.5 -12.5t-30.5 -38.5q-5 -10 -40 -38q-6 -13 -26 -31q2 0 -13 9.5t-44 32.5q-8 12 -23 33t-48 61q-11 11 -18 6q-10 -16 -31 -46q-16 -5 -33 -27q0 -10 30 -44q7 -3 23 -10q4 -3 22.5 -22.5 t50.5 -56.5q9 -13 6 -20q-1 0 -26.5 -25.5l-55.5 -55.5q-19 -20 -54 -58q-14 -5 -31 -19q-9 -17 0 -34q11 -10 35 -31q11 -13 36 -36q9 -7 27.5 -25.5t54.5 -55.5q1 -1 6 -2.5t5 -2.5q-10 -43 -64 -86q-15 -8 -45 -29q-23 -27 -20 -45q1 -7 15.5 -14t17.5 -10q3 -11 12 -25 q20 -7 40 3q7 4 27 31q5 8 14 24q16 17 46 42.5t35 24.5q12 0 22.5 -11t20 -19.5t26.5 -26.5q8 -16 31 -43q8 -3 24 -12q0 -6 8 -14t28 -21q2 -2 11 -21q6 -11 13 -10q17 7 34.5 26.5t33.5 37.5q4 4 35 41q10 13 33 39q13 11 26.5 22.5t26.5 9.5q14 -2 27 -21q20 -30 21 -31 q23 -17 58 -49q3 -11 12.5 -26.5t18.5 -11.5q6 10 22 29q8 5 24 21q20 27 17 37q-3 8 -19 17q-18 8 -21 11q-45 36 -67 74q-18 30 -17 44l22 16q12 13 41 38q4 2 11 6q9 14 30 40q26 18 63 59q4 10 -16 29q-14 7 -41 24q-19 17 -41 47q-8 14 -29 44q-1 4 -15 12 q-12 3 -25 15q-1 11 17 44q13 24 32 44q14 10 38 28q13 9 26.5 19t13.5 21q0 17 -37 47q-24 20 -44 15q-7 -1 -13.5 -11t-13.5 -20q-23 -27 -68 -71q-36 -21 -49 -18q-10 3 -15 12v0q0 2 -5 8q-9 17 -32 38zM557 685q40 -32 111 -100q24 -30 21 -47q-3 -10 -17 -20 q-23 -17 -24 -18q-53 -51 -112 -118q-13 -17 -42 -47q-11 -17 -44 -40q-15 -2 -55 23q-3 2 -31 30q-19 26 -63 68q-14 9 -41 31q1 3 0 8q-18 17 -54 52q-14 9 -30 31q-3 17 19 42q15 14 49 42q5 6 16 19q3 -2 6 0q2 7 14 21q14 7 40 28q5 12 21 32q18 15 57 44q4 14 20 31 q11 17 21 17q17 0 31 -30q4 -6 14 -18q26 -29 73 -81z" />
<glyph unicode="&#xa5;" horiz-adv-x="969" d="M269 1154.5q1 -20.5 8 -29.5q10 2 20 -7q0 -31 24 -76t27 -72q0 -3 5 -8.5t5 -12.5q0 -3 -3 -11t-3 -12q0 -11 23 -30.5t24.5 -39t8.5 -28.5q3 -4 18 -44q12 -25 30 -24q4 1 10 11t8 13q13 10 19 28.5t11 38.5q20 47 19 77q-3 54 41 86q17 10 18 16q10 23 15 31 q24 44 27 80q5 69 10 85q14 44 49 45q53 3 77 -8q6 -3 14 -3q10 0 33.5 10t34.5 10q32 0 49 -28q8 -13 8 -20q0 -9 -18.5 -21.5t-26.5 -30.5q-23 -52 -78 -88q-7 -4 -7 -10q0 -2 2 -8.5t2 -10.5q0 -13 -14.5 -25t-15.5 -29t-4 -39q-2 -14 -12 -38q-2 -4 -20 -19 q-12 -11 -12 -22q4 -19 -14.5 -36.5t-18.5 -22.5q0 -24 33 -24q17 0 50 14.5t48 14.5q35 0 35 -37q0 -13 -5 -34q-10 -29 -13 -40q-3 -21 14 -73q1 -5 1 -10q0 -12 -18 -12q-11 0 -38 8q-8 2 -24 10.5t-25 8.5q-20 -3 -51 1q-37 4 -50 4q-11 0 -22 -1q-17 -3 -17 -34 q0 -21 10 -30q21 -17 56 -17l93 14q21 7 59 20q15 2 15 -20q0 -24 11 -32.5t11 -19.5q0 -5 -7 -19.5t-8 -27.5q-3 -12 2 -31.5t5 -25.5q0 -21 -26 -21q-7 0 -16 3.5t-31 11.5q-20 0 -70 10t-75 10q-42 0 -68 -20q-18 -17 -18 -52q0 -36 18 -100q2 -5 -2.5 -13.5t-4.5 -13.5 q-13 -98 -13 -113q0 -34 9 -57q3 -7 7 -33q1 -10 20 -24q10 -9 11 -28q5 -30 5 -35q5 -14 -19 -18q-3 0 -41 -1q-23 0 -64 8.5t-67 6.5q-7 0 -30 -4q-14 -4 -24 0q-7 4 -7 10t9.5 23t9.5 24q4 21 11 71q3 8 11.5 28.5t8.5 32.5q0 3 -7 21q-5 7 -2.5 24t-6.5 32q-1 5 -1 11 q0 8 8.5 31t5.5 33q-3 8 -13 72q6 20 4 60q-5 20 -29 20q-8 0 -17 -7t-18 -9q-14 2 -46 -4q-13 -7 -40 -8t-51 -1q-12 -1 -29 -8t-21 -7q-9 0 -10 11q-14 88 -14 117q0 49 17 86q3 5 7 5t17.5 -12.5t23.5 -13.5q24 -3 58 -3h46q37 -1 62 -4q9 -1 12 14q1 19 -8 23t-17 16 t-16 12t-23 -5q-4 -3 -15 2.5t-14 5.5q-4 -1 -5 -1q-10 -7 -27 -3t-33 -2q-7 -2 -20 -9.5t-20 -7.5t-20 6q-8 0 -20 9q3 51 0 162q-1 15 19 15q14 0 39 -12.5t39 -12.5q10 0 23.5 8.5t13.5 18.5q0 5 -7 17t-9 17q-5 25 -27 75q-2 7 -15 41q-7 20 -29 26q-10 4 -10 10 q0 1 4 8t4 13q0 9 -12 17q-25 17 -21 68q1 12 -7 14q-17 6 -23 16q-11 23 -21 45t-36 32q-10 4 -11 18q-3 14 6 20.5t32 5.5q29 -2 33 -2q-2 0 67 -4q34 7 101 10q19 -6 19 -25q0 -6 -2 -19.5t-2 -22.5q0 -14 5.5 -24.5t6.5 -31z" />
<glyph unicode="&#xa6;" horiz-adv-x="334" d="M48 734q13 -12 40 -11q44 3 48 3q25 -4 69 -11l25 -3q16 22 24 74q2 10 -3 21q-5 18 -5 21q-17 111 -17 127q8 29 20 89q0 4 -2 38q-4 98 -4 97q1 11 10.5 39.5t9.5 41.5q0 37 -64 51q-7 2 -85 -3q-7 -1 -23 2t-21 3q-26 0 -26 -63q0 -20 6.5 -64t4.5 -67q0 -12 -7 -43.5 t-7 -48.5t10 -51t10 -53q-10 -4 -21 -17q-2 -5 3 -15t5 -16q2 -11 0 -34q-1 -26 -1 -33.5t-3.5 -25.5t-3.5 -26q0 -14 8 -22zM224 526q-7 7 -44 12q-22 -2 -71 -5q-5 0 -19.5 5t-19.5 5h-26q-17 -3 -20 -13t-3 -24q0 -15 6.5 -44.5t6.5 -43.5q-1 -15 -3 -40q2 -7 9.5 -22 t6.5 -26q-2 -10 -16.5 -31.5t-16.5 -32.5q-1 -22 9.5 -55t10.5 -52q0 -17 -11 -51q-12 -37 -14 -51q-9 -74 0 -87q2 -4 11 -4q6 0 23.5 4t24.5 3q21 -11 68 -33q17 -4 42 -4q31 0 37 6q5 14 4 31q-3 16 -4 31l-6 120q-2 11 -7 42q-5 26 -3 43q6 8 16 28q-6 30 -8 88 q3 20 12 60q14 89 14 105q0 14 -9 36z" />
<glyph unicode="&#xa7;" horiz-adv-x="837" d="M490 1241.5q4 -11.5 13 -15.5q20 -16 70 -36q11 -1 19 -14q12 -17 19 -23.5t28 -20.5q26 -10 77 -45q9 -7 28 -7q17 -2 19 -9q6 -35 -16 -43q-10 -2 -13.5 -20.5t-8.5 -24.5q-15 -18 -30 -34q-16 -20 -13 -46q0 -9 -10 -14q-10 -4 -17 0q-40 29 -43 73q-1 20 -3 38 q-2 10 -18.5 20.5t-67.5 32.5q-10 2 -61 37q-2 11 -13 19q-47 3 -75 -38q-9 -11 -17 -14t-13 -11q-17 -10 -36 -40q-1 -6 -11 -6t-13 -1q-7 -6 -8 -20q-2 -14 5 -20q3 -2 14 -16q6 -5 23 -7q10 0 22 -21q11 -29 45 -56q31 -22 61 -42q4 -4 36 -16q24 -11 48 -40 q17 -22 35 -48q15 -3 43 -41q7 -19 51 -40q37 -18 37 -40q-1 -17 -22 -29.5t-43 -17.5q-13 0 -20 -8q-12 -11 -14 -14q-30 -17 -66 -50q-20 -16 -4 -30q13 -4 34 -17q7 -7 48 -31q30 -17 41.5 -37t31.5 -36q17 -11 24 -31q0 -4 12 -6t14 -12q2 -24 -12 -33 q-24 -13 -31 -25.5t-27 -18.5q-24 -9 -31 -15t-15 -15.5t-22 -9.5q-9 0 -11 -15t-18 -20q-11 -9 -40 -25t-59 -49q-4 -3 -30 -20q-13 -9 -20 -30q-14 -35 -42 -35q-7 0 -12 5q-8 9 -22.5 16t-17.5 23q-1 5 -12 5h-15q-5 2 -7 6q-4 26 -12.5 33t-32.5 13.5t-38.5 15.5 t-30.5 14.5t-24.5 14t-17 16t-17.5 15.5q-7 4 -28 2q-9 -2 -24.5 16.5t-34.5 14.5q-28 -6 -28 35q0 12 6 15q22 8 25 21q0 21 12 34t24.5 28t14.5 33q10 47 40 63q12 5 17 5q10 0 12 -28q2 -34 18 -48q10 -9 13 -25.5t6.5 -30t8.5 -25.5t23 -16q23 -4 41 -26q16 -17 40 -33 t39 -33q18 -23 34 -8q31 27 92 84q4 6 22.5 10.5t22.5 12.5q2 3 15 19q5 5 1 17q-6 5 -20 22q-30 50 -75 63q-17 4 -20.5 14t-23.5 9q-7 0 -13 18t-13 20q-13 3 -35 24q-7 13 -30 34q-11 11 -23.5 21t-29.5 11.5t-28 18.5q-17 24 -28 32q-39 22 -73 73q-7 0 -16 7q-1 5 -1 9 q0 20 36 34q4 3 29 4q17 0 22 13.5t31 36.5q4 3 18 0q12 -4 12 3q0 20 20.5 24t20.5 7t-8 13t-28.5 28.5t-58.5 51.5q-10 9 -21.5 20t-28.5 9q-4 0 -6 19q-1 8 -20 9.5t-19 15.5q0 8 -11 18.5t-11 17.5q0 10 14 23q8 2 49 54q11 7 42 37q23 29 52 37q14 2 24 18t26 19.5 t35.5 22t33.5 23.5q1 10 14 24q11 3 28.5 20t28.5 21.5t17 4.5q8 0 18 -10t19.5 -13.5t13.5 -15zM449 639q-7 4 -20.5 25t-23 26t-19.5 5q-14 0 -31 -23q-23 -29 -37 -36q-4 -2 -4 -5q0 -6 21 -17q29 -16 32.5 -18t7.5 -14t16 -15t21 -3q14 0 30 11q23 15 32 18.5t9 10.5 q0 20 -34 35z" />
<glyph unicode="&#xa8;" horiz-adv-x="917" d="M169 327q1 1 0 3l-21 1q3 7 -3 14q-20 23 -60 70q-13 25 -44 69q-4 6 -22.5 7.5t-18.5 9.5q0 26 36 67q25 29 49 60q14 24 27.5 51t35.5 36q18 5 28 5q30 0 19 -34q-2 -6 -2 -11q0 -23 37 -64q12 -6 31 -23q6 -10 26 -24q11 -9 11 -23q0 -15 -14 -35q-8 -13 -20 -26 q0 -10 -3 -27q-8 -6 -21 -17q-1 -11 -10 -31q-25 -44 -61 -78zM607 629q17 22 49 70q2 3 3 25q2 19 10 18q23 -2 73 -52q18 -28 59 -79q16 -4 37 -19q10 -27 -7 -64q-10 -19 -51 -59q-14 -7 -38 -26q-15 -20 -26 -59q-3 -13 -4 -26q-5 -16 -17 -16q-10 0 -30 16 q-9 7 -15 28.5t-11 26.5q-10 7 -26 23t-56 48q-10 7 -20 12t-10 18q1 14 14 24l24.5 24.5t41.5 66.5z" />
<glyph unicode="&#xa9;" horiz-adv-x="987" d="M564 1242q9 -22 24.5 -32.5t30.5 -20.5q9 -7 32 -37q17 -25 22 -27l34 -3q20 -3 45 -51q7 -11 30 -24.5t28 -25t24 -11.5h4q20 0 21 -21q0 -17 26.5 -18.5t26.5 -14.5q-4 -20 -4 -65q4 -20 4 -44q0 -27 -8 -84.5t-8 -86.5q0 -24 3 -42q16 -81 9 -179q-4 -86 -4 -116 q1 -51 2 -29q-1 -16 -11 -16q-21 0 -26 -6q-7 -11 -19 -15q-25 -10 -50 -36q-34 -35 -48 -45q-23 -19 -46.5 -37.5t-35.5 -40.5t-52 -44.5t-51.5 -39t-44 -35.5t-45.5 -39q-4 -7 -15 -7q-32 0 -39 25q-4 19 -15.5 26.5t-23.5 15.5q-54 38 -151 123q-24 13 -71 50 q-14 21 -63 67q-5 3 -45 21q-18 9 -27 26q-14 39 0 62q4 6 4 9q0 5 -7.5 15t-9.5 16q-14 40 0 116q10 57 4 90q-7 54 9 102q1 3 -6 4.5t-7 4.5q4 31 0 96q-7 24 -7 51q0 47 20 91q20 41 99.5 81t102.5 90q4 10 17 15q20 10 28.5 16t46.5 38q11 10 20 30q3 9 26 7q7 -1 18 11 t24.5 15.5t23 27t23.5 26.5q20 6 41.5 -26t41 -32t25.5 -17zM531 1100q-22 7 -30 12q-14 10 -19 27q-3 12 -19 12q-23 0 -25 -12q-9 -34 -29 -39q-30 -12 -47 -33q-35 -44 -88 -61q-45 -16 -64 -46q-10 -17 -25.5 -28t-22.5 -24q-11 -22 -14 -51q-2 -40 -5 -52 q-7 -25 -7 -49q0 -27 11 -66t11 -54q-5 -83 -7 -257q2 -17 24 -30q31 -19 35 -24q14 -21 50 -61q23 -23 61 -37q36 -13 71 -58q7 -6 31 -26q15 -11 19 -31q1 -5 11 -5q13 0 16 5q24 48 62 61q17 7 30 20.5t19 16.5q22 14 58.5 53.5t60.5 53.5q18 15 77 44q7 3 7 14 q0 6 -6.5 26.5t-6.5 31.5q1 19 8.5 56t7.5 56q0 15 -3 26q-7 47 5 146q0 3 -6 4.5t-6 2.5q-6 20 7 46q10 17 10 38q0 19 -11 55t-12 55q0 11 -11 17q-17 7 -33 13q-10 4 -36 9q-12 5 -22 18q-22 18 -63 72q-6 10 -20 14q-25 9 -30 10q-9 6 -10 15t-14 14zM469 969 q55 -17 79 -17q20 0 38 -13.5t33 -27.5q12 -8 38 -8t42 -12q6 -6 21.5 -9t15.5 -8q0 -12 -37 -46.5t-40.5 -58t-20.5 -34.5t-19 -36q-1 -11 -14 -11q-25 0 -25 25q-6 16 -15 57q-2 11 -29 11q-19 2 -37.5 20.5t-49.5 18.5q-36 0 -65 -23q-3 -1 -8 -12t-9 -11q-16 0 -22 -11 q-7 -17 -10 -20q-10 -9 -10 -19q0 -1 7 -24q8 -17 -2 -32q-3 -6 -3 -12q0 -7 7 -22.5t7 -28.5q0 -8 -4.5 -26t-4.5 -28q0 -45 26 -65q20 -17 42 -35t40 -18q17 0 33.5 12t62.5 46q22 20 56 35q17 8 23 37q6 22 31 25q16 2 22.5 -10.5t11.5 -24.5q2 -13 25 -40q22 -16 17 -63 q-2 -12 6 -28t8 -19q0 -5 -14 -11q-32 -6 -84 -27q-17 -14 -50 -40q-6 -4 -30 -9t-37 -22q-28 -31 -56 -26h-27q-15 -1 -32 13q-32 24 -85 40q-7 7 -30 23q-23 8 -44 19.5t-31 25.5q-7 6 -20 30q-14 41 0 85q3 9 -7.5 24t-10.5 22q0 4 1 8q11 14 11 26q0 3 -2 11.5t-2 15.5 q0 6 2 13q5 19 -10.5 58.5t-11.5 60.5q3 11 3 55q-1 33 11 53t62 34q29 9 80 64q46 48 84 48q19 0 30 -10q20 -12 33 -18z" />
<glyph unicode="&#xaa;" horiz-adv-x="622" d="M260 1280q-7 -16 -7 -24q-2 -14 -2 -16l-15 -30q0 -18 -7 -52q-9 -14 -23 -43q-3 -20 -13 -62q-4 -10 -13 -32q-2 -14 -12 -42q-7 -10 -19 -27q-3 -16 -11 -47q-7 -7 -16 -23q0 -17 -5.5 -47.5t-15.5 -30.5q-7 0 -41 4q-15 3 -24 22q-10 14 -18 14q-5 0 -5 -10 q1 -21 -3 -57q-4 -11 0 -38q-6 -15 -3 -30q9 -2 20 9l14 14l29 14q4 0 7 -3q7 -9 -6 -46q-4 -5 -11 -19q3 -5 5 -15q-4 -5 -14.5 -20t-33.5 -48q-17 -8 -17 -11q0 -2 3 -2q28 -7 67 -5q2 0 27 4q17 3 25 -1q17 -9 34 -2q3 2 -3.5 7t-6.5 8.5t-4 8.5t-4 10q0 3 4 6.5t4 6.5 q-3 7 -4 20q3 23 14 51q7 20 22 48q5 5 17 2q20 -6 21 -6q13 -1 40 4q8 3 32 -1h16q14 1 33 -4q21 1 49 -6q5 -7 5 -23v-18q10 -19 21 -57q1 -6 -8 -21t-9 -22q0 -4 3 -7.5t15 -0.5q13 1 19 0q-3 1 27 1q-9 0 71 -3q14 0 14 8q0 5 -18 27q-15 12 -34 41q2 7 4 22l-22 46 l-7 14q9 11 20 7q6 -3 27 -21q19 -14 29 -13q8 0 3 40q-5 7 -8 13q-4 8 0 18q0 16 5 44q4 3 8 9q2 8 -10 10q-8 1 -14 -3q-10 -7 -35 -23q-33 -17 -47 -3q-7 7 -13 50q-3 7 -7 20q-4 8 -12 33q5 5 3 15q-3 3 -13 24q-7 16 -21 44q-1 10 -8 33q-5 6 -13 18q0 10 -4 29 q-5 7 -12 23q2 1 3 2q-8 13 -20.5 46t-30.5 91q-2 11 -9.5 33t-11.5 22q-5 0 -16 -21zM272 1023.5q4 7.5 8 4.5q6 -5 8 -18q3 -17 5 -20l15 -30l6 -30q6 -11 13 -35q1 -11 11 -34q4 -4 13 -16q14 -25 10 -30h-39q-29 -2 -25 -2q-7 1 -29 -8q-9 3 -24 3q-18 -12 -37 5 q-5 4 -2 14q4 13 4 15q-2 12 7 33q1 4 23 54q5 10 14 31q0 15 4 40q3 3 7 9.5t8 14z" />
<glyph unicode="&#xab;" horiz-adv-x="1161" d="M1003 1176q24 -15 68 -57q19 -28 7 -45q-11 -17 -40 -36q-21 -15 -43.5 -28.5t-62.5 -46.5q-13 -18 -40 -54q-38 -34 -112 -105q-16 -20 -48 -54q-22 -10 -59 -40q-12 -17 0 -34q5 -4 17 -3.5t15 -3.5q5 -10 18 -30q13 -7 36 -27q18 -27 56 -75q19 -11 49 -36 q38 -45 116 -129q24 -13 67 -40q31 -28 31 -45q0 -14 -29.5 -50.5t-64.5 -64.5q-11 -12 -23.5 -24.5t-25.5 -12.5q-20 0 -49 43q-19 31 -39 61q-39 39 -115 119q-13 17 -42 45q-22 15 -66 50q-13 23 -43 65q-18 12 -48 37q-10 13 -33 36q-6 4 -41 28q-26 16 -34 33 q-4 10 -4 23q0 59 41 98q25 17 74 57q24 34 79 93q27 13 71 44q9 10 19 32t18 31q23 17 71 48q9 6 21 20q6 16 19 44q7 7 29 20t29 24q3 4 12 40q5 24 18 23q23 -2 44 -29q36 -42 37 -44zM577 1212q8 -13 30 -40q34 -36 62 -61q2 -2 14 -6q9 -3 7 -7q-4 -11 -42.5 -45 t-66.5 -53q-16 -6 -41 -18q-29 -23 -61 -63q-14 -25 -50 -72q-16 -7 -44 -26q-27 -31 -80 -94q-1 -1 -21 -17q-14 -8 -10 -17q3 -14 23 -30q28 -21 30 -24q25 -25 76 -79q13 -13 39 -37q35 -44 106 -128q36 -40 59 -54q25 -4 71 -26q25 -21 8 -41q-13 -18 -42 -38 q-45 -27 -49.5 -31.5t-36.5 -41.5q-20 -24 -38 -25q-16 -3 -24.5 15.5t-16.5 36.5q-20 34 -67 97q-26 16 -71 50q-9 12 -28 35q-10 2 -26 9q-19 31 -63 89q-24 13 -65 44q-16 26 -50 71q-27 17 -71 58q-38 47 -31 72q4 18 29 36q18 15 38.5 32t60.5 55q7 11 24 33 q21 20 65 61q16 18 50 54q41 31 115 96q13 22 40 60q23 30 45 48q15 15 30.5 31t31.5 19q8 2 41 -28z" />
<glyph unicode="&#xac;" horiz-adv-x="981" d="M905 869q-9 -2 -17 -12q-2 -22 4 -53q7 -40 9 -51v-36v-92q-3 -17 -9 -50v-44q2 -25 -8 -38.5t-34 -18.5q-30 -5 -39 -9q-4 -10 -17 -22q-18 0 -54 -5q-7 -2 -22 -17.5t-28 -14.5q-17 2 -8 37q4 16 22.5 45.5t22.5 47.5q-1 22 0 66q6 29 13 86q2 25 4 52q2 33 -13 49 t-49 19q18 -1 -58 -1q-5 0 -11 -9.5t-11 -9.5q-12 -1 -48 8q-41 7 -54 7h-88q-163 2 -144 4q-25 -6 -79 -13q-1 0 -4 4.5t-5 4.5q-19 1 -58.5 -6t-56.5 -7q-28 0 -46.5 10.5t-18.5 36.5q0 14 11 62q10 44 44 71q8 7 22 6l24 -6h183q38 -5 119 -13q83 -2 154 0q50 5 149 9 q82 0 128 -4q20 -3 40 -5q21 -5 28 -23t3 -65z" />
<glyph unicode="&#xad;" d="M114 612q7 5 21 10q8 0 24.5 -8.5t25.5 -6.5q14 1 41 13t41 14q17 1 40 -5l40 -10l41 -7q3 9 15 19q57 7 121 0q10 -10 34 -19q3 -1 5 6.5t5 7.5q88 12 101 12q34 0 40 -12q16 -34 16 -120q0 -36 -6 -39.5t-19 -3.5q-12 0 -56 4q-40 6 -56 3q-10 -1 -28 2q-22 2 -29 2 q2 -1 0 -4q-8 6 -27 13q-42 4 -78 0q-21 -10 -65 -20q-6 0 -14.5 7t-15.5 9q-4 0 -12.5 -4.5t-13.5 -4.5t-17 4.5t-21 4.5q-8 -2 -23 -9t-24 -7q-15 0 -41 7t-40 9q-5 0 -14.5 -4.5t-15.5 -4.5q-8 0 -26.5 3.5t-25.5 5.5q-10 -6 -26 -5q-13 8 -20 39q-2 21 -8 64l-3 4 q6 14 13.5 32t20.5 21q14 4 38 -8q32 -14 42 -14z" />
<glyph unicode="&#xae;" horiz-adv-x="935" d="M548 1281q6 -14 22 -35q27 -17 78 -54q15 -13 68 -63q14 -17 47 -48q18 -4 45 -23q46 -62 51 -115q3 -24 3 -52q0 -33 -4 -91q-6 -64 -6 -93v-61q-1 -8 -2 -41q-2 -24 -2 -38q0 -29 9 -76q0 -4 5 -21q3 -11 2 -20q-7 -38 -37 -102q-16 -33 -33 -47.5t-54 -40.5 q-41 -37 -126 -108q-15 -7 -40 -28q-4 -9 -17 -26q-20 -21 -44 -39.5t-74 -44.5q-14 -3 -41 19q-22 21 -61 62q-20 10 -56 36q-27 25 -82 75q-31 21 -90 71q-14 18 -46 54q-5 4 -27 14q-19 9 -20 20q-7 38 -10 85q-2 34 0 87v87q0 11 5 31.5t5 30.5q-7 33 -13 101 q-2 13 2.5 34t4.5 33q0 15 -5 46.5t-5 47.5q0 11 2 23t48 60q17 17 51 50q20 24 65 65q13 6 37 20q30 20 64 54q3 7 14 20q22 13 64 41q7 7 24 40q15 27 32 27q21 2 78.5 -24t68.5 -43zM446 1196q-16 6 -24 0q-27 -23 -81 -71q-20 -14 -55 -44q-27 -17 -79 -53 q-21 -14 -42 -27q-27 -17 -36 -36q-5 -13 -5 -30q0 -16 7 -48.5t8 -49.5q2 -152 -4 -283q-1 -4 -5 -13.5t-4 -14.5q2 -50 13 -103q3 -14 14 -22q36 -30 71 -49q2 2 2 5q-2 5 -2 8q3 4 13 11q6 5 6 16v41q0 6 2 24.5t2 28.5q-1 11 -7 32.5t-6 35.5q0 13 6 38.5t7 35.5 q-1 -4 -4 35q-6 57 -6 66q0 5 3 13.5t3 13.5q4 95 4 150q0 13 -8.5 42t-8.5 42q0 9 4.5 18t25 10t38.5 1h73q13 1 38 4q81 5 98 4q2 0 3 -6.5t4 -6.5q17 9 47 17q3 0 15 -7t14 -8q24 0 48 -3t34 -34q3 -9 3 -16q0 -11 -30 -82q-23 -36 -61 -107q-10 -27 -31 -78 q-13 -10 -33 -37q-17 -38 -17 -54q0 -10 4 -17q19 -30 61 -65q61 -50 69.5 -59t21.5 -26q2 -2 13 -26q8 -14 17 -16q28 -1 48 37q5 7 0 22q-4 19 -4 22q-6 87 -4 111q4 9 8 27q0 70 -4 249q3 27 -4 79q-24 50 -60 80q-14 14 -50.5 31t-53.5 31q-25 32 -54 61q-32 39 -65 50z M459 901q-13 0 -33.5 -3.5t-27.5 -3.5q-27 0 -33 -13q-4 -10 0 -30q6 -21 6 -29q-2 -19 -5.5 -65.5t-3.5 -70.5q0 -44 9 -48q5 -4 11 8q7 19 9 22q10 4 21 14q1 10 6 30q8 12 24 39v13q11 5 27 19q10 21 20.5 43t10.5 39q0 36 -41 36zM418 513q-27 18 -37 18q-9 0 -9 -34 q0 -25 9 -72q10 -50 10 -73q4 -38 -5 -40q-11 -2 -25 -2q-17 0 -55 6t-55 6q-2 0 -2 -4t2 -6q16 -9 47 -31q33 -31 103 -92q29 -26 41 -24q11 3 55 41q40 33 60 58q35 39 34 53q0 10 -14 18q-20 12 -24 17q-2 12 -13 36q-4 -2 -12 0q-34 47 -110 125z" />
<glyph unicode="&#xaf;" horiz-adv-x="1351" d="M1060 1229q-14 5 -46 10q-15 0 -48 -7t-50 -7q-28 1 -82 13t-84 12q-31 2 -79 -4l-77 -10q-85 -7 -84 -7q-44 13 -105 27q-33 1 -65 -6.5t-52 -7.5q-21 0 -49 5q-13 3 -35 -7.5t-34 -10.5q-5 0 -10 7t-14 7q-27 1 -56 9t-35 8q-11 0 -21.5 -10t-22 -49t-11.5 -72 q0 -32 17 -38.5t33 -3.5q25 3 59 1q15 -1 36 6.5t34 7.5q20 0 44 -11q6 -1 0 -3q17 7 54 13q18 1 51.5 -4t50.5 -5q16 0 39.5 6t34.5 6q20 0 55.5 -11.5t55.5 -11.5q10 -1 29 6.5t29 9.5q9 0 26.5 -4.5t24.5 -4.5q13 0 38.5 4.5t38.5 4.5q17 -2 49 -9t49 -7q27 0 80.5 7 t78.5 9q10 0 30 -4.5t31 -4.5q19 0 54.5 3.5t50.5 5.5q20 -6 53 -6q16 0 40 16q7 11 8.5 45t5.5 43q-6 41 -7 42q-11 10 -19 12q-18 1 -35 1q-30 4 -80 -7q-59 -13 -79 -14z" />
<glyph unicode="&#xb0;" horiz-adv-x="484" d="M254 1240q13 0 33 -13.5t27 -14.5q50 -12 55 -41q2 -8 15.5 -29t13.5 -33q0 -2 3.5 -13.5t3.5 -14.5q-2 -8 3 -31q4 -20 -3 -40q-23 -60 -24 -62q-14 -33 -34 -53q-6 -6 -16 -14q-23 -16 -34 -22q-43 -22 -98 -22q-29 0 -56 5q-4 0 -24.5 11.5t-57.5 41.5q-6 13 -16 31 q-11 10 -28 40t-16 41v53q2 32 11 51.5t37 50.5t33 44q3 9 18 18.5t24 8.5q21 -3 43 7t30 10q9 0 29.5 -5t27.5 -5zM206 1163q-6 -1 -18 -1h-5q-15 0 -22 -3q-16 -3 -39 -30q-27 -28 -21 -45q1 -6 -5.5 -10t-6.5 -8.5v-10.5q8 -19 5 -25q-5 -2 -5 -4q0 -6 10 -19 q10 -17 12.5 -22l9.5 -19q17 -13 42 -36q9 -12 42 -19h8q11 2 33 7q10 4 35 18q13 13 28 43t8 44q-6 21 -4 24t2 10q0 18 -22.5 46.5t-35.5 31.5q-13 10 -35 26q-15 2 -16 2z" />
<glyph unicode="&#xb1;" horiz-adv-x="905" d="M580 1209q-3 -19 -39.5 -47t-34 -55t-17.5 -44q18 -10 18 -23q0 -10 -10.5 -29t-10.5 -29q0 -15 14 -26l-17 -11q11 -5 26 -34q14 -23 37 -22q11 24 31 24q13 0 41 -18q4 11 22.5 9.5t22.5 11.5q10 0 28 -14t28 -14q8 0 17 7l41 44q37 6 55 -23q5 -17 -12 -27 q-23 -14 -27 -22q5 -19 5 -42v-21q-1 -17 -1 -24q0 -36 17 -60q1 -4 1 -7q0 -7 -17 -25q-17 -2 -40.5 23.5t-42.5 21.5l-19 34q-16 -17 -40 -17q-5 0 -18.5 1.5t-19.5 1.5q-26 0 -38 -20q-36 17 -61 17q-16 0 -25 -6q0 -10 -1 -19.5t-10 -14.5q17 -61 17 -62q0 -22 -17 -33 l21 -41l-15 -10q3 -6 35 -55q23 -37 27 -63q-10 -17 -25 -17q-7 0 -24.5 5t-24.5 5q-10 0 -17 -4q-7 14 -18 14q4 0 -30 -9q-10 5 -21 5q-15 0 -40.5 -11.5t-36.5 -11.5q-21 0 -38 28q-6 15 8 26q20 20 20 21q17 -1 24 16q10 24 16 28q3 57 -6 158q11 6 11 16q0 5 -4 16.5 t-4 15.5t3 7q-6 5 -13 5t-17 -8t-14 -8q-6 0 -13 11q-3 0 -20 -8q-10 -4 -20 -2q-8 20 -27 20q-10 0 -31 -6.5t-31 -3.5q-16 5 -33.5 -8t-25.5 -13q-10 0 -21 11q-11 -11 -21 -24q-14 -14 -30 -10q-27 26 -21 44q31 19 31 56q0 11 -5 32.5t-5 30t-9 22t-9 23.5q0 5 2 10 q6 14 25 17q14 1 26.5 -4t32 -29t30.5 -24q13 0 26 17q42 -23 75 -23q27 0 50 17q10 3 26 -5.5t22 -8.5q11 0 20 14q-2 12 -18 27.5t-16 25.5q0 7 5 15q34 3 34 37q0 12 -4 36.5t-4 34.5q0 9 3 16q4 20 -32 54.5t-36 46.5q0 17 49 23q5 -9 18.5 -14.5t17.5 -12.5 q18 17 48 17q12 0 35 -3.5t35 -3.5q35 0 55 28q33 3 46 -17zM168 325q5 6 21 10q7 0 24 -7t26 -7q14 1 41 13.5t41 12.5q17 1 40 -5q18 -4 40 -10l41 -7q3 9 14 19q57 7 121 0q11 -9 34 -19q3 0 5.5 7t5.5 7q88 12 101 12q31 0 38 -12q17 -34 17 -120q0 -36 -6 -39.5 t-20 -3.5q-12 0 -57 6q-39 5 -53 4q-11 -3 -30 0q-20 3 -27 3v-3q-8 4 -27 11q-45 5 -79 0q-20 -8 -64 -19q-6 -2 -16 6t-14 9q-4 0 -12.5 -3.5t-13.5 -3.5t-18 3.5t-20 3.5q-8 -1 -23 -8t-24 -7q-15 0 -41.5 7t-39.5 8q-5 0 -14.5 -3.5t-15.5 -3.5q-10 0 -27.5 3t-24.5 4 q-10 -4 -29 -4q-10 8 -18 37q-1 23 -7 65l-3 3q6 17 13 33.5t20 19.5q15 4 39 -8q32 -12 42 -14z" />
<glyph unicode="&#xb2;" horiz-adv-x="625" d="M331 1246q6 -12 21 -31q19 -9 57 -29q19 -14 54 -41q6 -3 37 -23q11 -4 30 -18q10 -17 3 -34q-7 -2 -22 -9q-4 -13 -14 -40l-72 -118q-12 -14 -29 -44q0 -11 -4 -28q-11 -6 -28 -24q4 -7 5 -21q-11 -5 -28 -19q-13 -11 -26 -45q-2 -15 -10 -42q-1 -1 -13 -25t-36 -65 q-14 -12 -35.5 -39.5t-21.5 -32.5q0 -4 3 -4q24 -7 52 -10q20 -1 55.5 0.5t51.5 -0.5q10 0 28 5q30 4 88 17q26 8 42 24q21 24 22 24q3 1 7 0q5 -2 5 -6q1 -4 -3 -19t-4 -19q1 -12 1 -44q-1 -21 -2.5 -46t-11.5 -41q-5 -7 -19 -10q-21 -3 -22 -3q-25 -8 -20 -8q-15 7 -44 18 q-16 3 -47 0q-14 -4 -43 -10q-30 -2 -62 0q-2 0 -8.5 3.5t-8.5 3.5q-9 -1 -24.5 -8t-25.5 -7t-25.5 7t-22.5 8q-2 0 -3.5 -3.5t-2.5 -3.5q15 0 -73 7q-45 3 -48 3q-28 -7 -31 -4q-3 4 -3 7t5.5 9.5t7.5 11.5q13 15 35 43q13 17 20 40q2 10 6 28q18 36 38 59q6 0 14 2 q16 25 29 54q-2 12 1 32q10 0 24 8q2 19 13 53q12 7 31 25q12 17 25 49q15 36 21 49q8 6 20 20q4 13 15 40q8 11 22 35q1 8 8 20q14 10 34 39q7 32 -8 69q-2 3 -26 10q-4 -4 -8 -4q-14 23 -51 48q-8 2 -11.5 -12.5t-5.5 -17.5q-16 -7 -46 -24q-16 -11 -43 -32 q-14 -7 -38 -29q0 -1 -14 -61q1 -14 -7 -37q-6 -4 -23.5 16t-29.5 57q-15 54 -18 59.5t-16 17.5t-13 19q0 14 40 27l53 17q11 14 38 40q13 6 36 17q10 11 31 31q17 15 34.5 29t36.5 17q14 1 51 -27z" />
<glyph unicode="&#xb3;" horiz-adv-x="677" d="M213 1166q6 0 16 4.5t14 4.5q78 7 132 5q14 -4 44 -8q46 -4 81 -3q10 0 35 4.5t38 4.5q22 -2 34 -15q0 -1 -13 -14q-41 -35 -88 -75q-10 -7 -30 -24q-9 -10 -29 -31q-15 -12 -44 -37q-14 -23 -45 -59q-9 -4 -26 -18q-5 -13 -22 -36q4 -4 54 -25q10 -2 31 -9 q10 -10 33 -24q5 -3 37 -6q22 -1 28 -12q14 -23 17 -61q1 -35 1 -67q2 -6 -1.5 -16.5t-3.5 -16.5q-2 -14 0.5 -43t2.5 -42q0 -54 -3 -87q-2 -15 -9 -21q-18 -16 -55 -28q-51 -18 -57 -20q-30 -20 -92 -59q-15 -7 -44 -21q-15 -8 -46 -24q-14 -7 -18 -3q-7 14 -26 43 q-11 4 -28 14q-5 8 -17 28q-12 9 -29 23q-5 11 -24 38q-6 6 -30 11t-28 14q-3 10 15 25.5t20 19.5q15 23 42 71q2 14 15 40q10 11 18.5 -5t17.5 -59q4 -24 8 -34q12 -30 16 -31q14 -10 20.5 -18.5t16.5 -21.5q17 -13 34 -9q13 9 37 20q15 4 50 19q15 15 51 42q15 -1 37 10 q4 10 -3 63q0 3 -5 9t-5 11q0 10 7 31t6 34q-3 18 -29 44q-4 6 -34 23q-18 5 -48 21q-14 9 -44 23q-12 -2 -33 0q-37 13 -69.5 33.5t-29.5 30.5q2 15 20 32q25 24 28 30.5t11 19.5q15 6 40 21q2 7 9 17q18 8 48 26q27 26 43 64h-107q-10 0 -31.5 -5t-35.5 -5q-8 0 -24.5 7 t-26.5 7q-4 0 -8 -1q-9 -3 -12.5 -21t-6.5 -22q-8 -16 -34 -35q-13 -6 -17 14v51q0 4 -3.5 12t-2.5 12q6 9 14 29q-2 27 9 78q7 8 50 5q45 -7 136 -17z" />
<glyph unicode="&#xb4;" horiz-adv-x="532" d="M84 830l-2 2q-11 23 -38 63q-8 1 -23 10q-21 27 -18 31q4 14 30.5 27.5t33.5 22.5q13 15 30 51t25 48q17 17 48 51q12 20 37 54q19 16 50 50q2 0 19 27q5 12 10 33q0 14 1 44q3 21 7 21q3 0 17 -18q10 -13 21.5 -43.5t22.5 -43.5q6 -6 24.5 -10t24 -10.5t9 -22t8.5 -22 t19 -23.5q20 -28 20 -40q0 -10 -22 -20q-36 -17 -56 -32q-55 -39 -81 -60q-14 -14 -44 -38q-8 0 -20 -6q3 -9 0 -20q-10 1 -30 -1q-7 -10 -24.5 -27t-54.5 -47q-3 -9 -12 -23q-18 -21 -32 -28z" />
<glyph unicode="&#xb5;" horiz-adv-x="903" d="M476 345q10 26 7 53q-3 18 -7 54q3 27 0 79q-6 26 -2 51q3 60 16 179q6 39 -4 142q0 2 -7 12t-16 27q-7 13 6 17q32 8 69 -3q8 -3 32 1q24 3 35.5 -4t11.5 -17q0 -23 -18 -33q-2 -1 -2 -12q2 -17 -2.5 -38t-2.5 -29q0 -27 3 -82q10 -99 -3 -150q-11 -38 -5 -101 q5 -73 1 -102q-4 -35 -1 -52q4 -26 24 -43q8 -11 30 -31q18 -7 54 -37q8 -3 21 -10q3 -2 7 -3l11 -6q81 -35 91 -61q6 -20 -37 -22q-25 0 -54 2q-9 -11 -49 -24q-12 -1 -27 19l-3 5q-33 42 -46 44q-18 3 -36 27q-13 10 -36 29q-6 7 -17 14q1 0 -52 0t-52 0q-27 -10 -62 0 q-6 1 -24 -4q-22 -7 -33 -7q-7 0 -14 1q-13 4 -18 24t-8 22q-11 14 -33 32q-21 7 -34.5 25t-24.5 36l-2 2q-2 -12 3 -41q9 -39 2 -56q-13 -37 2 -101q3 -14 -1 -43t-1 -41q7 -24 7 -63q0 -52 0.5 -64t26.5 -49q13 -15 -5 -20q-39 -10 -92 15q-6 2 -16 2q-7 0 -23 -3.5 t-25 -3.5q-41 0 -41 29q0 17 33 47l11 11q11 20 10.5 67t9.5 69q4 9 0 47q-7 56 -7 64q1 39 1 111q2 58 -5 101q-16 89 -2 128q7 18 -4 81q-3 18 3.5 48.5t6.5 42.5t-3 22q-7 25 -7 68t-4 62q-7 5 -17 18q-5 6 -9 16q-6 20 19 25q18 6 36 0q27 -7 42 -5q32 5 48 -2 q10 -5 10 -18q0 -32 -21 -44l2 -2v-4q0 -14 5 -102q3 -66 0.5 -98.5t2.5 -94.5v-70q2 -26 29 -46q50 -34 56 -58q3 -13 24 -24l13 -6q15 -8 37 -31q5 -6 41 -6h45q12 -4 26 -1q15 3 25 1q6 -1 17 -4h2z" />
<glyph unicode="&#xb6;" horiz-adv-x="1190" d="M730 1084q-5 17 -35 11l-50 -11q-54 8 -87 0q-15 -4 -28 -2q-21 5 -31 5q-40 0 -76 8q-31 6 -37 -11q-8 -24 -8 -65q0 -57 -2 -66q-4 -30 -8 -59q-4 -36 1 -66q23 -94 23 -221q0 -66 -7 -162q-14 -238 1 -384q0 -11 12 -37q1 -3 20 -23q14 -14 14 -21q0 -4 -3 -7 q-8 -10 -38 -7q-26 3 -30 11q-10 16 -64 4q-73 -15 -68 -15q-14 0 -19 10q-4 11 18 25.5t25 19.5q8 32 10.5 57.5t2.5 52.5q0 10 -5 72q-2 46 2 77q13 91 -2 220q0 -1 6 72q3 45 -6 73q-5 17 -25 22.5t-43 11.5q-10 4 -38 27q-10 7 -32 12t-31 11q-22 15 -44 28 q-15 13 -20 42t-8.5 56t-15.5 44q-4 7 -4 20q0 30 18 67q13 27 46 102q18 43 35 56q27 25 101 36q24 8 46 16q42 14 65 14q13 0 20 -4q26 -11 57 -11q13 0 96 14q25 4 121 -7q34 -4 48 -2q29 3 47 3q36 -5 123 -4q88 13 140 3q3 0 66 10q8 1 32 12.5t36 11.5q22 0 4 -36 q-4 -7 -11 -14q-20 -21 2 -62q18 -34 3 -59q-3 -7 -15 -4q-13 3 -21.5 11.5t-38.5 11.5q-21 -2 -61 1q-26 5 -63 -1q2 0 -25 4q-14 3 -16 -4q-7 -47 -4 -128l4 -128l-1 -382q0 -318 1 -385q0 -28 4.5 -31.5t5.5 -5.5q2 -7 18 -22.5t16 -21.5q0 -3 -1 -4q-9 -7 -36 -6 q-25 3 -20 6.5t-14.5 9t-36.5 5.5q-11 0 -18 -2q-33 -16 -64 -16q-26 0 -26 13q0 7 21 28t23 34q9 27 9 101q0 31 -3 149q-3 98 -1 148q11 269 -2 382q-3 27 3 64q3 34 7 65q6 79 -10 127z" />
<glyph unicode="&#xb7;" horiz-adv-x="318" d="M138 460q1 2 0 2l-16 3q2 5 -3 11q-15 20 -49 58q-10 21 -36 58q-6 3 -20 4.5t-14 7.5q0 22 28 55q22 26 43 51q10 19 22 41t31 29q12 6 21 6q24 0 16 -29q-6 -20 28 -62q10 -3 27 -17q6 -9 20 -22q10 -7 10 -17q0 -14 -12 -31q-8 -10 -15 -20q0 -7 -3 -23q-7 -4 -19 -14 q-1 -10 -8 -25q-19 -33 -51 -66z" />
<glyph unicode="&#xb8;" horiz-adv-x="440" d="M254 259q-1 9 0 56q5 5 16 12q-3 21 -6 62q-5 3 -18 16q-76 10 -73 10q-17 -4 -18 -26q-13 -1 -20 -14q-11 -18 -16 -21q7 -6 12 -10q18 -83 18 -95q0 -19 -4 -35h1q-4 -8 -0.5 -27t-3 -30.5t-6.5 -24.5q0 -27 23 -28q9 -2 19 -12t17 -8q20 4 20 -10q0 -13 -10 -13 q-3 0 -6 4q-2 0 -6.5 -6t-6.5 -6q-17 0 -17 7q-1 1 -34 16t-30 15q-10 8 -25 13q-5 -5 -7 -22t-19 -21q-6 -7 -18 -20q-2 0 -19 -8.5t-16 -14.5q3 -5 23 -7q19 0 26 3q5 3 17.5 -2t16.5 -6q20 0 32 -11t16 -11q14 3 34 -13.5t31 -13.5q20 6 43 32q13 10 43 32q12 13 42 32 q40 14 43 34q1 7 -11 11l-25 7q-11 7 -34 19q-8 2 -28.5 13.5t-26.5 18.5q1 10 -1 30q-2 36 1 41q6 20 1 39q5 -3 10 -7z" />
<glyph unicode="&#xb9;" horiz-adv-x="330" d="M202 1244q1 -10 -3 -48q-2 -8 3 -21q5 -19 5 -24q6 -37 3 -60q-4 -11 -8 -34q0 3 2.5 -32.5t2.5 -45.5q0 -14 -4 -56q-3 -34 -1 -55l15 -90q3 -32 0 -82q-2 -8 -7 -27q3 -17 5 -50q0 -4 -6.5 -12t-6.5 -13q7 -2 15 -7q-1 -12 -2 -33q2 -31 5 -91q-3 -6 -3 -14 q15 -13 42 -43q1 -3 -1 -10t-5 -7q-6 4 -16 7q-27 -1 -95 -5q-23 -2 -40 2q-7 2 -31 2q-3 0 -18 -3t-17 -3q-15 2 -15 9t19 20q10 7 20 15q29 30 32 60q3 31 0 57q0 1 -3.5 2t-1.5 2q0 13 7 45q4 30 4 46q0 6 -5.5 15t-5.5 15q-3 14 1 32q6 3 10 13q-1 31 -1 95q4 22 11 67 q-1 -6 -10 23q-3 14 -1 20q0 7 4 22t4 23q-4 23 -13 68q3 20 -5 57q-7 12 -30 16q-9 0 -21 -4.5t-16 -4.5q-6 0 -10 3q-10 6 -3 17q4 7 53 47q8 10 28 27q14 9 37 29q4 11 17 31q30 24 48 23q10 -2 12 -13v-22z" />
<glyph unicode="&#xba;" horiz-adv-x="527" d="M284 1159q14 0 36 -13.5t31 -14.5q54 -12 61 -43q1 -7 14.5 -27.5t13.5 -33.5q0 -1 4.5 -12.5t4.5 -14.5q-2 -10 2.5 -25t4.5 -20q0 -12 -7 -25q-13 -32 -24 -62q-16 -36 -40 -54q-6 -6 -16 -14q-22 -16 -39 -23q-46 -21 -108 -21q-32 0 -61 5q-5 2 -28.5 12t-65.5 41 q-6 13 -17 30q-12 11 -31 41t-18 41v53q0 32 11 51.5t41.5 50.5t38.5 44q5 9 20.5 18t25.5 8q23 -3 67 17q12 4 39 -2q34 -7 40 -7zM209 1102q-16 0 -47 -5q-11 -6 -29.5 -33.5t-18.5 -49.5q0 -5 1 -11t-3 -11.5t-3 -7.5v-15q10 -23 7.5 -29.5t7.5 -22t19 -29.5q6 -9 15 -21 q20 -16 48 -42q13 -15 45 -18h8q11 1 34 7q8 7 31 24q28 40 25 71q0 14 -2 34q-12 23 -10 26q3 6 3 10q0 21 -29.5 56t-46.5 39q-14 10 -40 26q-14 4 -15 2z" />
<glyph unicode="&#xbb;" horiz-adv-x="1159" d="M87 1176q-24 -15 -67 -57q-20 -28 -9 -45q12 -17 40 -36q23 -15 45 -28.5t63 -46.5q11 -18 38 -54q39 -34 113 -105q15 -20 49 -54q22 -10 57 -40q13 -17 0 -34q-3 -4 -15 -3.5t-16 -3.5q-6 -10 -17 -30q-13 -7 -37 -27q-17 -27 -55 -75q-19 -11 -50 -36 q-37 -45 -117 -129q-24 -13 -66 -40q-32 -28 -32 -45q0 -14 30 -50.5t64 -64.5q11 -12 24.5 -24.5t25.5 -12.5q20 0 48 43q21 31 40 61q40 39 116 119q12 17 40 45q24 15 67 50q13 23 43 65q18 12 49 37q10 13 32 36q5 4 41 28q25 16 34 33q4 10 4 23q0 59 -40 98 q-25 17 -75 57q-24 34 -80 93q-27 13 -71 44q-8 10 -18 32t-17 31q-24 17 -73 48q-7 6 -19 20q-6 16 -20 44q-6 7 -28.5 20t-30.5 24q-1 4 -9 40q-6 24 -20 23q-22 -2 -44 -29q-36 -42 -37 -44zM514 1212q-10 -13 -31 -40q-34 -36 -62 -61q-2 -2 -12.5 -5.5t-9.5 -7.5 q4 -11 43.5 -45t66.5 -53q15 -6 41 -18q30 -23 62 -63q13 -25 49 -72q15 -7 44 -26q27 -31 81 -94q0 -1 19 -17q15 -8 10 -17q-2 -14 -21 -30q-28 -21 -31 -24q-26 -25 -75 -79q-15 -13 -40 -37q-36 -44 -107 -128q-35 -40 -58 -54q-26 -4 -71 -26q-24 -21 -9 -41 q15 -18 44 -38q43 -27 48 -31.5t36 -41.5q20 -24 40 -25q14 -3 23.5 15.5t17.5 36.5q19 34 66 97q25 16 71 50q10 12 28 35q10 2 26 9q20 31 62 89q24 13 66 44q15 26 49 71q27 17 73 58q37 47 31 72q-6 18 -28 36q-20 15 -41 32t-60 55q-7 11 -24 33q-22 20 -66 61 q-15 18 -50 54q-41 31 -113 96q-14 22 -41 60q-23 30 -46 48q-13 15 -29 31t-32 19q-8 2 -40 -28z" />
<glyph unicode="&#xbc;" horiz-adv-x="1292" d="M1091 983q-1 -27 -3 -80q0 -5 4.5 -19.5t4.5 -21.5q0 -5 -4.5 -15t-4.5 -16q0 -9 7 -29.5t5 -31.5q2 -9 -6 -24q-48 -22 -56 -33q-15 -27 -31 -54q-20 -20 -55 -64q-3 -4 -15 -30.5t-36 -77.5l-57 -81q-4 -8 -13.5 -26t-30.5 -55q-2 -8 -9 -25q-5 -5 -17 -14 q-31 -30 -21 -47q1 -3 47 -6h44q23 1 72 3l29 -4q17 -5 22 4q9 15 5 40q-3 21 -7 42q0 6 -6 20t-4 21q2 10 15.5 21t16.5 13q15 15 34 46q13 17 33 52q3 9 4 19q7 16 15 16q5 0 12 -17q5 -12 -2 -79q-2 -7 -7.5 -22t-4.5 -23q10 -13 20 -43q1 -11 -6.5 -32.5t-7.5 -29.5 q-3 -39 8 -44q13 -4 32 0q18 4 35 11q4 0 26 9q5 1 20 10q10 5 17 5q8 0 8 -5q0 -3 -5.5 -13t-5.5 -14q0 -7 2.5 -19.5t2.5 -20.5q-4 -9 -8 -26q0 -11 7 -31.5t7 -29.5q0 -5 -3 -11.5t-15 -5.5q-12 3 -25.5 5t-61.5 15q-34 9 -33 9q-7 -2 -8 -20q-2 -7 2.5 -26.5t11.5 -54.5 q0 -12 6 -34q1 -3 14 -12q8 -5 6 -10q-6 -7 -20 -5q-29 1 -24 1q-27 -1 -42 2.5t-18 1.5q-6 -3 -19 -8q-58 -7 -58 8q0 3 8.5 9.5t11.5 13t11 24.5q5 10 3 41q0 19 2 37q-2 22 -10 32q-3 5 -9 5q-5 0 -18 -5.5t-19 -5.5q-5 0 -15 4t-15 2q-18 0 -66 -9q-30 -6 -22 -6 q-8 0 -66.5 10l-58.5 10q-4 0 -12.5 -5t-12.5 -6q-33 -4 -46 -3q-24 1 -51 11q-3 6 -3 12q0 10 26 54q14 15 40 47q47 62 78 118q1 8 7 25q24 37 72 109q15 22 42 79v8q11 20 34 60q11 10 34 34q1 11 8 33l30 51q10 22 36 66q10 9 27 27q2 13 12 33q15 27 35 67q12 10 35 34 q3 4 4.5 18.5t8.5 14.5q11 0 14 -33zM203 1209q2 -13 -4 -47q-2 -10 3 -25.5t5 -21.5q6 -38 3 -58q-3 -11 -8 -36q1 3 3 -32.5t2 -45.5q0 -14 -2 -55q-3 -33 -3 -56q7 -28 15 -88q3 -29 0 -83q-2 -9 -7 -27q5 -16 5 -52q0 -2 -6.5 -10t-6.5 -12q7 -2 15 -9q-1 -11 -2 -33 q2 -31 7 -92q-3 -4 -5 -13q16 -12 42 -42q1 -3 -1 -10t-5 -7q-4 3 -14 7q-29 -2 -96 -7q-22 -2 -41 3q-5 1 -31 1q-3 0 -17 -3t-18 -1q-15 1 -15 7q0 8 19 21q10 9 20 16q29 31 34 58q1 34 0 57q0 1 -3.5 2.5t-3.5 2.5q0 13 6 44.5t6 48.5q0 6 -6 15t-6 13q-2 13 2 33 q6 4 10 14q-2 30 -2 92q5 25 11 67q0 6 -4.5 14.5t-4.5 11.5q-2 13 -2 18q0 6 5 24q3 13 3 22q-4 22 -11 68q1 18 -7 57q-7 11 -30 14q-9 1 -21 -3t-16 -4q-6 0 -10 3q-10 5 -3 15q4 6 53 49q10 8 29 28q15 7 37 26q3 11 17 32q30 24 47 22q10 -2 11 -12t2 -21zM385 119 q-14 13 -33 39q-5 15 -30 49q-17 7 -38 29q-1 15 26 65q17 21 47 67q5 14 8 44.5t10 44.5q3 9 19.5 17.5t20.5 16.5q0 15 4 43q6 9 14 30q9 31 29 92q10 26 32 70q16 40 42 94q1 2 31 81q10 17 24 49q-1 12 3 32q7 -3 17 0q13 32 42 103q3 6 27 83q16 52 36 74q3 2 4 2 q5 0 13.5 -21t13.5 -25q23 -13 58 -45q32 -36 30 -62q-1 -13 -18 -30q-19 -23 -23 -31q-7 -24 -24 -75q-3 -10 -10 -29q-20 -32 -48 -86q-3 -6 -27 -104q0 -14 -7 -37q-20 -20 -54 -65q-22 -40 -27 -57q-2 -22 -12 -64q-3 -9 -39 -73q-10 -14 -26 -39q-7 -23 -23 -70 q-7 -3 -17 -14q-6 -24 -18 -68q-13 -40 -33 -96q-3 -18 -18 -48q-3 -1 -26 14z" />
<glyph unicode="&#xbd;" horiz-adv-x="1337" d="M1043 834q5 -10 21 -29q20 -9 60 -31q15 -13 51 -38q8 -4 38 -24q12 -5 29 -19q11 -15 4 -34q-9 -1 -21 -8q-5 -13 -16 -39l-71 -118q-11 -15 -30 -47q0 -8 -3 -27q-11 -7 -28 -24q4 -7 4 -20q-10 -4 -30 -19q-8 -12 -22 -45q-3 -15 -12 -42q0 -3 -12.5 -26.5 t-37.5 -65.5q-14 -12 -35 -39t-21 -31t4 -6q31 -8 78 -8h81q11 0 28 3q30 4 88 18q26 7 40 24l24 24q3 2 8 0q4 -3 4 -5q0 -6 -3.5 -21t-3.5 -18q1 -12 1 -42q-1 -24 -3.5 -48.5t-10.5 -41.5q-6 -7 -19 -8q-21 -3 -22 -3q-26 -9 -20 -9q-16 7 -44 17q-16 5 -47 0 q-14 -3 -46 -8q-31 -3 -61 0q-3 0 -7.5 3.5t-9.5 1.5q-7 0 -23 -7t-26 -7q-9 0 -26 6.5t-24 7.5q-2 0 -3 -2.5t-3 -2.5q10 0 -69 5q-49 5 -50 3q-27 -7 -30 -3q-4 5 -4 8q0 2 5.5 8.5t7.5 12.5q12 13 36 41q12 19 20 40q0 10 6 30q16 34 38 57q6 0 15 2q12 22 25 56 q-1 13 3 31q9 0 24 9q3 17 14 52q10 7 29 26q14 17 25 48q16 38 22 50q8 5 21 20q4 12 14 39q9 12 24 36q0 8 5 20q17 10 35 38q9 33 -7 71q-1 3 -28 9q-9 0 -5 -3q-15 20 -54 47q-5 3 -8.5 -12t-8.5 -18q-15 -7 -47 -23q-12 -13 -39 -34q-16 -7 -39 -27q-1 -1 -14 -60 q1 -17 -8 -39q-8 -5 -24 16t-28 56q-17 53 -19.5 59t-15.5 19t-13 19q0 12 40 27l52 17q13 15 39 40q11 4 35 17q0 1 47 45q31 28 54 31q16 3 53 -28zM717 1209q15 -11 25 -26q10 -20 36 -61q19 -5 39 -30q4 -14 -24 -65q-19 -20 -47 -65q-7 -14 -9.5 -45t-9.5 -45 q-4 -8 -20.5 -17.5t-20.5 -16.5q0 -14 -3 -42q-5 -10 -14 -29q-8 -31 -28 -94q-15 -35 -61 -116q-2 -3 -33 -80q-9 -17 -23 -52q2 -10 -3 -27q-8 3 -18 0q-4 -33 -19 -93q-12 -19 -37 -61q-5 -12 -19 -74q-12 -44 -30 -66q-2 -3 -7 -3q-6 0 -17 11q-16 19 -19 20 q-23 13 -58 44q-33 38 -31 61q1 14 19 34t22 27q8 27 24 77q4 10 13 30q14 17 38 57q3 7 27 106q0 13 7 36q20 21 56 65q4 20 17 57q7 10 17 27q1 21 13 65q4 13 38 71q10 13 27 41q4 23 20 69q8 4 18 14q6 24 19 69q7 25 31 94q3 19 18 49q5 2 27 -16zM202 1207 q1 -12 -3 -46q-2 -10 3 -26t5 -20q6 -34 3 -60q-4 -11 -8 -35q3 -26 5 -78q0 -14 -2 -56q-5 -32 -3 -54q5 -29 15 -89q3 -34 0 -84q-2 -8 -7 -25q5 -17 5 -52q0 -4 -6.5 -11.5t-6.5 -12.5q7 -1 15 -7q-1 -13 -2 -34q2 -31 7 -92q-5 -5 -5 -13q16 -13 42 -43q1 -1 -1 -9 t-5 -8q-4 5 -14 7q-29 -1 -96 -5q-22 -3 -41 1q-5 3 -31 3q-3 0 -17 -3t-18 -3q-15 2 -15 7q0 9 19 23l20 14q12 13 27 42q5 7 7 18q1 26 0 57q-2 0 -5.5 1.5t-1.5 2.5q0 13 7 47q5 28 5 44q0 7 -6 16.5t-6 14.5q-3 12 2 33q6 4 10 13q-2 30 -2 92q5 24 11 68q0 4 -4.5 13 t-4.5 11q-2 13 -2 19q0 7 4 22.5t4 24.5q-4 21 -11 66q1 20 -7 57q-7 12 -30 15q-9 1 -21 -3.5t-16 -4.5q-6 0 -10 3q-10 6 -3 16q4 7 53 48l29 29q15 8 36 27q4 11 18 32q30 23 47 20q9 0 12 -33z" />
<glyph unicode="&#xbe;" horiz-adv-x="1482" d="M1279 983q-2 -27 -2 -80q0 -5 4.5 -19.5t4.5 -21.5q0 -4 -5 -14.5t-4 -16.5q0 -9 6.5 -29.5t4.5 -30.5q-1 -2 0 -15q0 -6 -7 -9q-46 -23 -55 -34q-16 -25 -31 -54q-20 -20 -54 -62q-3 -3 -15 -30t-36 -80q-20 -27 -59 -81q-15 -27 -42 -81q-3 -8 -9 -25q-7 -5 -17 -14 q-32 -30 -21 -47q1 -3 47 -6h42q25 1 73 4q1 0 30 -5q17 -5 23 7t4 38q-5 20 -9 43q0 4 -5.5 18t-2.5 21q2 12 15.5 22t16.5 14q12 13 33 45q13 16 33 51q4 9 7 19q4 17 11 17q6 0 13 -18q4 -12 -3 -79q0 -7 -6.5 -22t-4.5 -23q10 -13 20 -43q1 -11 -7 -32.5t-8 -29.5 q-2 -39 10 -43.5t33 -0.5q17 4 33 11q5 0 28 9l20 11q13 7 21 3q3 -2 3 -4q0 -3 -6.5 -13t-4.5 -14q0 -6 2.5 -19t1.5 -21q-3 -7 -9 -26q0 -10 7.5 -30.5t7.5 -30.5q0 -5 -2.5 -11.5t-16.5 -5.5q-10 3 -23.5 6t-60.5 14q-1 0 -18 7q-10 6 -17 4q-6 -4 -9 -22q-1 -6 3 -26 t12 -55q1 -12 7 -34q1 -3 12.5 -10t8.5 -10q-9 -9 -21 -7q-29 1 -26 1q-27 -1 -41 2.5t-19 3.5q-4 -5 -17 -10q-56 -7 -56 8q0 3 7 9.5t10.5 13t11.5 24.5q5 10 2 41q1 20 1 37q0 22 -10 34q-3 3 -8 3q-6 0 -18.5 -5t-18.5 -5q-4 0 -14 3.5t-16 3.5q-17 -2 -65 -11 q-32 -6 -23 -6q-19 2 -60 11t-64 9q-5 0 -13.5 -5t-13.5 -5q-31 -5 -45 -4q-24 1 -51 11q-3 6 -3 12q0 8 27 54q13 15 38 47q47 61 80 119q1 7 7 24q4 10 71 109l24 36q9 14 19 43v8q19 43 32 61q13 9 34 34q3 10 9 32l30 51q10 22 37 66q10 9 27 27q2 13 12 33q13 27 33 67 q13 10 37 34q3 4 4.5 18.5t6.5 14.5q12 0 15 -33zM550 119q-14 13 -24 27q-12 22 -37 61q-19 7 -42 29q-1 15 27 65q19 21 47 67q6 14 9 45.5t10 45.5q3 7 18.5 15.5t21.5 16.5q0 15 4 43q4 9 14 30q9 31 28 94q27 44 74 138q6 19 20 58q9 15 22 49q-2 12 2 30q9 -3 20 0 q5 30 17 90q15 21 39 62q4 15 20 74q11 44 28 68q3 3 7 3q7 0 20.5 -15t16.5 -17q21 -13 58 -45q33 -36 29 -61q0 -14 -16 -31q-20 -23 -23 -31q-11 -38 -37 -104q-15 -20 -38 -58q-3 -7 -27 -105q0 -13 -7 -37q-20 -20 -55 -65q-5 -20 -18 -59q-7 -7 -17 -24 q-2 -23 -12 -65q-5 -12 -39 -73q-10 -14 -25 -39q-6 -23 -22 -69q-8 -4 -18 -15q-6 -24 -19 -68q-8 -26 -32 -96q-2 -18 -17 -46q-6 -3 -27 12zM213 1226q6 -1 16 3t14 5q77 8 133 6q13 -4 43 -8q48 -5 81 -3q10 0 35 4t38 4q24 -1 34 -14q0 -1 -12 -13q-21 -18 -89 -76 q-10 -7 -30 -23q-7 -11 -27 -31q-16 -13 -46 -40q-14 -21 -45 -57q-9 -4 -26 -18q-5 -13 -22 -36q8 -7 55 -26q10 -2 30 -8q10 -10 33 -24q7 -3 37 -6q22 -1 29 -14q13 -23 16 -61q1 -31 3 -66q0 -5 -3.5 -16t-3.5 -16q0 -14 2 -42.5t2 -42.5q0 -54 -4 -87q-2 -16 -9 -21 q-17 -15 -54 -29q-28 -10 -58 -21q-30 -19 -92 -57q-15 -7 -44 -20q-15 -11 -46 -25q-14 -6 -18 -3q-7 14 -26 42q-11 5 -28 15q-5 8 -17 28q-12 9 -29 23q-5 11 -24 38q-6 6 -30 11t-28 15q-3 8 15 23.5t20 20.5q15 22 42 71q2 15 15 41q10 10 19 -4q10 -20 17 -61 q4 -22 8 -35q14 -29 16 -31q15 -13 20 -20t17 -20q17 -14 34 -8q13 8 37 21q15 3 50 17q15 16 52 43q14 0 36 10q5 10 -3 62q0 5 -5 11t-5 11q0 10 8 32q7 19 5 32q-3 19 -27 45q-6 4 -36 21q-10 5 -25.5 11t-22.5 9q-14 10 -44 24q-12 -1 -33 0q-35 13 -68.5 33.5 t-30.5 30.5q2 16 20 33q25 24 28 30.5t11 19.5q15 5 40 21q2 7 9 17q18 6 48 26q28 25 43 64h-107q-10 0 -31.5 -5t-35.5 -5q-8 1 -24.5 7.5t-26.5 6.5q-4 0 -8 -2q-9 -2 -12.5 -20t-6.5 -24q-8 -14 -34 -35q-13 -4 -17 15v52q0 2 -3.5 11t-2.5 13q6 8 14 28q-2 27 9 78 q7 9 50 6q45 -7 136 -17z" />
<glyph unicode="&#xbf;" horiz-adv-x="731" d="M233 -74q-7 3 -98 48q-7 5 -21 13q-27 19 -51 36q-30 20 -39 47q-10 34 -4 111.5t-4 112.5l-9 13.5t-4 14.5q7 12 25 23q26 16 32 20q17 20 54 54q12 7 39 23q44 28 66.5 47.5t30.5 36.5q7 24 24 66q2 3 14 19q10 10 7 17q-5 14 -27 28q-25 20 -31 26q-10 15 -35 47 q-6 7 -37 22q-24 12 -26 27q-1 18 18 32t36 27q12 11 27 18q6 2 29 20q18 13 29 10q15 -4 29 -28q23 -37 24 -39q14 -21 44 -61q23 -14 61 -50q24 -22 24 -24q13 -15 13 -30t-11.5 -35.5t-21.5 -37.5q-22 -42 -61 -125q-1 -26 -17 -70q-8 -11 -31 -20q-30 -10 -36 -13 q-21 -11 -62 -38q-37 -38 -43 -46q-20 -28 -20 -58q0 -40 27 -89q12 -19 59 -39q31 -14 48 -8q7 1 16.5 14t14.5 16q26 3 67 22q20 22 44 103q3 32 19 93q15 42 34 43q11 3 21 -14q11 -21 16 -24q17 -13 54 -40q18 -14 38 -27q24 -19 27 -37q3 -13 -14 -26q-29 -19 -30 -22 q-14 -16 -37 -49q-3 -25 -17 -72q-7 -11 -46 -34q-46 -26 -140 -75q-14 -16 -50 -32q-13 -3 -34 3q-31 9 -37 10q-6 -1 -17 0zM256 989q-3 0 -17.5 20.5t-45.5 63.5q-14 12 -40 44q-27 44 -27 62q0 7 14.5 14t18.5 12q3 17 17 45q19 14 54 50q3 20 20 57q27 27 50 17 q11 -5 21 -22t20 -31q4 -8 13 -21q17 -23 48 -73q30 -62 26 -93q0 -9 -16 -17q-21 -10 -24 -13q-14 -17 -26 -40q-3 -4 -15 -47q-9 -27 -26 -38q-7 -4 -17 -4t-48 14z" />
<glyph unicode="&#xc0;" horiz-adv-x="1088" d="M638 1341q1 -3 -13 -21q-6 -2 -14 -6q-7 -14 -24 -41l-2 -2q-8 8 -21 19q-1 6 -7 14q-11 10 -34 28q-4 9 -17 20q-6 -1 -19 2q2 4 0 11q-4 0 -11 3q-10 9 -30 24q-24 21 -50 40q-12 8 -37 20q-12 8 -12 14q0 7 11 24q6 6 14 16q2 10 10 28q13 3 31 14q8 19 27 54 q9 13 12 13q1 0 5 -15v-27q3 -15 8 -22q12 -14 41 -48q8 -11 25 -34q10 -10 29 -33q10 -23 37 -65q17 -7 41 -30zM1011 -48q-51 -15 -123 -13q-14 0 -37.5 6.5t-36.5 6.5t-23 -6t-31 -7q-23 -2 -31 3q-3 3 -3 4q0 3 9 11.5t9 14t8.5 15.5t8.5 17q0 6 -8.5 13t-8.5 11 q5 13 8 37q-5 40 -23 94q-16 43 -19 53q-14 28 -22 34.5t-16 6.5q-9 0 -26.5 -6.5t-26.5 -6.5q-24 -3 -75 10q-16 3 -60 -3q-14 -3 -27 -4q-29 6 -59 -6q-16 -4 -51.5 -4.5t-43.5 -8.5t-8 -35q0 -34 -1 -38q-14 -35 -37 -103q-1 -11 16 -39t17 -39q0 -7 -5 -13.5t-29 -3 t-33 -1.5q-7 -3 -26 0q-21 5 -24 5q15 0 -130 -5q-29 -2 -29 11q0 11 37 50q23 22 60 76q3 6 -3 20.5t-4 21.5l39 85l10 11q6 7 3 12q-15 22 -37 14q-10 -4 -49 -37q-33 -27 -53 -26q-13 2 -13 22q0 -6 9 52q1 4 9.5 17t8.5 22q0 8 -5 19.5t-6 16.5q1 20 -3 63q-7 4 -16 17 q-1 17 17 19q20 2 30 -5q17 -14 63 -42q28 -16 58 -16q19 0 29.5 11.5t23.5 87.5q0 2 12 39q8 15 20 58q-5 10 -3 30q6 7 25 45q11 27 34 80q4 20 17 57q10 13 24 37q1 18 8 54q8 12 20 41l-3 3q15 25 40 81q17 65 54 172q3 21 14 63q17 36 26 36q4 0 27 -40q14 -27 14 -54 q0 -10 3 -17q10 -18 28 -54q9 -23 9 -54t4 -44q14 -24 39 -77q8 -39 25 -115q9 -18 24 -56q7 -27 26 -80q11 -16 31 -48q6 -30 21 -87q12 -13 27 -44q0 -30 9 -89q16 -53 33 -53q20 0 75 7q27 6 47 41q14 27 30 27q10 0 10 -20q-3 -39 2 -103q10 -22 2 -74q-2 -7 4.5 -23 t6.5 -21q0 -6 -5 -9q-16 -4 -33 14q-23 23 -29 26l-27 16q-17 11 -25 11q-21 0 -21 -28q0 -12 17 -60q8 -10 22 -38q-7 -8 -11 -25q9 -8 28 -36t60 -89l16.5 -7.5t16.5 -12.5q-2 -1 -5 -2zM641 388q0 5 -6 18.5t-4 23.5q1 17 -13 57q-6 20 -40 98q-13 20 -28 61q-2 23 -9 73 q-5 4 -15 17l-12 24q-5 16 -13 10q-11 -9 -15 -31q-6 -34 -9 -40q-10 -17 -30 -53q-2 -18 -11 -56l-24 -66q-3 -18 -16 -62q-10 -9 -25 -27q-23 -43 -23 -46q0 -5 3.5 -9.5t29.5 -3.5q38 3 40 3q55 -4 49 -4q14 0 53 -17q5 -3 21.5 3.5t20.5 2.5q12 -7 25 -7q15 0 33 9 t18 22z" />
<glyph unicode="&#xc1;" horiz-adv-x="1089" d="M658 1490q11 -17 11 -24q0 -6 -14 -14q-24 -12 -36 -20q-25 -17 -52 -40l-27 -24q-4 0 -13 -3q3 -6 1 -11q-7 0 -19 -2q-5 -5 -16 -16.5t-34 -31.5q-3 -4 -10 -14q-10 -11 -19 -19q-1 0 -1 2q-7 15 -26 41q-4 1 -14 6q-13 18 -13 21q5 9 21 16.5t22 13.5q10 21 34 65 q12 10 31 33q8 11 25 34q15 17 30 33.5t18 36.5q0 10 2 26t4 16t11 -13q8 -18 28 -54q12 -2 30 -14q3 -8 12 -28q4 -4 14 -16zM1014 419q-7 -4 -18 -17q3 -27 -7 -80q-5 -10 -5 -19t9 -22t9 -17q8 -58 8 -52q0 -20 -14 -22q-17 -1 -50 26q-40 33 -50 37q-24 8 -37 -14 q-2 -5 3 -12l9 -11q17 -27 41 -85q1 -7 -5 -21.5t-3 -20.5q12 -27 61 -76q34 -39 34 -50q0 -13 -27 -11q-144 5 -130 5q-2 0 -27 -5q-15 -3 -22 0q-9 5 -33 1.5t-29 3t-5 13.5q0 11 16.5 39t13.5 39q-3 22 -14 51q-20 47 -22 52v36q0 29 -8.5 37t-40.5 8q-40 1 -54 5 q-30 13 -59 6q-14 1 -27 4q-44 6 -59 3q-51 -13 -77 -10q-9 0 -26.5 6.5t-26.5 6.5q-10 0 -15 -4q-13 -10 -40 -90q-20 -52 -24 -94q4 -12 7 -37q-2 -4 -9.5 -11t-7.5 -13q0 -7 8.5 -17t8.5 -15.5t10 -14t10 -11.5q-2 -1 -4 -4q-8 -5 -30 -3q-22 1 -31.5 7t-24.5 6 q-11 0 -35 -6.5t-37 -6.5q-74 -2 -124 13q-4 1 -4 2q0 5 16.5 12.5l16.5 7.5q18 25 59 87q13 13 27 38q-5 10 -10 25q10 15 23 38q16 48 16 60q0 28 -20 28q-9 0 -24.5 -10t-28.5 -17q-7 -3 -30 -26q-18 -18 -31 -14q-5 3 -5 9q0 5 4.5 21t4.5 23q-7 52 2 74q6 12 4 48 q-1 64 -1 55q0 20 11 20q16 0 29 -27q19 -35 46 -41q57 -7 77 -7q16 0 31 53q2 31 9 89q11 14 27 44q6 30 23 87q11 14 31 48q7 27 24 80q10 18 26 56q5 40 22 115q5 12 27 47q16 27 16 50t11 78q12 17 29 54q1 7 2 25.5t15 45.5q21 40 25 40q9 0 26 -36q4 -22 16 -63 q7 -20 52 -172q14 -27 41 -81q-1 0 -5 -3q10 -14 22 -41q0 -19 7 -54q10 -10 25 -37q4 -19 17 -57q12 -26 35 -80q6 -15 24 -45q6 -7 2 -19l-5 -11q6 -17 20 -58q6 -13 13 -39q4 -35 7 -45q6 -34 16 -44t30 -10q28 0 57 16q18 10 63 42q10 7 27 6q22 -3 20 -20zM665 379 q3 5 3 10q0 4 -24 46q-10 8 -25 27q-4 10 -17 62q-8 21 -22 66q-3 18 -15 56q-10 17 -28 53q-3 7 -7 40q-4 22 -17 31q-6 6 -13 -10q-8 -23 -10 -24q-7 -4 -16 -17q-1 -24 -8 -73q-10 -20 -30 -61q-14 -31 -40 -98q-14 -40 -12 -57q0 -10 -4.5 -23.5t-4.5 -18.5 q0 -13 18 -22t32 -9t22 7q5 1 22.5 -4t23.5 -2q40 17 53 17q-8 0 48 4q31 -4 71 0z" />
<glyph unicode="&#xc2;" horiz-adv-x="1088" d="M793 1335q0 -4 -16.5 -14.5t-18.5 -18.5t-10.5 -13.5t-17.5 -9.5q-17 -15 -17 -13q-8 13 -25 34l-19 19t-44 46q-14 9 -38 30q-9 16 -32 43q-8 5 -25 18q-7 13 -29 27q-11 3 -29 -11q0 -6 -6 -17q-10 -7 -31 -23q-16 -10 -43 -37q-4 -14 -18 -38q-16 -5 -44 -22 q-5 -10 -16 -29q-7 -9 -20.5 -27.5t-12.5 -18.5q-10 11 -30 34q-25 13 -58 41q-3 9 13.5 14t20.5 10q15 10 44 33q7 10 23 27q13 6 36 21q11 6 18 22q11 21 14 24q14 18 34 37q17 11 47 35q4 12 20 31t34 23q-1 0 27 -15q7 -9 23 -27q8 -10 24 -29q9 -5 24 -18 q10 -13 33 -34q6 -3 17 -12q10 -17 31 -48q9 -3 26 -13q10 -11 28 -32q6 -3 16 -12q4 -4 28 -20q19 -11 19 -17zM1011 -51q-52 -13 -123 -12q-14 0 -37.5 6t-36.5 6t-23 -6t-31 -6q-23 -1 -31 2q-3 1 -3 6q0 1 9 9.5t9 15t8.5 15.5t8.5 15q0 7 -8.5 14t-8.5 13q5 11 8 35 q-5 43 -23 94q-16 46 -19 53q-14 30 -22 35.5t-16 5.5q-9 0 -26.5 -5.5t-26.5 -7.5q-24 -3 -75 10q-16 3 -60 -4q-14 -2 -27 -3q-29 7 -59 -6q-16 -4 -51.5 -4.5t-43.5 -8t-8 -35.5q0 -34 -1 -38q-16 -33 -37 -103q-1 -11 16 -38t17 -40q0 -7 -5 -13.5t-29 -2t-33 -1.5 q-7 -4 -26 0q-22 6 -24 6q15 -2 -130 -7q-29 0 -29 13q0 11 37 48q23 24 60 77q3 7 -3 20.5t-4 20.5q0 1 39 85l10 13q6 7 3 11q-15 22 -37 13q-10 -6 -49 -37q-33 -27 -52 -24q-14 1 -14 20l9 52q1 5 9.5 17.5t8.5 21.5q0 8 -5 19.5t-6 17.5q1 21 -3 64q-7 4 -16 15 q-1 17 17 20q20 2 30 -6q17 -14 63 -42q28 -16 58 -16q20 0 30 10.5t23 89.5q4 12 11 38q9 16 21 58q-5 10 -3 30q3 4 23 45q13 26 36 80q4 21 17 58q10 13 24 37q3 17 8 53q8 13 20 40q-1 2 -3 5q15 26 40 81q19 64 54 171q3 21 14 65q17 36 26 36q4 0 27 -40 q14 -29 14 -57q0 -9 3 -16q10 -18 28 -54q9 -22 9 -51q0 -34 4 -47q14 -24 39 -76q8 -39 25 -115q9 -17 24 -57q6 -29 26 -80q11 -15 31 -48q6 -30 21 -87q12 -13 27 -42q0 -32 9 -91q16 -53 33 -53q14 0 75 9q27 4 47 39q14 29 28 29q12 0 12 -21q-5 -40 2 -106 q10 -19 2 -72q-2 -7 4.5 -22.5t6.5 -20.5q0 -8 -5 -10q-16 -2 -33 15q-23 22 -29 25q-14 9 -27 16q-17 11 -25 11q-23 0 -23 -28q0 -12 19 -59q8 -11 22 -38q-7 -8 -11 -25q9 -9 28 -36.5t60 -88.5q7 -5 16 -9q17 -7 17 -11q-2 -2 -5 -3zM641 385q0 6 -6 20t-4 24 q1 17 -13 55q-4 15 -40 98q-13 20 -28 61q-2 25 -9 73q-5 4 -15 17l-12 26q-5 14 -13 10q-11 -9 -15 -33q-6 -34 -9 -40q-10 -17 -30 -53q-2 -18 -11 -56q-10 -22 -24 -66q-3 -18 -16 -61q-11 -8 -25 -27q-23 -42 -23 -47t3.5 -9.5t29.5 -2.5q38 2 40 2q55 -4 49 -4 q13 0 51 -15q7 -3 23.5 2t20.5 2q17 -10 46 -3q30 7 30 27z" />
<glyph unicode="&#xc3;" horiz-adv-x="1111" d="M949 1497q-4 -7 -48 -30q-20 -7 -57 -27q-17 -12 -54 -39q-19 -13 -58 -37q-17 -6 -52 -23q-7 -13 -27 -33q-29 -18 -42 -18q-16 0 -24 21q-13 31 -16 33.5t-50 36.5q-21 11 -55 37q-3 1 -3.5 7.5t-5.5 5.5q-10 -2 -51 -26q-8 -4 -25 -19q-3 -9 -17 -28q-20 -10 -57 -34 q-6 -4 -13 -22t-18 -21q-13 -2 -23 7.5t-20 21t-37 41.5q-18 13 -40 45q-1 12 29 29q20 4 57 18q17 19 56.5 51.5t66.5 46.5q17 5 51 19q7 5 24 30q16 18 32 21q14 3 28 -9t27 -25q23 -14 63 -46q0 -11 8 -34q28 -32 48 -30q19 5 38 20.5t36 29.5q26 20 77 60q4 15 24 34 q20 7 41 -10q7 -4 11.5 -18.5t10.5 -18.5q22 -8 61 -33q15 -17 4 -34zM1036 -50q-53 -14 -127 -13q-11 0 -36 6.5t-38 6.5q-12 0 -23.5 -5.5t-33.5 -7.5q-22 -1 -31 3q-3 2 -3 5q0 2 10 10.5t10 15t8.5 16t8.5 17.5q0 4 -8.5 12t-8.5 12q5 13 7 39q-4 42 -24 95 q-17 47 -20 54q-12 31 -20 37t-18 6q-9 0 -26.5 -6t-27.5 -6q-26 -4 -77 7q-15 5 -62 -3q-13 0 -27 -1q-30 4 -61 -7q-16 -6 -54 -6q-34 0 -42.5 -7.5t-8.5 -36.5q1 -35 0 -40q-17 -34 -39 -105q-1 -11 16 -39t17 -40q0 -7 -5 -14.5t-30 -3t-35 -1.5q-5 -3 -24 0 q-24 6 -25 6q14 0 -134 -6q-28 -1 -28 12q0 12 37 51q22 22 61 78q2 7 -3.5 21t-3.5 21l39 87l12 13q5 7 3 11q-16 23 -39 15q-10 -5 -51 -39q-33 -27 -53 -25q-14 1 -14 21l10 54q0 4 8.5 17t8.5 24q0 7 -5 18.5t-6 17.5q1 22 -2 65q-8 4 -17 17q-1 17 19 20q18 1 30 -6 q17 -14 64 -44q28 -15 59 -15q20 0 31.5 11t22.5 91q5 14 12 38q8 17 21 61q-6 9 -3 30q4 6 24 46q13 28 37 83q4 20 17 60q10 11 24 36q3 19 10 55q7 13 20 41q-3 2 -4 4q17 26 43 83q17 65 54 176q2 23 15 65q16 39 27 39q4 0 26 -43q15 -27 15 -57q0 -8 2 -17 q11 -17 30 -54q8 -21 8 -53.5t4 -47.5q16 -24 42 -78q7 -40 25 -118q9 -18 26 -58q5 -27 24 -82q13 -16 34 -50q6 -28 21 -87q12 -15 27 -45q0 -33 9 -93q17 -55 34 -55q14 0 77 10q28 4 48 41q14 27 31 27q10 0 10 -20q-3 -41 3 -106q10 -23 1 -77q0 -6 6 -22t6 -22 q0 -7 -7 -9q-15 -4 -33 15q-23 22 -30 25q-13 9 -27 17q-17 12 -27 12q-20 0 -20 -30q0 -12 16 -60q10 -11 23 -38q-6 -10 -10 -27q8 -9 28 -37.5t63 -90.5q8 -4 15 -9q16 -7 16 -11q0 -3 -4 -3zM656 396q0 6 -5 21t-3 25q1 17 -14 58q-5 13 -42 99q-11 22 -29 62 q-2 27 -9 76q-6 5 -16 16q-1 3 -8 23q-6 14 -11 14q-13 0 -20 -31l-10 -44q-10 -18 -29 -54q-3 -19 -13 -57q-9 -22 -25 -67q-3 -20 -16 -64q-10 -8 -25 -27q-24 -44 -24 -48q0 -6 3.5 -10t30.5 -3q38 3 41 3q57 -4 50 -4q12 0 52 -16q7 -4 25 1.5t22 2.5q10 -7 24 -7 q16 0 33.5 9.5t17.5 21.5z" />
<glyph unicode="&#xc4;" horiz-adv-x="1111" d="M841 1459q7 -21 -6 -51q-7 -16 -39 -46q-12 -5 -30 -20q-10 -14 -19.5 -46.5t-16.5 -32.5q-8 0 -23 14q-7 4 -12 20.5t-10 21.5t-18.5 17t-44.5 38q-7 4 -15 8t-8 14q2 12 10 20q19 16 19 17q7 9 34 52q14 17 38 55q2 3 3 20q2 13 7 11q19 -1 56 -38q10 -9 23.5 -31 t21.5 -32q14 -1 30 -11zM423 1418q0 -13 -9 -26t-16 -23q1 -5 -2 -19q-8 -5 -18 -15q-2 -8 -7 -22q-20 -33 -49 -61q2 0 0 1l-15 1q3 6 -2 12q-15 18 -46 54q-10 20 -35 54q-2 4 -16.5 4.5t-14.5 6.5q0 21 27 53q20 24 40 47q8 18 19.5 38.5t28.5 27.5q13 6 22 6 q22 0 14 -27q-6 -21 27 -60q8 -3 25 -17q5 -7 19 -18q8 -7 8 -17zM1036 -58q-53 -13 -128 -12q-12 0 -36.5 6t-36.5 6q-14 0 -24.5 -5t-32.5 -7q-22 0 -28.5 2.5t-6.5 4.5t10 11t10 15.5t8.5 16.5t8.5 16q0 5 -8.5 13t-8.5 14q6 11 8 35q-5 43 -25 97q-16 45 -19 54 q-12 30 -20 36t-19 6q-9 0 -26.5 -6t-26.5 -6q-26 -3 -77 8q-17 4 -62 -4q-14 0 -29 0.5t-59 -7.5q-16 -6 -53 -6t-45.5 -8t-6.5 -36q0 -35 -2 -40q-15 -34 -38 -103q-2 -13 16 -41t18 -40q0 -8 -5 -15t-29 -2q-26 4 -34.5 -1t-25.5 1q-23 5 -25 5q14 -1 -134 -8 q-28 0 -28 14q0 11 37 50q22 24 61 78q2 7 -3.5 21t-3.5 21q1 6 39 87l12 13q5 7 3 11q-16 23 -39 14q-10 -4 -51 -38q-33 -27 -53 -24q-14 1 -14 21l10 53q0 5 8.5 17.5t8.5 22.5q0 8 -5 20t-6 16q1 22 -2 66q-8 4 -17 15q-1 19 19 22q18 1 30 -6q17 -16 64 -44 q28 -16 59 -16q20 0 31 11.5t22 91.5q1 3 13 38q8 17 21 60q-6 10 -3 30q4 7 24 46q13 29 36 84q4 20 18 59q10 12 24 36q2 19 9 54q7 15 20 43q-2 1 -3 4q17 26 41 83q17 65 54 174q4 23 16 67q17 37 27 37q4 0 27 -41q11 -21 13 -40q2 -27 4 -34q11 -18 30 -55 q7 -19 10 -80q0 -23 17 -51q22 -37 27 -48q7 -40 24 -117q8 -18 25 -58q7 -28 25 -82q12 -16 34 -50q5 -30 21 -87q11 -15 27 -47q1 -31 10 -91q17 -55 33 -55q14 0 76 10q29 4 49 41q14 27 31 27q10 0 10 -20q-3 -41 3 -106q10 -24 1 -76q0 -7 5.5 -23t5.5 -22q0 -9 -7 -10 q-13 -3 -32 16q-23 22 -29 27q-14 7 -28 15q-17 12 -27 12q-20 0 -20 -30q0 -13 17 -60q8 -11 23 -40q-7 -7 -12 -24q9 -10 29 -38.5t62 -90.5l16.5 -8t16.5 -12q-2 -1 -4 -4zM656 389q0 6 -5 20t-5 24q2 17 -12 60q-8 18 -42 99q-11 20 -29 61q-2 27 -9 76q-6 5 -16 17 q-2 3 -11 25q-6 16 -14 10q-12 -8 -16 -32q-5 -36 -8 -42q-12 -17 -29 -54q-4 -18 -14 -58q-10 -21 -24 -65q-3 -20 -17 -64q-9 -9 -26 -27q-22 -46 -22 -48q0 -6 3.5 -10.5t28.5 -2.5q39 3 41 3q57 -5 50 -5q14 0 54 -17q7 -2 25 3.5t22 2.5q10 -7 24 -7q16 0 33.5 9 t17.5 22z" />
<glyph unicode="&#xc5;" horiz-adv-x="1029" d="M639 1406q-21 -51 -22 -54q-15 -31 -35 -46q-4 -5 -15 -12q-21 -14 -33 -20q-64 -30 -146 -14q-4 1 -24 10.5t-56 36.5q-5 10 -15 25q-10 9 -26.5 34.5t-15.5 37.5v44q0 29 8.5 45.5t35.5 43t33 37.5q3 9 17 17.5t23 6.5q20 -3 60 13q10 4 32 -1q29 -6 34 -6 q12 0 32 -10.5t25 -12.5q48 -11 54 -37q2 -7 14 -24.5t12 -29.5q0 -1 4 -10.5t4 -12.5q6 -15 0 -61zM956 -51q-47 -13 -116 -12q-12 0 -35.5 6t-33.5 6q-12 0 -24 -4q-30 -17 -58 -6q-3 1 -3 6q0 1 9.5 9t9.5 14t7.5 14.5t7.5 14.5q0 7 -7.5 14t-7.5 12q4 10 7 32 q-5 40 -23 90q-13 37 -38 84q-6 4 -16 4q-7 0 -24 -5t-24 -6q-24 -2 -73 8q-14 3 -55 -3q-14 -1 -27 -3q-27 5 -57 -4q-13 -6 -47 -6t-41 -7t-7 -35q0 -31 -2 -34q-15 -33 -34 -98q-1 -10 14.5 -36.5t15.5 -36.5q0 -7 -5.5 -13.5t-26.5 -3.5q-23 4 -31 0t-23 0q-22 4 -25 4 q15 0 -123 -5q-26 0 -26 11q0 12 34 47q22 21 57 73q3 5 -2.5 18t-4.5 18q0 2 37 83l8 11q6 7 3 12q-12 18 -34 11q-8 -4 -47 -34q-31 -27 -48 -24q-13 1 -13 21q0 -1 9 47q0 7 7.5 18.5t7.5 19.5q0 7 -4 18.5t-6 15.5q2 20 -2 61q-7 5 -15 15q-1 15 17 18q18 2 27 -6 q16 -12 60 -39q27 -16 56 -16q17 0 26.5 11.5t21.5 85.5l11 34q9 17 20 55q-4 9 -3 29q5 5 22 42q11 26 35 77q3 18 14 55q10 10 23 34q1 16 9 50q7 13 19 38q-1 -2 -4 5q16 24 40 76q16 60 48 162q3 20 16 61q15 35 24 35q4 0 24 -39q13 -20 14 -37q2 -25 3 -32 q10 -16 26 -50q8 -20 8 -50.5t5 -41.5q15 -23 38 -73q6 -37 23 -109q7 -17 24 -53q5 -25 21 -77q13 -14 33 -45q4 -27 18 -81q12 -13 26 -43q0 -28 8 -83q16 -50 30 -50t73 7q25 3 44 38q12 24 27 24q10 0 10 -17q-3 -39 4 -99q8 -20 1 -70q-1 -5 4.5 -21t5.5 -20 q0 -7 -7 -8q-13 -3 -30 12q-21 23 -27 26q-12 7 -26.5 15.5t-22.5 8.5q-20 0 -20 -25q0 -12 15 -56q9 -11 22 -37q-6 -7 -10 -23q7 -8 25.5 -34.5t56.5 -84.5l15.5 -7t15.5 -11q0 -2 -4 -3zM551 1388q0 13 -3 30q-7 13 -8 22q1 3 1 8q0 19 -24.5 49t-37.5 36.5t-36 19.5 q-11 3 -13 3q-14 -2 -41 -6q-10 -4 -25.5 -28.5t-15.5 -42.5q0 -4 1 -9q-4 -5 -5 -18q1 -6 1 -12q9 -19 6 -24t5.5 -19.5t17.5 -25.5q4 -10 11 -19q18 -12 43 -37q10 -12 39 -15h7q9 1 27 6q8 5 29 21q23 35 21 61zM605 361q0 4 -4 18t-4 23q2 14 -12 54q-5 17 -38 94 q-11 17 -27 55q0 24 -9 70l-15 15q0 2 -9 25q-5 14 -13 8q-11 -7 -14 -30q-7 -32 -10 -38q-10 -16 -27 -50q-2 -17 -10 -52q-10 -22 -24 -62q-3 -19 -15 -59q-9 -9 -23 -26q-23 -38 -23 -44q0 -5 3.5 -9.5t29.5 -3.5q35 3 37 3q51 -4 45 -4q14 1 50 -14q7 -3 23.5 2t19.5 2 q15 -10 42 -3t27 26z" />
<glyph unicode="&#xc6;" horiz-adv-x="1669" d="M500 526q4 5 11 15q13 17 36 76q18 45 42.5 67t42.5 62q17 32 33 67q18 8 31 35q4 10 -6 11q17 23 49 83q13 -2 26 15.5t8 26.5q24 67 15 111q-2 13 -15 17q-24 -1 -40 20q-13 14 -41 31q-3 0 -12 -1q-17 4 -56 10q-7 6 -19 23l-17 12q2 20 14 32q12 7 36 11q34 6 54 -3 q35 -4 106 -10q23 -1 32 2q22 18 68 5q20 -8 35 -5q19 3 36 5q6 -1 15 -4q42 -13 84 -13q6 2 29 3q41 -1 68 16q23 4 67 11q15 2 81 -11q14 -3 44 -2h91q34 36 55 33q9 -3 30 2q7 8 28 22l13 6q16 7 20 -13l3 -8q1 -7 0 -22q-3 -17 -17 -66q-10 -30 -6 -59q16 -99 4 -147 q-3 -9 -27 -32q2 -1 0 -1q0 -7 -4 -19q-11 -12 -18 -12q-8 0 -17 21q-5 34 -18 71q-14 7 -32 35q-3 5 -30 18q-34 17 -64 9q-13 -4 -34 -8q-37 -9 -112 1q-3 0 -100 -1q-51 0 -78 -14q0 1 2 -23v-28q4 -33 8 -100q3 -35 -6 -89q-8 -59 -7 -83q0 -25 7 -88q6 -55 5 -85 q-2 -24 -2 -19q0 -7 3.5 -9.5t13.5 -2.5q43 4 50 4q13 0 24 -6q17 -5 46 0q27 6 35 3q9 -4 14 -4l47 4q29 2 71 17q13 3 53 33q50 37 58 37q10 0 10 -14q0 -8 -3 -17q6 -16 -1 -42.5t-7 -36.5q2 -27 -15 -42q-1 -2 6 -13q16 -26 -3 -65q-7 -17 -5.5 -57t-4.5 -56 q-7 -24 -21 -24q-8 0 -24 14q-13 26 -46 60q-5 3 -29 31q-57 -7 -76 -1q-37 14 -52 10q-39 -13 -111 -6q-19 2 -34 0v0q-3 -10 -2 -31q2 -11 -2 -17q-10 -20 1 -73q-1 -27 0 -85q0 -3 -1 -32q-2 -8 -3 -22q4 -3 20 -3q14 0 65 15q13 4 67 4l21 -6l13 -7q11 -6 37 -1 q22 5 69 11q37 -1 110 3q1 0 37 24q15 16 51 48q1 2 7 9l4 4q19 20 31 10q22 -14 15 -64q-3 -17 -10 -35q-10 -25 -5 -64q5 -32 -4.5 -53t-9.5 -30q0 -18 7 -44q16 -57 -12 -57q-15 0 -33.5 11t-21 18t-14.5 15q-11 3 -27.5 19.5t-33.5 17.5q2 0 -91 -1h-292q-5 0 -98 -10 q-41 -4 -80 3q-17 -6 -31 -6q-30 0 -30 23q0 17 20 44q20 21 41 50q7 27 9 72q1 57 4 75q7 44 4 71q0 2 -4 16q-3 14 3 53q1 17 -3 24q-6 10 -53 -2q-32 -5 -58 -2q-17 4 -47 7q-8 1 -25 0q-19 -3 -26 -3h-35q-20 -2 -32 -12q-15 -12 -49 -66q-20 -36 -67 -108 q-7 -7 -20 -24l-9 -18q-7 -21 -22 -56q-20 -24 -44 -60q-5 -36 -6 -34q6 -10 20 -31q7 -12 7 -19q0 -1 -1 -1q0 -14 -29 -14q2 0 -69 10q-35 4 -83 -2.5t-64 -3.5q-15 3 -52 1q-20 6 -60 6q-43 -10 -48 13q-6 22 31 52q3 3 26 7h4q14 13 52 29q9 1 26 5q4 0 21 15 q7 4 30.5 14t38 30t28.5 42q23 23 58 77q6 9 16 34q15 26 44 78l5 10q12 13 33 29v0h-6l-22 4q-23 4 -42 -7q-8 -3 -22 0q-14 4 -19 3q-8 -3 -15 -13q-16 -29 -51 -75q-23 -17 -45 -17q-19 0 -19 19q0 10 7 26q1 4 4 41q1 6 -1 58q-2 37 8 56q19 28 19 47q0 7 -10 22.5 t-10 28.5v27q-2 52 15 52q16 0 40 -25q4 -4 11 -10q13 -14 37 -44.5t49 -29.5q17 4 51 7q-13 0 71 -3q17 0 31 -5v0zM671 524q36 6 34 7q32 -7 142 0q8 0 22.5 3t12.5 30q0 8 -2.5 27.5t-2.5 29.5q0 13 11 75q1 7 -4 40q-2 14 2 33q8 31 9 34q-1 25 0 79q-11 -28 -27 -52 q-27 -37 -80 -114q-15 -38 -52 -117q-11 -22 -58 -68z" />
<glyph unicode="&#xc7;" horiz-adv-x="899" d="M298 131q5 -3 19 -15q15 -15 35 -18q12 -7 34 -20q13 -3 25 -6.5t11 -13.5q-3 -18 -43 -31q-3 -1 -41 -33q-17 -10 -43 -31q-24 -27 -44 -33q-9 -2 -29 15t-34 14q-5 -2 -17.5 9t-32.5 11q-4 0 -15.5 5.5t-17.5 2.5q-7 -3 -27 -3q-20 2 -23 7q-1 6 15.5 14.5t17.5 10.5 q7 8 21 18q16 4 19 20q0 7 6 23q4 4 17.5 -3t9.5 -9q4 -5 11 -10q7 2 15 -5t10 -5q10 8 26 -11q0 -8 17 -7q2 0 6.5 5.5t6.5 4.5q6 -3 10 0q5 3 4 10q-3 13 -18 10q-6 -2 -16.5 9t-17.5 11q-18 1 -20 10q-7 24 1.5 40t4 33.5t1.5 28.5h-2q5 16 5 31q0 14 -20 98 q-23 23 -72 45t-66 38q-30 28 -33 81q7 17 13 48q0 6 -8 16.5t-8 16.5q0 4 8 11.5t8 13.5q1 3 -6 4.5t-7 4.5q4 44 6 127q-9 3 -19 16q-1 13 4 37t6 33q-4 4 -5 10q10 7 21 25q1 3 -5 4.5t-8 5.5q0 6 5 16t5 14q0 7 -5 19t-5 18q2 16 7.5 46.5t5.5 45.5q0 6 -5.5 12.5 t-7.5 11.5q3 30 0 93q0 4 -7 14.5t-6 16.5q9 10 23 30q0 3 -5 5.5t-5 4.5q-1 32 6 58q4 1 14 7q6 16 26 33q21 4 116 -4q10 0 35.5 -7.5t39.5 -7.5q10 0 33 7.5t33 7.5q10 -5 32 -9q8 0 23.5 7t25.5 6q10 0 31 -11.5t36 -9.5q4 0 7.5 12.5t9.5 12.5q19 2 63.5 -7.5 t63.5 -9.5q33 0 56 17q65 53 95 53q16 0 13 -23q-13 -102 -13 -122q0 -27 7 -54q2 -7 -8 -17t-10 -14q7 -12 14 -37q-4 -29 -23 -26q-23 3 -112 45q-7 8 -23 18q-42 -8 -106 -13q-7 0 -23 4t-26 4q-7 0 -22 -5t-22 -3q-18 5 -52 13q-3 -5 -9 -9q-13 0 -46 8.5t-50 8.5 q-34 0 -50 -25t-16 -69q0 -4 7 -12.5t7 -14.5v-71q0 -10 4.5 -37.5t4.5 -41.5q0 -5 -6.5 -12t-6.5 -11q0 -19 6.5 -55.5t6.5 -56.5q0 -12 -4.5 -33t-4.5 -33q0 -14 -4 -46t-4 -49q0 -30 8 -49t37 -36q42 -21 49 -27q22 -30 75 -81q16 -14 67 -36q27 -5 78 -27q6 -2 5 -17 t3 -18q15 -7 46 -10t45 -11q6 -5 6.5 -24.5t10.5 -20.5t32 -5q18 -19 62 -50q16 -5 55 -5t57 -12q2 -1 2 -3q0 -4 -14 -14q-17 -10 -20 -14q-10 -14 -31.5 -44t-61.5 -90q-1 -1 -20 -42q-9 -26 -25 -24t-20 29q-4 40 -7 46q-7 1 -17 8q6 13 4 27q-6 6 -20 3t-19.5 1.5t-2 18 t-2.5 17.5q-4 3 -13.5 -3.5t-13.5 -4.5q-16 8 -35 28q-30 29 -32 30q-18 16 -58 48q-6 7 -21 17q-22 5 -57 20q-11 17 -43 46q5 -20 -1 -37q-2 -6 0 -43q1 -4 1 -8q-1 -19 0 -20z" />
<glyph unicode="&#xc8;" horiz-adv-x="1112" d="M979 1220q7 -32 0 -86q0 -5 -6.5 -12t-6.5 -11q0 -10 8.5 -33t4.5 -35q0 -15 -1.5 -28.5t-11.5 -11.5q-10 1 -28 21q-22 26 -26 29q-17 11 -64 21q-11 3 -41 0q-10 0 -60 -9q-37 -5 -61 -4q-11 0 -34 11.5t-34 11.5q-14 0 -40.5 -11.5t-39.5 -11.5q-10 0 -26 8t-23 9 q-33 4 -42 -4q-26 -37 -48 -118q-4 -13 0 -62q0 -30 -1 -62q0 -36 14 -56q4 -6 13 -6q7 0 24 6.5t25 6.5q6 0 9 -3q14 -6 30 -7q11 0 30.5 1.5t29.5 1.5q18 0 43 -8t36 -8q17 0 34 13q23 25 58 67q15 17 29 34t27 17q21 0 21 -24q0 -3 -13 -54q-3 -16 -3 -33 q0 -19 7.5 -48.5t7.5 -43.5q0 -15 -8 -44.5t-8 -52.5q0 -11 1 -31v-30q0 -46 -17 -46q-11 0 -29 32q-27 41 -32 45q-12 17 -45 40q-14 6 -37 4h-40q-6 0 -17 3t-20 3q-99 0 -119.5 -4.5t-39.5 -7.5q-13 -4 -13 -39q0 -74 20 -121q6 -13 23 -21q28 -13 31 -16 q12 -10 36.5 -29t57.5 -35.5t95 -51.5q21 -20 68 -59q33 -24 71 -45q17 -4 50 -19q10 -14 33 -41q11 -10 40 -21q19 -10 40 -20t36 -7q44 6 44 -16q0 -10 -17 -24q-22 -14 -62 -51q-6 -9 -9.5 -30t-9.5 -30q-11 0 -27 -7q-7 -20 -27 -54q-7 -8 -15 -8q-10 0 -19 24 q-14 40 -15 42q-15 16 -46 50q-10 20 -41 54q-4 3 -17 -4t-19 -4q-5 2 -10 18t-12 21q-30 22 -90 63q-20 17 -62 45q-33 9 -91 37q-7 5 -15.5 22t-17 24t-31.5 13q-26 5 -34 9q-29 13 -54 35q-10 14 -33 36q-21 10 -48 42q-9 22 5 76q15 61 12 80q6 26 1 57q-10 8 -35 5 q-34 -4 -39 -4q-58 4 -76 -30q-22 -42 -44 -58q-7 -4 -17 -1t-12 10q-3 14 -3 28q0 19 6.5 52t6.5 55q0 7 6 22t7 20q-13 20 -23 53q3 15 -5.5 47t-8.5 44q0 28 18 28q25 0 61 -39.5t39 -42.5q21 -19 47 -20q67 -3 71 4q11 17 11 46q0 9 -11 81q-2 7 -14.5 19.5t-12.5 21.5 q0 18 9 41.5t18 43.5q0 1 5.5 12t2.5 16q-2 6 -15 13t-14 13q-9 26 0 82q0 9 -9 36.5t-9 37.5q0 29 59 29q12 0 47 -3q28 -2 38.5 -1t25.5 -6t21 -7q8 4 20 8q7 -8 25 -17q19 -3 49 0q37 4 46 4q8 0 32 -4q21 -3 32 0q17 11 54 26q10 1 27 -7.5t27 -9.5q30 2 90 4 q4 0 12.5 -7t14.5 -6q7 0 12.5 10.5t10.5 10.5q17 -4 49 -4q10 3 32 33q17 21 46 21q23 0 23 -24q0 -7 -7 -27t-4 -33zM604 1306l1 1q9 16 29 45q7 2 17 7q14 19 12 22q-4 10 -22.5 20t-23.5 15q-12 24 -39 71q-13 12 -34 37q-8 13 -27 37q-13 12 -35 36q-16 18 -19 44 q0 10 -2 27.5t-4 17.5q-4 0 -14 -14q-8 -21 -30 -60q-12 -4 -35 -15q-3 -10 -10 -32q-6 -5 -16 -17q-12 -19 -12 -27t14 -15q25 -13 38 -23q40 -28 58 -43q12 -9 32 -27q5 0 14 -4q-2 -5 0 -15q7 2 21 0q6 -8 18 -19t38 -33q4 -7 9 -17q13 -14 22 -19z" />
<glyph unicode="&#xc9;" horiz-adv-x="1112" d="M979 1220q7 -32 0 -86q0 -5 -6.5 -12t-6.5 -11q0 -10 8.5 -33t4.5 -35q0 -15 -1.5 -28.5t-11.5 -11.5q-10 1 -28 21q-22 26 -26 29q-17 11 -64 21q-11 3 -41 0q-10 0 -60 -9q-37 -5 -61 -4q-11 0 -34 11.5t-34 11.5q-14 0 -40.5 -11.5t-39.5 -11.5q-10 0 -26 8t-23 9 q-33 4 -42 -4q-26 -37 -48 -118q-4 -13 0 -62q0 -30 -1 -62q0 -36 14 -56q4 -6 13 -6q7 0 24 6.5t25 6.5q6 0 9 -3q14 -6 30 -7q11 0 30.5 1.5t29.5 1.5q18 0 43 -8t36 -8q17 0 34 13q23 25 58 67q15 17 29 34t27 17q21 0 21 -24q0 -3 -13 -54q-3 -16 -3 -33 q0 -19 7.5 -48.5t7.5 -43.5q0 -15 -8 -44.5t-8 -52.5q0 -11 1 -31v-30q0 -46 -17 -46q-11 0 -29 32q-27 41 -32 45q-12 17 -45 40q-14 6 -37 4h-40q-6 0 -17 3t-20 3q-99 0 -119.5 -4.5t-39.5 -7.5q-13 -4 -13 -39q0 -74 20 -121q6 -13 23 -21q28 -13 31 -16 q12 -10 36.5 -29t57.5 -35.5t95 -51.5q21 -20 68 -59q33 -24 71 -45q17 -4 50 -19q10 -14 33 -41q11 -10 40 -21q19 -10 40 -20t36 -7q44 6 44 -16q0 -10 -17 -24q-22 -14 -62 -51q-6 -9 -9.5 -30t-9.5 -30q-11 0 -27 -7q-7 -20 -27 -54q-7 -8 -15 -8q-10 0 -19 24 q-14 40 -15 42q-15 16 -46 50q-10 20 -41 54q-4 3 -17 -4t-19 -4q-5 2 -10 18t-12 21q-30 22 -90 63q-20 17 -62 45q-33 9 -91 37q-7 5 -15.5 22t-17 24t-31.5 13q-26 5 -34 9q-29 13 -54 35q-10 14 -33 36q-21 10 -48 42q-9 22 5 76q15 61 12 80q6 26 1 57q-10 8 -35 5 q-34 -4 -39 -4q-58 4 -76 -30q-22 -42 -44 -58q-7 -4 -17 -1t-12 10q-3 14 -3 28q0 19 6.5 52t6.5 55q0 7 6 22t7 20q-13 20 -23 53q3 15 -5.5 47t-8.5 44q0 28 18 28q25 0 61 -39.5t39 -42.5q21 -19 47 -20q67 -3 71 4q11 17 11 46q0 9 -11 81q-2 7 -14.5 19.5t-12.5 21.5 q0 18 9 41.5t18 43.5q0 1 5.5 12t2.5 16q-2 6 -15 13t-14 13q-9 26 0 82q0 9 -9 36.5t-9 37.5q0 29 59 29q12 0 47 -3q28 -2 38.5 -1t25.5 -6t21 -7q8 4 20 8q7 -8 25 -17q19 -3 49 0q37 4 46 4q8 0 32 -4q21 -3 32 0q17 11 54 26q10 1 27 -7.5t27 -9.5q30 2 90 4 q4 0 12.5 -7t14.5 -6q7 0 12.5 10.5t10.5 10.5q17 -4 49 -4q10 3 32 33q17 21 46 21q23 0 23 -24q0 -7 -7 -27t-4 -33zM604 1306l1 1q9 16 29 45q7 2 17 7q14 19 12 22q-4 10 -22.5 20t-23.5 15q-12 24 -39 71q-13 12 -34 37q-8 13 -27 37q-13 12 -35 36q-16 18 -19 44 q0 10 -2 27.5t-4 17.5q-4 0 -14 -14q-8 -21 -30 -60q-12 -4 -35 -15q-3 -10 -10 -32q-6 -5 -16 -17q-12 -19 -12 -27t14 -15q25 -13 38 -23q40 -28 58 -43q12 -9 32 -27q5 0 14 -4q-2 -5 0 -15q7 2 21 0q6 -8 18 -19t38 -33q4 -7 9 -17q13 -14 22 -19z" />
<glyph unicode="&#xca;" horiz-adv-x="1112" d="M979 1220q7 -32 0 -86q0 -5 -6.5 -12t-6.5 -11q0 -10 8.5 -33t4.5 -35q0 -15 -1.5 -28.5t-11.5 -11.5q-10 1 -28 21q-22 26 -26 29q-17 11 -64 21q-11 3 -41 0q-10 0 -60 -9q-37 -5 -61 -4q-11 0 -34 11.5t-34 11.5q-14 0 -40.5 -11.5t-39.5 -11.5q-10 0 -26 8t-23 9 q-33 4 -42 -4q-26 -37 -48 -118q-4 -13 0 -62q0 -30 -1 -62q0 -36 14 -56q4 -6 13 -6q7 0 24 6.5t25 6.5q6 0 9 -3q14 -6 30 -7q11 0 30.5 1.5t29.5 1.5q18 0 43 -8t36 -8q17 0 34 13q23 25 58 67q15 17 29 34t27 17q21 0 21 -24q0 -3 -13 -54q-3 -16 -3 -33 q0 -19 7.5 -48.5t7.5 -43.5q0 -15 -8 -44.5t-8 -52.5q0 -11 1 -31v-30q0 -46 -17 -46q-11 0 -29 32q-27 41 -32 45q-12 17 -45 40q-14 6 -37 4h-40q-6 0 -17 3t-20 3q-99 0 -119.5 -4.5t-39.5 -7.5q-13 -4 -13 -39q0 -74 20 -121q6 -13 23 -21q28 -13 31 -16 q12 -10 36.5 -29t57.5 -35.5t95 -51.5q21 -20 68 -59q33 -24 71 -45q17 -4 50 -19q10 -14 33 -41q11 -10 40 -21q19 -10 40 -20t36 -7q44 6 44 -16q0 -10 -17 -24q-22 -14 -62 -51q-6 -9 -9.5 -30t-9.5 -30q-11 0 -27 -7q-7 -20 -27 -54q-7 -8 -15 -8q-10 0 -19 24 q-14 40 -15 42q-15 16 -46 50q-10 20 -41 54q-4 3 -17 -4t-19 -4q-5 2 -10 18t-12 21q-30 22 -90 63q-20 17 -62 45q-33 9 -91 37q-7 5 -15.5 22t-17 24t-31.5 13q-26 5 -34 9q-29 13 -54 35q-10 14 -33 36q-21 10 -48 42q-9 22 5 76q15 61 12 80q6 26 1 57q-10 8 -35 5 q-34 -4 -39 -4q-58 4 -76 -30q-22 -42 -44 -58q-7 -4 -17 -1t-12 10q-3 14 -3 28q0 19 6.5 52t6.5 55q0 7 6 22t7 20q-13 20 -23 53q3 15 -5.5 47t-8.5 44q0 28 18 28q25 0 61 -39.5t39 -42.5q21 -19 47 -20q67 -3 71 4q11 17 11 46q0 9 -11 81q-2 7 -14.5 19.5t-12.5 21.5 q0 18 9 41.5t18 43.5q0 1 5.5 12t2.5 16q-2 6 -15 13t-14 13q-9 26 0 82q0 9 -9 36.5t-9 37.5q0 29 59 29q12 0 47 -3q28 -2 38.5 -1t25.5 -6t21 -7q8 4 20 8q7 -8 25 -17q19 -3 49 0q37 4 46 4q8 0 32 -4q21 -3 32 0q17 11 54 26q10 1 27 -7.5t27 -9.5q30 2 90 4 q4 0 12.5 -7t14.5 -6q7 0 12.5 10.5t10.5 10.5q17 -4 49 -4q10 3 32 33q17 21 46 21q23 0 23 -24q0 -7 -7 -27t-4 -33zM384 1306l-2 1q-8 16 -27 45q-7 2 -15 7q-16 19 -15 22q3 10 21.5 20t24.5 15q11 24 40 71q11 12 32 37q9 13 29 37q11 12 34 36q17 18 21 44v25 q1 20 6 20q1 0 11 -14q9 -21 30 -60q14 -4 35 -15q3 -10 10 -32q6 -5 16 -17q14 -19 14 -27t-15 -15q-26 -13 -39 -23q-38 -27 -58 -43q-9 -9 -31 -27q-6 0 -13 -4q1 -5 0 -15q-7 2 -21 0q-5 -6 -18.5 -18t-38.5 -34q-3 -7 -9.5 -15.5t-21.5 -20.5z" />
<glyph unicode="&#xcb;" horiz-adv-x="1130" d="M993 1237q9 -32 0 -88q0 -4 -6.5 -11t-6.5 -11q0 -10 8.5 -33.5t4.5 -35.5q0 -14 -1.5 -28t-11.5 -13q-10 2 -30.5 24.5t-23.5 25.5q-18 13 -65 23q-11 2 -40 0q-13 -2 -62 -9q-39 -6 -63 -6q-11 2 -33 13.5t-37 11.5q-14 0 -40 -11.5t-40 -13.5q-9 0 -25.5 8.5 t-24.5 11.5q-34 5 -40 -5q-30 -39 -51 -120q-4 -14 0 -64q-2 15 -2 -62q0 -37 15 -57q5 -6 12 -6q8 0 25.5 7.5t26.5 7.5q4 0 8 -3q14 -7 31 -9q10 -1 30 1t31 2q17 0 43 -8.5t36 -8.5q18 0 35 14q23 26 60 70q14 15 28 32t27 17q21 0 21 -24q0 -3 -9 -55q-6 -16 -6 -34 q0 -19 7.5 -48.5t7.5 -44.5q0 -14 -8.5 -44.5t-8.5 -53.5q0 -11 2.5 -32.5t2.5 -29.5q0 -44 -20 -44q-12 0 -31 31q-27 41 -30 46q-14 15 -47 41q-14 6 -39 4h-39q-6 0 -18 2t-18 2q-102 0 -122.5 -3.5t-40.5 -7.5q-13 -4 -13 -41q0 -73 20 -121q6 -13 24 -23q28 -12 31 -15 q12 -10 37.5 -30t59 -36.5t95.5 -51.5q21 -22 70 -60q32 -24 71 -47q20 -4 51 -18q10 -14 33 -41q11 -10 41 -22q20 -10 40.5 -20t37.5 -8q44 6 44 -16q0 -10 -17 -24q-23 -16 -64 -53q-6 -7 -9.5 -29t-9.5 -30q-9 0 -26 -7q-9 -22 -27 -56q-9 -8 -16 -8q-11 0 -20 25 q-14 40 -16 43q-15 16 -47 50q-9 21 -39 55q-5 3 -18.5 -4t-18.5 -4q-7 2 -12 18.5t-11 20.5q-31 23 -92 64q-20 17 -64 46q-31 10 -90 38q-10 4 -17.5 22t-17 24.5t-30.5 11.5q-27 6 -36 10q-29 15 -55 37q-10 13 -33 36q-21 10 -49 42q-7 23 5 79q15 61 12 80q5 26 3 57 q-10 9 -37 5q-35 -3 -39 -3q-59 4 -78 -30q-23 -44 -45 -60q-6 -4 -17 -1q-10 3 -12 10q-3 14 -3 31t6.5 50.5t6.5 54.5q0 7 6 22.5t7 21.5q-13 20 -23 53q3 17 -5.5 49t-8.5 43q0 30 18 30q25 0 61.5 -40t39.5 -42q23 -22 47 -22q68 -3 73 4q11 19 11 46q0 10 -11 82 q0 9 -13 21.5t-13 21.5q0 17 10 44q9 21 16 44q1 0 7 13q4 7 3 13q-3 5 -16.5 12t-15.5 15q-8 25 0 82q2 10 -7.5 37.5t-9.5 39.5q0 30 60 30q14 0 47 -5q30 -3 42 -1q9 1 24 -6t22 -8q7 5 18 8q9 -7 27 -17q19 -1 49 2q37 2 48 2q7 0 31 -2q22 -3 33 -2q17 13 55 29 q10 1 28 -9t26 -11q30 4 91 4q6 0 15 -7t14 -6q5 2 11.5 11.5t10.5 11.5q17 -4 52 -6q9 4 31 34q17 22 47 22q24 0 24 -25q0 -5 -8 -26.5t-5 -34.5zM658 1531q8 10 35 57q17 19 43 60q1 4 3 23q1 12 8 12q22 -1 61 -42q12 -12 27 -35t24 -35q15 -1 33 -14q9 -21 -7 -55 q-8 -16 -44 -50q-11 -6 -33 -21q-11 -15 -21 -52q-1 -11 -4 -22.5t-13 -11.5q-9 0 -27 13q-7 6 -12 24.5t-10.5 23.5t-20.5 18.5t-48 41.5q-8 4 -17.5 9t-9.5 15q1 12 13 21q20 19 20 20zM321 1330v2l-17 2q3 7 -1 13q-19 18 -53 59q-10 22 -37 60q-4 4 -19 5t-15 8 q0 21 28 57q23 25 44 52q12 20 24 43t30 30q15 5 23 5q26 0 17 -31q-7 -21 29 -64q10 -3 28 -18q4 -7 20 -20q10 -7 10 -20t-11 -30q-9 -11 -18 -21q2 -9 -1 -23q-7 -6 -20 -16q-1 -8 -8 -27q-22 -35 -53 -66z" />
</font>
</defs>
</svg>
